*
*
G04 PADS 9.4.1 Build Number: 494907 generated Gerber (RS-274-X) file*
G04 PC Version=2.1*
*
%IN "ATMEGA8-KSC.pcb"*%
*
%MOIN*%
*
%FSLAX35Y35*%
*
*
*
*
G04 PC Standard Apertures*
*
*
G04 Thermal Relief Aperture macro.*
%AMTER*
1,1,$1,0,0*
1,0,$1-$2,0,0*
21,0,$3,$4,0,0,45*
21,0,$3,$4,0,0,135*
%
*
*
G04 Annular Aperture macro.*
%AMANN*
1,1,$1,0,0*
1,0,$2,0,0*
%
*
*
G04 Odd Aperture macro.*
%AMODD*
1,1,$1,0,0*
1,0,$1-0.005,0,0*
%
*
*
G04 PC Custom Aperture Macros*
*
*
*
*
*
*
G04 PC Aperture Table*
*
%ADD010C,0.001*%
%ADD012R,0.05906X0.05906*%
%ADD013C,0.05906*%
%ADD014C,0.05709*%
%ADD017R,0.04724X0.04724*%
%ADD018C,0.04724*%
%ADD020R,0.05118X0.07874*%
%ADD021O,0.05118X0.07874*%
%ADD027C,0.1378*%
%ADD028C,0.02362*%
%ADD030C,0.01181*%
%ADD032C,0.03543*%
%ADD033C,0.00394*%
%ADD034C,0.01575*%
*
*
*
*
G04 PC Circuitry*
G04 Layer Name ATMEGA8-KSC.pcb - circuitry*
%LPD*%
*
*
G04 PC Custom Flashes*
G04 Layer Name ATMEGA8-KSC.pcb - flashes*
%LPD*%
*
*
G04 PC Circuitry*
G04 Layer Name ATMEGA8-KSC.pcb - circuitry*
%LPD*%
*
G54D10*
G54D12*
G01X146260Y146063D03*
X150984Y262205D03*
X263543Y124685D03*
X146181Y117717D03*
X247795Y355906D03*
X346969Y249016D03*
G54D13*
X160039Y146063D03*
X137205Y262205D03*
X111102Y193307D03*
X151102D03*
X133976Y296457D03*
X143976D03*
X263543Y114685D03*
X253543Y124685D03*
Y114685D03*
X243543Y124685D03*
Y114685D03*
X156181Y117717D03*
X237795Y355906D03*
X227795D03*
X303346Y207283D03*
X349606Y282283D03*
X326772Y229134D03*
X268504Y310236D03*
X359843Y166732D03*
X326772Y219291D03*
Y209055D03*
X359449Y179134D03*
X326772Y198819D03*
X348819Y179134D03*
X112205Y173228D03*
X298425Y272835D03*
X299606Y169291D03*
X265748Y247638D03*
X238189Y249606D03*
X250394Y248819D03*
X110236Y131890D03*
X364173Y265748D03*
X350394Y294488D03*
X356969Y249016D03*
X346969Y239016D03*
X356969D03*
X346969Y229016D03*
X356969D03*
X346969Y219016D03*
X356969D03*
X346969Y209016D03*
X356969D03*
X346969Y199016D03*
X356969D03*
G54D14*
X226969Y230709D03*
X236811D03*
G54D17*
X274016Y227441D03*
G54D18*
Y217441D03*
G54D20*
X144488Y173228D03*
G54D21*
X151181D03*
X157874D03*
X164567D03*
X171260D03*
G54D27*
X115748Y115748D03*
Y359843D03*
X359843D03*
Y115748D03*
G54D28*
X103750Y103750D03*
X131588D03*
X159427D03*
X187266D03*
X215105D03*
X242944D03*
X173347Y117669D03*
X201186D03*
X215508Y117252D03*
X229024Y117669D03*
X103750Y131588D03*
X159427D03*
X187266D03*
X117669Y145508D03*
X173347D03*
X201186D03*
X103750Y159427D03*
X159427D03*
X187266D03*
X215105D03*
X270783D03*
X229024Y173347D03*
X263780Y177559D03*
X258268Y175591D03*
X298622Y103750D03*
X342573Y134634D03*
X329842Y117986D03*
X354299Y131588D03*
Y103750D03*
X340380Y117669D03*
X326460Y131588D03*
Y103750D03*
X312541Y117669D03*
X117822Y212734D03*
X131588Y215105D03*
X117669Y201186D03*
X103750Y215105D03*
Y187266D03*
X215105Y215105D03*
X201186Y201186D03*
X243701Y188976D03*
X284059Y164258D03*
X231290Y184470D03*
X298622Y159427D03*
X284702Y145508D03*
X263780Y188583D03*
X254331Y208661D03*
X287752Y210630D03*
X291339Y207480D03*
X278346Y202362D03*
X244882Y203937D03*
X342573Y158138D03*
X331556Y145407D03*
X368219Y145508D03*
X354299Y159427D03*
X340380Y173347D03*
Y145508D03*
X326460Y187266D03*
Y159427D03*
X118311Y274186D03*
X118556Y247255D03*
X131588Y242944D03*
X117669Y284702D03*
Y256863D03*
Y229024D03*
X103750Y298622D03*
Y270783D03*
Y242944D03*
X181966Y296955D03*
X215105Y298622D03*
Y270783D03*
Y242944D03*
X201186Y284702D03*
Y256863D03*
Y229024D03*
X187266Y298622D03*
Y270783D03*
Y242944D03*
X173347Y284702D03*
Y256863D03*
X159427Y298622D03*
X199606Y222835D03*
X284702Y256863D03*
Y229024D03*
X256863Y284702D03*
X229024D03*
Y256863D03*
X247776Y268898D03*
X237776Y268504D03*
X257480Y275197D03*
X272441Y277559D03*
X278346Y289370D03*
X224760Y222835D03*
X261461Y277559D03*
X368219Y229024D03*
X354299Y270783D03*
X326460Y298622D03*
Y270783D03*
Y242944D03*
X317280Y263780D03*
X115373Y301607D03*
X131588Y354299D03*
Y326460D03*
X117669Y340380D03*
Y312541D03*
X103750Y354299D03*
Y326460D03*
X142060Y348369D03*
X152342Y341514D03*
X163604Y351307D03*
X182456Y342983D03*
X208897Y348614D03*
X168991Y325110D03*
X181722Y328538D03*
X215105Y354299D03*
Y326460D03*
X201186Y368219D03*
Y340380D03*
Y312541D03*
X187266Y354299D03*
Y326460D03*
X173347Y368219D03*
Y340380D03*
Y312541D03*
X159427Y354299D03*
Y326460D03*
X145508Y368219D03*
Y340380D03*
Y312541D03*
X299973Y337596D03*
X298622Y354299D03*
Y326460D03*
X284702Y368219D03*
Y340380D03*
Y312541D03*
X270783Y354299D03*
Y326460D03*
X256863Y368219D03*
Y340380D03*
Y312541D03*
X229024Y368219D03*
Y340380D03*
Y312541D03*
X330087Y322907D03*
X331066Y335148D03*
X353835Y342493D03*
X360201Y316052D03*
X310746Y325355D03*
X312215Y354245D03*
X368219Y340380D03*
Y312541D03*
X354299Y326460D03*
X340380Y368219D03*
Y340380D03*
Y312541D03*
X326460Y354299D03*
Y326460D03*
X312541Y368219D03*
Y340380D03*
Y312541D03*
G54D30*
X253543Y114685D02*
X258268Y120197D01*
Y175591*
X243543Y124685D02*
X243661Y124803D01*
X243701*
Y165945*
X253543Y124685D02*
Y179016D01*
X263780Y188583*
X263543Y124685D02*
X263780Y124921D01*
Y177559*
X243701Y168110D02*
Y165945D01*
Y188976*
X254331Y208661D02*
X258661Y212992D01*
Y240551*
X250394Y248819*
X287752Y210630D02*
X291295Y214173D01*
Y237795*
X317280Y263780*
X291339Y207480D02*
X294055D01*
X296811Y210236*
Y228346*
X302323Y233858*
X351811*
X356969Y239016*
X278346Y202362D02*
X280315Y204331D01*
Y242126*
X278346Y244094*
Y289370*
X244882Y203937D02*
X260630D01*
X265748Y209055*
Y247638*
X199606Y222835D02*
X224760D01*
X261461Y277559D02*
X272441D01*
X250394Y248819D02*
X251437D01*
X251969Y249350*
X247776Y253543*
Y268898*
X238189Y249606D02*
Y268091D01*
X237776Y268504*
X265748Y247638D02*
Y268898D01*
X259449Y275197*
X257480*
G54D32*
X190551Y147244D03*
X190157Y170122D03*
X181933Y199606D03*
X208268Y194882D03*
X207874Y201181D03*
X285827Y177165D03*
X244094Y198031D03*
X240551Y204331D03*
X264173Y201181D03*
X179921Y253543D03*
X285433Y272441D03*
X285039Y235433D03*
X341732Y289764D03*
X261461Y306693D03*
X252776Y308661D03*
X317323Y306693D03*
G54D33*
X368504Y115748D02*
G75*
G03X368504I-8661J0D01*
G01X364567Y166732D02*
G03X364567I-4724J0D01*
G01X364173Y179134D02*
G03X364173I-4724J0D01*
G01X353543D02*
G03X353543I-4724J0D01*
G01X361693Y199016D02*
G03X361693I-4724J0D01*
G01Y209016D02*
G03X361693I-4724J0D01*
G01Y219016D02*
G03X361693I-4724J0D01*
G01Y249016D02*
G03X361693I-4724J0D01*
G01X368898Y265748D02*
G03X368898I-4725J0D01*
G01X354331Y282283D02*
G03X354331I-4725J0D01*
G01X355118Y294488D02*
G03X355118I-4724J0D01*
G01X368504Y359843D02*
G03X368504I-8661J0D01*
G01X303150Y272835D02*
G03X303150I-4725J0D01*
G01X273228Y310236D02*
G03X273228I-4724J0D01*
G01X241437Y230709D02*
G03X241437I-4626J0D01*
G01X242520Y355906D02*
G03X242520I-4725J0D01*
G01X231595Y230709D02*
G03X231595I-4626J0D01*
G01X232520Y355906D02*
G03X232520I-4725J0D01*
G01X160906Y117717D02*
G03X160906I-4725J0D01*
G01X164764Y146063D02*
G03X164764I-4725J0D01*
G01X155827Y193307D02*
G03X155827I-4725J0D01*
G01X141929Y262205D02*
G03X141929I-4724J0D01*
G01X148701Y296457D02*
G03X148701I-4725J0D01*
G01X138701D02*
G03X138701I-4725J0D01*
G01X124409Y115748D02*
G03X124409I-8661J0D01*
G01X114961Y131890D02*
G03X114961I-4725J0D01*
G01X116929Y173228D02*
G03X116929I-4724J0D01*
G01X115827Y193307D02*
G03X115827I-4725J0D01*
G01X124409Y359843D02*
G03X124409I-8661J0D01*
G01X268268Y114685D02*
G03X268268I-4725J0D01*
G01X248268D02*
G03X248268I-4725J0D01*
G01X304331Y169291D02*
G03X304331I-4725J0D01*
G01X331496Y198819D02*
G03X331496I-4724J0D01*
G01Y209055D02*
G03X331496I-4724J0D01*
G01X351693Y199016D02*
G03X351693I-4724J0D01*
G01Y209016D02*
G03X351693I-4724J0D01*
G01Y219016D02*
G03X351693I-4724J0D01*
G01X373425Y102362D02*
Y373228D01*
G03X373228Y373425I-197J0*
G01X102362*
G03X102165Y373228I0J-197*
G01Y102362*
G03X102362Y102165I197J0*
G01X373228*
G03X373425Y102362I0J197*
G01X368504Y115748D02*
G03X368504I-8661J0D01*
G01X364567Y166732D02*
G03X364567I-4724J0D01*
G01X364173Y179134D02*
G03X364173I-4724J0D01*
G01X353543D02*
G03X353543I-4724J0D01*
G01X361693Y199016D02*
G03X361693I-4724J0D01*
G01Y209016D02*
G03X361693I-4724J0D01*
G01Y219016D02*
G03X361693I-4724J0D01*
G01X355852Y234425D02*
G03X352378Y237899I1117J4591D01*
G01X355852Y234425D02*
G03X355666Y234373I-46J-191D01*
G01X355028Y233735*
G03X355239Y233412I139J-139*
G01X352866Y231359D02*
G03X355240Y233412I4103J-2343D01*
G01X352866Y231359D02*
G03X352627Y231642I-171J98D01*
G01X351811Y231496D02*
G03X352627Y231642I0J2362D01*
G01X351811Y231496D02*
X351328D01*
G03X351154Y231208I-0J-197*
G01X342783D02*
G03X351154I4186J-2192D01*
G01X342783D02*
G03X342609Y231496I-174J91D01*
G01X331191*
G03X331014Y231213I-0J-197*
G01X326785Y224409D02*
G03X331014Y231213I-13J4725D01*
G01X326785Y224409D02*
G03X326772I1J-196D01*
X326758I-15J-196*
G01X322529Y231213D02*
G03X326758Y224409I4243J-2079D01*
G01X322529Y231213D02*
G03X322352Y231496I-177J86D01*
G01X303383*
G03X303244Y231438I-0J-197*
G01X299231Y227426*
G03X299173Y227286I139J-140*
G01Y210236*
Y210186D02*
G03Y210236I-2362J50D01*
G01Y210186D02*
G03X299529Y210066I197J-4D01*
G01X298734Y208305D02*
G03X299529Y210066I4612J-1022D01*
G01X298734Y208305D02*
G03X298402Y208487I-192J43D01*
G01X295725Y205810*
X294055Y205118D02*
G03X295725Y205810I0J2362D01*
G01X294055Y205118D02*
X293175D01*
G03X293060Y205081I-0J-197*
G01X288386Y207509D02*
G03X293060Y205081I2953J-29D01*
G01X288386Y207509D02*
Y207511D01*
G03X288162Y207706I-197J-0*
G01X287273Y213544D02*
G03X288162Y207706I479J-2914D01*
G01X287273Y213544D02*
G03X287380Y213599I-32J194D01*
G01X288875Y215094*
G03X288933Y215233I-139J139*
G01Y237795*
X289625Y239466D02*
G03X288933Y237795I1670J-1671D01*
G01X289625Y239466D02*
X314311Y264152D01*
G03X314366Y264259I-139J139*
G01X317759Y260866D02*
G03X314366Y264259I-479J2914D01*
G01X317759Y260866D02*
G03X317652Y260811I32J-194D01*
G01X293715Y236874*
G03X293658Y236735I139J-139*
G01X293658D02*
Y214173D01*
X292966Y212503D02*
G03X293658Y214173I-1671J1670D01*
G01X292966Y212503D02*
X291232Y210769D01*
G03X291369Y210433I139J-139*
G01X292960Y209948D02*
G03X291369Y210433I-1621J-2468D01*
G01X292960Y209948D02*
G03X293207Y209973I108J165D01*
G01X294391Y211157*
G03X294449Y211296I-139J139*
G01Y228346*
X295141Y230017D02*
G03X294449Y228346I1670J-1671D01*
G01X295141Y230017D02*
X300652Y235529D01*
X302323Y236220D02*
G03X300652Y235529I-0J-2362D01*
G01X302323Y236220D02*
X342789D01*
G03X342956Y236521I0J197*
G01X351365Y237287D02*
G03X342956Y236521I-4396J1729D01*
G01X351365Y237287D02*
G03X351688Y237076I183J-72D01*
G01X352326Y237714*
G03X352378Y237899I-139J139*
G01X361693Y249016D02*
G03X361693I-4724J0D01*
G01X368898Y265748D02*
G03X368898I-4725J0D01*
G01X351693Y251969D02*
Y246063D01*
X349921Y244291D02*
G03X351693Y246063I0J1772D01*
G01X349921Y244291D02*
X344016D01*
X342244Y246063D02*
G03X344016Y244291I1772J-0D01*
G01X342244Y246063D02*
Y251969D01*
X344016Y253740D02*
G03X342244Y251969I-0J-1771D01*
G01X344016Y253740D02*
X349921D01*
X351693Y251969D02*
G03X349921Y253740I-1772J-0D01*
G01X354331Y282283D02*
G03X354331I-4725J0D01*
G01X355118Y294488D02*
G03X355118I-4724J0D01*
G01X368504Y359843D02*
G03X368504I-8661J0D01*
G01X303150Y272835D02*
G03X303150I-4725J0D01*
G01X282677Y242126D02*
Y204331D01*
X281985Y202660D02*
G03X282677Y204331I-1670J1671D01*
G01X281985Y202660D02*
X281315Y201990D01*
G03X281260Y201883I139J-139*
G01X277793Y205263D02*
G03X281260Y201883I553J-2901D01*
G01X277793Y205263D02*
G03X277953Y205456I-37J193D01*
G01Y215258*
G03X277586Y215357I-197J-0*
G01Y219525D02*
G03Y215357I-3570J-2084D01*
G01Y219525D02*
G03X277953Y219624I170J99D01*
G01Y223673*
G03X277618Y223813I-197J-0*
G01X276378Y223307D02*
G03X277618Y223813I-0J1772D01*
G01X276378Y223307D02*
X271654D01*
X269882Y225079D02*
G03X271654Y223307I1772J-0D01*
G01X269882Y225079D02*
Y229803D01*
X271654Y231575D02*
G03X269882Y229803I-0J-1772D01*
G01X271654Y231575D02*
X276378D01*
X277618Y231068D02*
G03X276378Y231575I-1240J-1265D01*
G01X277618Y231068D02*
G03X277953Y231209I138J141D01*
G01Y241066*
G03X277895Y241205I-197J-0*
G01X276676Y242424*
X275984Y244094D02*
G03X276676Y242424I2362J0D01*
G01X275984Y244094D02*
Y287534D01*
G03X275947Y287649I-197J-0*
G01X280746D02*
G03X275947I-2400J1721D01*
G01X280746D02*
G03X280709Y287534I160J-115D01*
G01Y245154*
G03X280766Y245015I197J0*
G01X281985Y243796*
X282677Y242126D02*
G03X281985Y243796I-2362J-0D01*
G01X273228Y310236D02*
G03X273228I-4724J0D01*
G01X252520Y358858D02*
Y352953D01*
X250748Y351181D02*
G03X252520Y352953I0J1772D01*
G01X250748Y351181D02*
X244843D01*
X243071Y352953D02*
G03X244843Y351181I1772J-0D01*
G01X243071Y352953D02*
Y358858D01*
X244843Y360630D02*
G03X243071Y358858I-0J-1772D01*
G01X244843Y360630D02*
X250748D01*
X252520Y358858D02*
G03X250748Y360630I-1772J0D01*
G01X241437Y230709D02*
G03X241437I-4626J0D01*
G01X235732Y253642D02*
G03X240646I2457J-4036D01*
G01X235732D02*
G03X235827Y253810I-102J168D01*
G01Y266198*
G03X235764Y266342I-197J0*
G01X240562Y267528D02*
G03X235764Y266342I-2786J976D01*
G01X240562Y267528D02*
G03X240551Y267462I186J-66D01*
G01Y253810*
G03X240646Y253642I197J-0*
G01X242520Y355906D02*
G03X242520I-4725J0D01*
G01X223038Y220436D02*
G03Y225234I1722J2399D01*
G01Y220436D02*
G03X222924Y220472I-114J-160D01*
G01X201442*
G03X201328Y220436I0J-196*
G01Y225234D02*
G03Y220436I-1722J-2399D01*
G01Y225234D02*
G03X201442Y225197I114J160D01*
G01X222924*
G03X223038Y225234I-0J197*
G01X231595Y230709D02*
G03X231595I-4626J0D01*
G01X232520Y355906D02*
G03X232520I-4725J0D01*
G01X160906Y117717D02*
G03X160906I-4725J0D01*
G01X164764Y146063D02*
G03X164764I-4725J0D01*
G01X150906Y120669D02*
Y114764D01*
X149134Y112992D02*
G03X150906Y114764I-0J1772D01*
G01X149134Y112992D02*
X143228D01*
X141457Y114764D02*
G03X143228Y112992I1771J-0D01*
G01X141457Y114764D02*
Y120669D01*
X143228Y122441D02*
G03X141457Y120669I0J-1772D01*
G01X143228Y122441D02*
X149134D01*
X150906Y120669D02*
G03X149134Y122441I-1772J0D01*
G01X150984Y149016D02*
Y143110D01*
X149213Y141339D02*
G03X150984Y143110I-0J1771D01*
G01X149213Y141339D02*
X143307D01*
X141535Y143110D02*
G03X143307Y141339I1772J0D01*
G01X141535Y143110D02*
Y149016D01*
X143307Y150787D02*
G03X141535Y149016I0J-1771D01*
G01X143307Y150787D02*
X149213D01*
X150984Y149016D02*
G03X149213Y150787I-1771J-0D01*
G01X175591Y174606D02*
Y171850D01*
X168059Y168933D02*
G03X175591Y171850I3201J2917D01*
G01X168059Y168933D02*
G03X167768I-146J-132D01*
G01X161366D02*
G03X167768I3201J2917D01*
G01X161366D02*
G03X161075I-146J-132D01*
G01X154673D02*
G03X161075I3201J2917D01*
G01X154673D02*
G03X154382I-145J-132D01*
G01X148736Y168276D02*
G03X154382Y168933I2445J3574D01*
G01X148736Y168276D02*
G03X148467Y168231I-111J-162D01*
G01X147047Y167520D02*
G03X148467Y168231I0J1771D01*
G01X147047Y167520D02*
X141929D01*
X140157Y169291D02*
G03X141929Y167520I1772J0D01*
G01X140157Y169291D02*
Y177165D01*
X141929Y178937D02*
G03X140157Y177165I0J-1772D01*
G01X141929Y178937D02*
X147047D01*
X148467Y178225D02*
G03X147047Y178937I-1420J-1060D01*
G01X148467Y178225D02*
G03X148736Y178181I158J118D01*
G01X154382Y177523D02*
G03X148736Y178181I-3201J-2917D01*
G01X154382Y177523D02*
G03X154673I146J133D01*
G01X161075D02*
G03X154673I-3201J-2917D01*
G01X161075D02*
G03X161366I145J133D01*
G01X167768D02*
G03X161366I-3201J-2917D01*
G01X167768D02*
G03X168059I145J133D01*
G01X175591Y174606D02*
G03X168059Y177523I-4331J0D01*
G01X155827Y193307D02*
G03X155827I-4725J0D01*
G01X155709Y265157D02*
Y259252D01*
X153937Y257480D02*
G03X155709Y259252I0J1772D01*
G01X153937Y257480D02*
X148031D01*
X146260Y259252D02*
G03X148031Y257480I1771J-0D01*
G01X146260Y259252D02*
Y265157D01*
X148031Y266929D02*
G03X146260Y265157I0J-1772D01*
G01X148031Y266929D02*
X153937D01*
X155709Y265157D02*
G03X153937Y266929I-1772J0D01*
G01X141929Y262205D02*
G03X141929I-4724J0D01*
G01X148701Y296457D02*
G03X148701I-4725J0D01*
G01X138701D02*
G03X138701I-4725J0D01*
G01X124409Y115748D02*
G03X124409I-8661J0D01*
G01X114961Y131890D02*
G03X114961I-4725J0D01*
G01X116929Y173228D02*
G03X116929I-4724J0D01*
G01X115827Y193307D02*
G03X115827I-4725J0D01*
G01X124409Y359843D02*
G03X124409I-8661J0D01*
G01X268268Y114685D02*
G03X268268I-4725J0D01*
G01Y127638D02*
Y121732D01*
X266496Y119961D02*
G03X268268Y121732I0J1771D01*
G01X266496Y119961D02*
X260790D01*
G03X260596Y119797I-0J-197*
G01X260061Y118660D02*
G03X260596Y119797I-1793J1537D01*
G01X260061Y118660D02*
X258073Y116339D01*
G03X258035Y116150I149J-128*
G01X254304Y119348D02*
G03X258035Y116150I-761J-4663D01*
G01X254304Y119348D02*
G03X254485Y119414I32J194D01*
G01X254780Y119757*
G03X254587Y120077I-150J128*
G01X251087Y128720D02*
G03X254587Y120077I2456J-4035D01*
G01X251087Y128720D02*
G03X251181Y128889I-103J169D01*
G01Y179016*
X251930Y180742D02*
G03X251181Y179016I1613J-1726D01*
G01X251930Y180742D02*
X260825Y189055D01*
G03X260884Y189160I-134J144*
G01X264160Y185655D02*
G03X260884Y189160I-380J2928D01*
G01X264160Y185655D02*
G03X264051Y185603I25J-196D01*
G01X255968Y178049*
G03X255906Y177905I134J-144*
G01Y177878*
G03X256238Y177735I196J-0*
G01X260484Y177542D02*
G03X256238Y177735I-2216J-1951D01*
G01X260484Y177542D02*
G03X260829Y177665I148J130D01*
G01X266179Y175838D02*
G03X260829Y177665I-2399J1721D01*
G01X266179Y175838D02*
G03X266142Y175723I160J-115D01*
G01Y129606*
G03X266339Y129409I197J0*
G01X266496*
X268268Y127638D02*
G03X266496Y129409I-1772J-0D01*
G01X248268Y114685D02*
G03X248268I-4725J0D01*
G01X241238Y128809D02*
G03X246151Y128624I2305J-4124D01*
G01X241238Y128809D02*
G03X241339Y128981I-96J172D01*
G01Y165945*
Y187140*
G03X241302Y187255I-197J0*
G01X246100D02*
G03X241302I-2399J1721D01*
G01X246100D02*
G03X246063Y187140I160J-115D01*
G01Y168110*
Y165945*
Y128789*
G03X246151Y128624I197J-0*
G01X270720Y275160D02*
G03Y279958I1721J2399D01*
G01Y275160D02*
G03X270605Y275197I-115J-160D01*
G01X263297*
G03X263182Y275160I-0J-197*
G01X263164Y275147D02*
G03X263182Y275160I-1703J2412D01*
G01X263164Y275147D02*
G03X263139Y274847I114J-160D01*
G01X267418Y270568*
X268110Y268898D02*
G03X267418Y270568I-2362J-0D01*
G01X268110Y268898D02*
Y251841D01*
G03X268205Y251673I197J0*
G01Y243602D02*
G03Y251673I-2457J4036D01*
G01Y243602D02*
G03X268110Y243434I102J-168D01*
G01Y209055*
X267418Y207385D02*
G03X268110Y209055I-1670J1670D01*
G01X267418Y207385D02*
X262300Y202267D01*
X260630Y201575D02*
G03X262300Y202267I-0J2362D01*
G01X260630Y201575D02*
X246718D01*
G03X246603Y201538I-0J-197*
G01Y206336D02*
G03Y201538I-1721J-2399D01*
G01Y206336D02*
G03X246718Y206299I115J160D01*
G01X252043*
G03X252186Y206631I0J197*
G01X253851Y211575D02*
G03X252186Y206631I480J-2914D01*
G01X253851Y211575D02*
G03X253959Y211630I-32J194D01*
G01X256242Y213913*
G03X256299Y214052I-140J139*
G01Y239491*
G03X256242Y239630I-197J0*
G01X251696Y244176*
G03X251510Y244228I-139J-139*
G01X246407Y251354D02*
G03X251510Y244228I3987J-2535D01*
G01X246407Y251354D02*
G03X246380Y251598I-166J105D01*
G01X246105Y251873*
X245413Y253543D02*
G03X246105Y251873I2363J0D01*
G01X245413Y253543D02*
Y267062D01*
G03X245376Y267176I-196J-0*
G01X250175D02*
G03X245376I-2399J1722D01*
G01X250175D02*
G03X250138Y267062I160J-114D01*
G01Y254603*
G03X250195Y254464I197J0*
G01X251139Y253521*
G03X251243Y253466I139J139*
G01X254984Y247703D02*
G03X251243Y253466I-4590J1116D01*
G01X254984Y247703D02*
G03X255036Y247517I192J-47D01*
G01X260332Y242222*
X261024Y240551D02*
G03X260332Y242222I-2363J0D01*
G01X261024Y240551D02*
Y212992D01*
X260332Y211322D02*
G03X261024Y212992I-1671J1670D01*
G01X260332Y211322D02*
X257299Y208289D01*
G03X257244Y208182I140J-139*
G01X256475Y206631D02*
G03X257244Y208182I-2144J2030D01*
G01X256475Y206631D02*
G03X256618Y206299I143J-135D01*
G01X259570*
G03X259709Y206357I-0J197*
G01X263328Y209976*
G03X263386Y210115I-139J139*
G01Y243434*
G03X263291Y243602I-197J0*
G01Y251673D02*
G03Y243602I2457J-4035D01*
G01Y251673D02*
G03X263386Y251841I-102J168D01*
G01Y267838*
G03X263328Y267977I-197J-0*
G01X258863Y272442*
G03X258646Y272484I-139J-139*
G01X258324Y278027D02*
G03X258646Y272484I-844J-2830D01*
G01X258324Y278027D02*
G03X258573Y278174I56J188D01*
G01X263182Y279958D02*
G03X258573Y278174I-1721J-2399D01*
G01X263182Y279958D02*
G03X263297Y279921I115J160D01*
G01X270605*
G03X270720Y279958I-0J197*
G01X304331Y169291D02*
G03X304331I-4725J0D01*
G01X331496Y198819D02*
G03X331496I-4724J0D01*
G01Y209055D02*
G03X331496I-4724J0D01*
G01X326758Y224016D02*
G03X326785I14J-4725D01*
G01X326758D02*
G03X326772I-1J197D01*
X326785I14J197*
G01X351693Y199016D02*
G03X351693I-4724J0D01*
G01Y209016D02*
G03X351693I-4724J0D01*
G01Y219016D02*
G03X351693I-4724J0D01*
G01X102165Y372951D02*
X373425D01*
X102165Y372597D02*
X373425D01*
X102165Y372243D02*
X373425D01*
X102165Y371888D02*
X373425D01*
X102165Y371534D02*
X373425D01*
X102165Y371180D02*
X373425D01*
X102165Y370825D02*
X373425D01*
X102165Y370471D02*
X373425D01*
X102165Y370117D02*
X373425D01*
X102165Y369762D02*
X373425D01*
X102165Y369408D02*
X373425D01*
X102165Y369054D02*
X373425D01*
X102165Y368699D02*
X373425D01*
X361494Y368345D02*
X373425D01*
X362779Y367991D02*
X373425D01*
X363621Y367636D02*
X373425D01*
X364278Y367282D02*
X373425D01*
X364824Y366928D02*
X373425D01*
X365294Y366573D02*
X373425D01*
X365704Y366219D02*
X373425D01*
X366068Y365865D02*
X373425D01*
X366392Y365510D02*
X373425D01*
X366683Y365156D02*
X373425D01*
X366944Y364802D02*
X373425D01*
X367178Y364448D02*
X373425D01*
X367389Y364093D02*
X373425D01*
X367578Y363739D02*
X373425D01*
X367747Y363385D02*
X373425D01*
X367896Y363030D02*
X373425D01*
X368027Y362676D02*
X373425D01*
X368142Y362322D02*
X373425D01*
X368239Y361967D02*
X373425D01*
X368321Y361613D02*
X373425D01*
X368387Y361259D02*
X373425D01*
X368439Y360904D02*
X373425D01*
X368475Y360550D02*
X373425D01*
X368497Y360196D02*
X373425D01*
X368504Y359841D02*
X373425D01*
X368497Y359487D02*
X373425D01*
X368475Y359133D02*
X373425D01*
X368438Y358778D02*
X373425D01*
X368387Y358424D02*
X373425D01*
X368321Y358070D02*
X373425D01*
X368239Y357715D02*
X373425D01*
X368141Y357361D02*
X373425D01*
X368027Y357007D02*
X373425D01*
X367895Y356652D02*
X373425D01*
X367745Y356298D02*
X373425D01*
X367577Y355944D02*
X373425D01*
X367388Y355589D02*
X373425D01*
X367177Y355235D02*
X373425D01*
X366942Y354881D02*
X373425D01*
X366680Y354526D02*
X373425D01*
X366390Y354172D02*
X373425D01*
X366065Y353818D02*
X373425D01*
X365701Y353463D02*
X373425D01*
X365290Y353109D02*
X373425D01*
X364821Y352755D02*
X373425D01*
X364273Y352400D02*
X373425D01*
X363615Y352046D02*
X373425D01*
X362772Y351692D02*
X373425D01*
X361480Y351337D02*
X373425D01*
X102165Y350983D02*
X373425D01*
X102165Y350629D02*
X373425D01*
X102165Y350274D02*
X373425D01*
X102165Y349920D02*
X373425D01*
X102165Y349566D02*
X373425D01*
X102165Y349211D02*
X373425D01*
X102165Y348857D02*
X373425D01*
X102165Y348503D02*
X373425D01*
X102165Y348148D02*
X373425D01*
X102165Y347794D02*
X373425D01*
X102165Y347440D02*
X373425D01*
X102165Y347085D02*
X373425D01*
X102165Y346731D02*
X373425D01*
X102165Y346377D02*
X373425D01*
X102165Y346022D02*
X373425D01*
X102165Y345668D02*
X373425D01*
X102165Y345314D02*
X373425D01*
X102165Y344959D02*
X373425D01*
X102165Y344605D02*
X373425D01*
X102165Y344251D02*
X373425D01*
X102165Y343896D02*
X373425D01*
X102165Y343542D02*
X373425D01*
X102165Y343188D02*
X373425D01*
X102165Y342833D02*
X373425D01*
X102165Y342479D02*
X373425D01*
X102165Y342125D02*
X373425D01*
X102165Y341770D02*
X373425D01*
X102165Y341416D02*
X373425D01*
X102165Y341062D02*
X373425D01*
X102165Y340707D02*
X373425D01*
X102165Y340353D02*
X373425D01*
X102165Y339999D02*
X373425D01*
X102165Y339644D02*
X373425D01*
X102165Y339290D02*
X373425D01*
X102165Y338936D02*
X373425D01*
X102165Y338581D02*
X373425D01*
X102165Y338227D02*
X373425D01*
X102165Y337873D02*
X373425D01*
X102165Y337518D02*
X373425D01*
X102165Y337164D02*
X373425D01*
X102165Y336810D02*
X373425D01*
X102165Y336455D02*
X373425D01*
X102165Y336101D02*
X373425D01*
X102165Y335747D02*
X373425D01*
X102165Y335392D02*
X373425D01*
X102165Y335038D02*
X373425D01*
X102165Y334684D02*
X373425D01*
X102165Y334329D02*
X373425D01*
X102165Y333975D02*
X373425D01*
X102165Y333621D02*
X373425D01*
X102165Y333266D02*
X373425D01*
X102165Y332912D02*
X373425D01*
X102165Y332558D02*
X373425D01*
X102165Y332203D02*
X373425D01*
X102165Y331849D02*
X373425D01*
X102165Y331495D02*
X373425D01*
X102165Y331140D02*
X373425D01*
X102165Y330786D02*
X373425D01*
X102165Y330432D02*
X373425D01*
X102165Y330077D02*
X373425D01*
X102165Y329723D02*
X373425D01*
X102165Y329369D02*
X373425D01*
X102165Y329014D02*
X373425D01*
X102165Y328660D02*
X373425D01*
X102165Y328306D02*
X373425D01*
X102165Y327951D02*
X373425D01*
X102165Y327597D02*
X373425D01*
X102165Y327243D02*
X373425D01*
X102165Y326888D02*
X373425D01*
X102165Y326534D02*
X373425D01*
X102165Y326180D02*
X373425D01*
X102165Y325825D02*
X373425D01*
X102165Y325471D02*
X373425D01*
X102165Y325117D02*
X373425D01*
X102165Y324762D02*
X373425D01*
X102165Y324408D02*
X373425D01*
X102165Y324054D02*
X373425D01*
X102165Y323699D02*
X373425D01*
X102165Y323345D02*
X373425D01*
X102165Y322991D02*
X373425D01*
X102165Y322636D02*
X373425D01*
X102165Y322282D02*
X373425D01*
X102165Y321928D02*
X373425D01*
X102165Y321573D02*
X373425D01*
X102165Y321219D02*
X373425D01*
X102165Y320865D02*
X373425D01*
X102165Y320510D02*
X373425D01*
X102165Y320156D02*
X373425D01*
X102165Y319802D02*
X373425D01*
X102165Y319448D02*
X373425D01*
X102165Y319093D02*
X373425D01*
X102165Y318739D02*
X373425D01*
X102165Y318385D02*
X373425D01*
X102165Y318030D02*
X373425D01*
X102165Y317676D02*
X373425D01*
X102165Y317322D02*
X373425D01*
X102165Y316967D02*
X373425D01*
X102165Y316613D02*
X373425D01*
X102165Y316259D02*
X373425D01*
X102165Y315904D02*
X373425D01*
X102165Y315550D02*
X373425D01*
X102165Y315196D02*
X373425D01*
X269560Y314841D02*
X373425D01*
X270566Y314487D02*
X373425D01*
X271176Y314133D02*
X373425D01*
X271630Y313778D02*
X373425D01*
X271991Y313424D02*
X373425D01*
X272284Y313070D02*
X373425D01*
X272526Y312715D02*
X373425D01*
X272724Y312361D02*
X373425D01*
X272884Y312007D02*
X373425D01*
X273011Y311652D02*
X373425D01*
X273108Y311298D02*
X373425D01*
X273175Y310944D02*
X373425D01*
X273215Y310589D02*
X373425D01*
X273228Y310235D02*
X373425D01*
X273215Y309881D02*
X373425D01*
X273175Y309526D02*
X373425D01*
X273107Y309172D02*
X373425D01*
X273010Y308818D02*
X373425D01*
X272883Y308463D02*
X373425D01*
X272722Y308109D02*
X373425D01*
X272524Y307755D02*
X373425D01*
X272283Y307400D02*
X373425D01*
X271989Y307046D02*
X373425D01*
X271627Y306692D02*
X373425D01*
X271172Y306337D02*
X373425D01*
X270561Y305983D02*
X373425D01*
X269548Y305629D02*
X373425D01*
X102165Y305274D02*
X373425D01*
X102165Y304920D02*
X373425D01*
X102165Y304566D02*
X373425D01*
X102165Y304211D02*
X373425D01*
X102165Y303857D02*
X373425D01*
X102165Y303503D02*
X373425D01*
X102165Y303148D02*
X373425D01*
X102165Y302794D02*
X373425D01*
X102165Y302440D02*
X373425D01*
X102165Y302085D02*
X373425D01*
X102165Y301731D02*
X373425D01*
X102165Y301377D02*
X373425D01*
X145191Y301022D02*
X373425D01*
X146118Y300668D02*
X373425D01*
X146705Y300314D02*
X373425D01*
X147147Y299959D02*
X373425D01*
X147499Y299605D02*
X373425D01*
X147786Y299251D02*
X373425D01*
X352093Y298896D02*
X373425D01*
X352820Y298542D02*
X373425D01*
X353332Y298188D02*
X373425D01*
X353730Y297833D02*
X373425D01*
X354051Y297479D02*
X373425D01*
X354314Y297125D02*
X373425D01*
X354530Y296770D02*
X373425D01*
X354707Y296416D02*
X373425D01*
X354848Y296062D02*
X373425D01*
X354958Y295707D02*
X373425D01*
X355038Y295353D02*
X373425D01*
X355090Y294999D02*
X373425D01*
X355116Y294644D02*
X373425D01*
X355114Y294290D02*
X373425D01*
X355086Y293936D02*
X373425D01*
X355030Y293581D02*
X373425D01*
X354947Y293227D02*
X373425D01*
X354833Y292873D02*
X373425D01*
X354688Y292518D02*
X373425D01*
X354507Y292164D02*
X373425D01*
X354285Y291810D02*
X373425D01*
X354016Y291455D02*
X373425D01*
X353687Y291101D02*
X373425D01*
X353278Y290747D02*
X373425D01*
X352748Y290392D02*
X373425D01*
X351980Y290038D02*
X373425D01*
X281283Y289684D02*
X373425D01*
X281299Y289329D02*
X373425D01*
X281273Y288975D02*
X373425D01*
X281203Y288621D02*
X373425D01*
X281085Y288266D02*
X373425D01*
X280914Y287912D02*
X373425D01*
X280710Y287558D02*
X373425D01*
X280709Y287203D02*
X373425D01*
X350821Y286849D02*
X373425D01*
X351748Y286495D02*
X373425D01*
X352335Y286140D02*
X373425D01*
X352777Y285786D02*
X373425D01*
X353129Y285432D02*
X373425D01*
X353416Y285077D02*
X373425D01*
X353652Y284723D02*
X373425D01*
X353846Y284369D02*
X373425D01*
X354002Y284014D02*
X373425D01*
X354126Y283660D02*
X373425D01*
X354219Y283306D02*
X373425D01*
X354283Y282951D02*
X373425D01*
X354320Y282597D02*
X373425D01*
X354331Y282243D02*
X373425D01*
X354314Y281888D02*
X373425D01*
X354271Y281534D02*
X373425D01*
X354200Y281180D02*
X373425D01*
X354100Y280825D02*
X373425D01*
X353969Y280471D02*
X373425D01*
X353805Y280117D02*
X373425D01*
X353602Y279762D02*
X373425D01*
X353355Y279408D02*
X373425D01*
X353054Y279054D02*
X373425D01*
X352684Y278699D02*
X373425D01*
X352216Y278345D02*
X373425D01*
X351579Y277991D02*
X373425D01*
X350458Y277636D02*
X373425D01*
X300019Y277282D02*
X373425D01*
X300784Y276928D02*
X373425D01*
X301313Y276573D02*
X373425D01*
X301721Y276219D02*
X373425D01*
X302050Y275865D02*
X373425D01*
X302319Y275510D02*
X373425D01*
X302540Y275156D02*
X373425D01*
X302721Y274802D02*
X373425D01*
X302866Y274448D02*
X373425D01*
X302979Y274093D02*
X373425D01*
X303062Y273739D02*
X373425D01*
X303118Y273385D02*
X373425D01*
X303146Y273030D02*
X373425D01*
X303147Y272676D02*
X373425D01*
X303122Y272322D02*
X373425D01*
X303069Y271967D02*
X373425D01*
X302989Y271613D02*
X373425D01*
X302879Y271259D02*
X373425D01*
X302737Y270904D02*
X373425D01*
X302560Y270550D02*
X373425D01*
X365767Y270196D02*
X373425D01*
X366532Y269841D02*
X373425D01*
X367061Y269487D02*
X373425D01*
X367469Y269133D02*
X373425D01*
X367798Y268778D02*
X373425D01*
X368067Y268424D02*
X373425D01*
X368288Y268070D02*
X373425D01*
X368469Y267715D02*
X373425D01*
X368614Y267361D02*
X373425D01*
X368727Y267007D02*
X373425D01*
X368810Y266652D02*
X373425D01*
X368866Y266298D02*
X373425D01*
X368894Y265944D02*
X373425D01*
X368895Y265589D02*
X373425D01*
X368870Y265235D02*
X373425D01*
X368817Y264881D02*
X373425D01*
X368737Y264526D02*
X373425D01*
X368627Y264172D02*
X373425D01*
X368485Y263818D02*
X373425D01*
X368308Y263463D02*
X373425D01*
X368092Y263109D02*
X373425D01*
X367828Y262755D02*
X373425D01*
X367507Y262400D02*
X373425D01*
X367108Y262046D02*
X373425D01*
X366595Y261692D02*
X373425D01*
X365866Y261337D02*
X373425D01*
X318227Y260983D02*
X373425D01*
X317469Y260629D02*
X373425D01*
X317115Y260274D02*
X373425D01*
X316761Y259920D02*
X373425D01*
X316406Y259566D02*
X373425D01*
X316052Y259211D02*
X373425D01*
X315698Y258857D02*
X373425D01*
X315343Y258503D02*
X373425D01*
X314989Y258148D02*
X373425D01*
X314635Y257794D02*
X373425D01*
X314280Y257440D02*
X373425D01*
X313926Y257085D02*
X373425D01*
X313572Y256731D02*
X373425D01*
X313217Y256377D02*
X373425D01*
X312863Y256022D02*
X373425D01*
X312509Y255668D02*
X373425D01*
X312154Y255314D02*
X373425D01*
X311800Y254959D02*
X373425D01*
X311446Y254605D02*
X373425D01*
X311091Y254251D02*
X373425D01*
X310737Y253896D02*
X373425D01*
X358323Y253542D02*
X373425D01*
X359186Y253188D02*
X373425D01*
X359752Y252833D02*
X373425D01*
X360182Y252479D02*
X373425D01*
X360526Y252125D02*
X373425D01*
X360807Y251770D02*
X373425D01*
X361038Y251416D02*
X373425D01*
X361227Y251062D02*
X373425D01*
X361380Y250707D02*
X373425D01*
X361500Y250353D02*
X373425D01*
X361590Y249999D02*
X373425D01*
X361651Y249644D02*
X373425D01*
X361685Y249290D02*
X373425D01*
X361692Y248936D02*
X373425D01*
X361673Y248581D02*
X373425D01*
X361627Y248227D02*
X373425D01*
X361553Y247873D02*
X373425D01*
X361449Y247518D02*
X373425D01*
X361315Y247164D02*
X373425D01*
X361146Y246810D02*
X373425D01*
X360939Y246455D02*
X373425D01*
X360687Y246101D02*
X373425D01*
X360379Y245747D02*
X373425D01*
X360000Y245392D02*
X373425D01*
X359518Y245038D02*
X373425D01*
X358854Y244684D02*
X373425D01*
X357567Y244329D02*
X373425D01*
X300816Y243975D02*
X373425D01*
X358024Y243621D02*
X373425D01*
X359031Y243266D02*
X373425D01*
X359640Y242912D02*
X373425D01*
X360095Y242558D02*
X373425D01*
X360455Y242203D02*
X373425D01*
X360749Y241849D02*
X373425D01*
X360990Y241495D02*
X373425D01*
X361188Y241140D02*
X373425D01*
X361349Y240786D02*
X373425D01*
X361476Y240432D02*
X373425D01*
X361572Y240077D02*
X373425D01*
X361640Y239723D02*
X373425D01*
X361680Y239369D02*
X373425D01*
X361693Y239014D02*
X373425D01*
X361680Y238660D02*
X373425D01*
X361639Y238306D02*
X373425D01*
X361571Y237951D02*
X373425D01*
X361475Y237597D02*
X373425D01*
X361348Y237243D02*
X373425D01*
X361187Y236888D02*
X373425D01*
X360989Y236534D02*
X373425D01*
X360747Y236180D02*
X373425D01*
X360453Y235825D02*
X373425D01*
X360092Y235471D02*
X373425D01*
X359637Y235117D02*
X373425D01*
X359025Y234762D02*
X373425D01*
X358013Y234408D02*
X373425D01*
X355347Y234054D02*
X373425D01*
X357587Y233699D02*
X373425D01*
X358860Y233345D02*
X373425D01*
X359522Y232991D02*
X373425D01*
X360003Y232636D02*
X373425D01*
X360382Y232282D02*
X373425D01*
X360689Y231928D02*
X373425D01*
X360941Y231573D02*
X373425D01*
X361148Y231219D02*
X373425D01*
X361316Y230865D02*
X373425D01*
X361450Y230510D02*
X373425D01*
X361553Y230156D02*
X373425D01*
X361627Y229802D02*
X373425D01*
X361673Y229448D02*
X373425D01*
X361692Y229093D02*
X373425D01*
X361685Y228739D02*
X373425D01*
X361651Y228385D02*
X373425D01*
X361589Y228030D02*
X373425D01*
X361499Y227676D02*
X373425D01*
X361379Y227322D02*
X373425D01*
X361226Y226967D02*
X373425D01*
X361036Y226613D02*
X373425D01*
X360805Y226259D02*
X373425D01*
X360524Y225904D02*
X373425D01*
X360179Y225550D02*
X373425D01*
X359748Y225196D02*
X373425D01*
X359181Y224841D02*
X373425D01*
X358314Y224487D02*
X373425D01*
X299173Y224133D02*
X373425D01*
X328251Y223778D02*
X373425D01*
X358668Y223424D02*
X373425D01*
X359395Y223070D02*
X373425D01*
X359907Y222715D02*
X373425D01*
X360305Y222361D02*
X373425D01*
X360626Y222007D02*
X373425D01*
X360889Y221652D02*
X373425D01*
X361105Y221298D02*
X373425D01*
X361282Y220944D02*
X373425D01*
X361423Y220589D02*
X373425D01*
X361533Y220235D02*
X373425D01*
X361613Y219881D02*
X373425D01*
X361665Y219526D02*
X373425D01*
X361690Y219172D02*
X373425D01*
X361689Y218818D02*
X373425D01*
X361661Y218463D02*
X373425D01*
X361605Y218109D02*
X373425D01*
X361521Y217755D02*
X373425D01*
X361408Y217400D02*
X373425D01*
X361263Y217046D02*
X373425D01*
X361082Y216692D02*
X373425D01*
X360860Y216337D02*
X373425D01*
X360591Y215983D02*
X373425D01*
X360262Y215629D02*
X373425D01*
X359853Y215274D02*
X373425D01*
X359323Y214920D02*
X373425D01*
X358555Y214566D02*
X373425D01*
X299173Y214211D02*
X373425D01*
X299173Y213857D02*
X373425D01*
X358448Y213503D02*
X373425D01*
X359258Y213148D02*
X373425D01*
X359805Y212794D02*
X373425D01*
X360224Y212440D02*
X373425D01*
X360560Y212085D02*
X373425D01*
X360835Y211731D02*
X373425D01*
X361061Y211377D02*
X373425D01*
X361246Y211022D02*
X373425D01*
X361395Y210668D02*
X373425D01*
X361511Y210314D02*
X373425D01*
X361598Y209959D02*
X373425D01*
X361656Y209605D02*
X373425D01*
X361687Y209251D02*
X373425D01*
X361691Y208896D02*
X373425D01*
X361669Y208542D02*
X373425D01*
X361620Y208188D02*
X373425D01*
X361543Y207833D02*
X373425D01*
X361436Y207479D02*
X373425D01*
X361298Y207125D02*
X373425D01*
X361125Y206770D02*
X373425D01*
X360913Y206416D02*
X373425D01*
X360655Y206062D02*
X373425D01*
X360341Y205707D02*
X373425D01*
X359953Y205353D02*
X373425D01*
X359455Y204999D02*
X373425D01*
X358760Y204644D02*
X373425D01*
X307002Y204290D02*
X373425D01*
X306680Y203936D02*
X373425D01*
X358183Y203581D02*
X373425D01*
X359110Y203227D02*
X373425D01*
X359697Y202873D02*
X373425D01*
X360139Y202518D02*
X373425D01*
X360491Y202164D02*
X373425D01*
X360778Y201810D02*
X373425D01*
X361014Y201455D02*
X373425D01*
X361208Y201101D02*
X373425D01*
X361364Y200747D02*
X373425D01*
X361488Y200392D02*
X373425D01*
X361581Y200038D02*
X373425D01*
X361645Y199684D02*
X373425D01*
X361683Y199329D02*
X373425D01*
X361693Y198975D02*
X373425D01*
X361676Y198621D02*
X373425D01*
X361633Y198266D02*
X373425D01*
X361562Y197912D02*
X373425D01*
X361462Y197558D02*
X373425D01*
X361331Y197203D02*
X373425D01*
X361167Y196849D02*
X373425D01*
X360964Y196495D02*
X373425D01*
X360717Y196140D02*
X373425D01*
X360417Y195786D02*
X373425D01*
X360047Y195432D02*
X373425D01*
X359578Y195077D02*
X373425D01*
X358942Y194723D02*
X373425D01*
X357820Y194369D02*
X373425D01*
X155774Y194014D02*
X373425D01*
X155814Y193660D02*
X373425D01*
X155827Y193306D02*
X373425D01*
X155813Y192951D02*
X373425D01*
X155773Y192597D02*
X373425D01*
X155705Y192243D02*
X373425D01*
X244189Y191888D02*
X373425D01*
X263868Y191534D02*
X373425D01*
X265184Y191180D02*
X373425D01*
X265700Y190825D02*
X373425D01*
X266049Y190471D02*
X373425D01*
X266302Y190117D02*
X373425D01*
X266486Y189762D02*
X373425D01*
X266615Y189408D02*
X373425D01*
X266694Y189054D02*
X373425D01*
X266730Y188699D02*
X373425D01*
X266723Y188345D02*
X373425D01*
X266672Y187991D02*
X373425D01*
X266577Y187636D02*
X373425D01*
X266430Y187282D02*
X373425D01*
X266225Y186928D02*
X373425D01*
X265943Y186573D02*
X373425D01*
X265549Y186219D02*
X373425D01*
X264934Y185865D02*
X373425D01*
X263952Y185510D02*
X373425D01*
X263573Y185156D02*
X373425D01*
X263194Y184802D02*
X373425D01*
X262815Y184448D02*
X373425D01*
X262435Y184093D02*
X373425D01*
X360504Y183739D02*
X373425D01*
X361511Y183385D02*
X373425D01*
X362121Y183030D02*
X373425D01*
X362575Y182676D02*
X373425D01*
X362936Y182322D02*
X373425D01*
X363229Y181967D02*
X373425D01*
X363471Y181613D02*
X373425D01*
X363669Y181259D02*
X373425D01*
X363829Y180904D02*
X373425D01*
X363956Y180550D02*
X373425D01*
X364052Y180196D02*
X373425D01*
X364120Y179841D02*
X373425D01*
X364160Y179487D02*
X373425D01*
X364173Y179133D02*
X373425D01*
X364160Y178778D02*
X373425D01*
X364120Y178424D02*
X373425D01*
X364052Y178070D02*
X373425D01*
X363955Y177715D02*
X373425D01*
X363828Y177361D02*
X373425D01*
X363667Y177007D02*
X373425D01*
X363469Y176652D02*
X373425D01*
X363227Y176298D02*
X373425D01*
X362933Y175944D02*
X373425D01*
X362572Y175589D02*
X373425D01*
X362117Y175235D02*
X373425D01*
X361505Y174881D02*
X373425D01*
X360493Y174526D02*
X373425D01*
X266142Y174172D02*
X373425D01*
X300960Y173818D02*
X373425D01*
X301823Y173463D02*
X373425D01*
X302390Y173109D02*
X373425D01*
X302820Y172755D02*
X373425D01*
X303164Y172400D02*
X373425D01*
X303445Y172046D02*
X373425D01*
X303676Y171692D02*
X373425D01*
X360898Y171337D02*
X373425D01*
X361905Y170983D02*
X373425D01*
X362514Y170629D02*
X373425D01*
X362969Y170274D02*
X373425D01*
X363330Y169920D02*
X373425D01*
X363623Y169566D02*
X373425D01*
X363864Y169211D02*
X373425D01*
X364062Y168857D02*
X373425D01*
X364223Y168503D02*
X373425D01*
X364350Y168148D02*
X373425D01*
X364446Y167794D02*
X373425D01*
X364514Y167440D02*
X373425D01*
X364554Y167085D02*
X373425D01*
X364567Y166731D02*
X373425D01*
X364554Y166377D02*
X373425D01*
X364513Y166022D02*
X373425D01*
X364446Y165668D02*
X373425D01*
X364349Y165314D02*
X373425D01*
X364222Y164959D02*
X373425D01*
X364061Y164605D02*
X373425D01*
X363863Y164251D02*
X373425D01*
X363621Y163896D02*
X373425D01*
X363327Y163542D02*
X373425D01*
X362966Y163188D02*
X373425D01*
X362511Y162833D02*
X373425D01*
X361899Y162479D02*
X373425D01*
X360887Y162125D02*
X373425D01*
X266142Y161770D02*
X373425D01*
X266142Y161416D02*
X373425D01*
X266142Y161062D02*
X373425D01*
X266142Y160707D02*
X373425D01*
X266142Y160353D02*
X373425D01*
X266142Y159999D02*
X373425D01*
X266142Y159644D02*
X373425D01*
X266142Y159290D02*
X373425D01*
X266142Y158936D02*
X373425D01*
X266142Y158581D02*
X373425D01*
X266142Y158227D02*
X373425D01*
X266142Y157873D02*
X373425D01*
X266142Y157518D02*
X373425D01*
X266142Y157164D02*
X373425D01*
X266142Y156810D02*
X373425D01*
X266142Y156455D02*
X373425D01*
X266142Y156101D02*
X373425D01*
X266142Y155747D02*
X373425D01*
X266142Y155392D02*
X373425D01*
X266142Y155038D02*
X373425D01*
X266142Y154684D02*
X373425D01*
X266142Y154329D02*
X373425D01*
X266142Y153975D02*
X373425D01*
X266142Y153621D02*
X373425D01*
X266142Y153266D02*
X373425D01*
X266142Y152912D02*
X373425D01*
X266142Y152558D02*
X373425D01*
X266142Y152203D02*
X373425D01*
X266142Y151849D02*
X373425D01*
X266142Y151495D02*
X373425D01*
X266142Y151140D02*
X373425D01*
X266142Y150786D02*
X373425D01*
X266142Y150432D02*
X373425D01*
X266142Y150077D02*
X373425D01*
X266142Y149723D02*
X373425D01*
X266142Y149369D02*
X373425D01*
X266142Y149014D02*
X373425D01*
X266142Y148660D02*
X373425D01*
X266142Y148306D02*
X373425D01*
X266142Y147951D02*
X373425D01*
X266142Y147597D02*
X373425D01*
X266142Y147243D02*
X373425D01*
X266142Y146888D02*
X373425D01*
X266142Y146534D02*
X373425D01*
X266142Y146180D02*
X373425D01*
X266142Y145825D02*
X373425D01*
X266142Y145471D02*
X373425D01*
X266142Y145117D02*
X373425D01*
X266142Y144762D02*
X373425D01*
X266142Y144408D02*
X373425D01*
X266142Y144054D02*
X373425D01*
X266142Y143699D02*
X373425D01*
X266142Y143345D02*
X373425D01*
X266142Y142991D02*
X373425D01*
X266142Y142636D02*
X373425D01*
X266142Y142282D02*
X373425D01*
X266142Y141928D02*
X373425D01*
X266142Y141573D02*
X373425D01*
X266142Y141219D02*
X373425D01*
X266142Y140865D02*
X373425D01*
X266142Y140510D02*
X373425D01*
X266142Y140156D02*
X373425D01*
X266142Y139802D02*
X373425D01*
X266142Y139448D02*
X373425D01*
X266142Y139093D02*
X373425D01*
X266142Y138739D02*
X373425D01*
X266142Y138385D02*
X373425D01*
X266142Y138030D02*
X373425D01*
X266142Y137676D02*
X373425D01*
X266142Y137322D02*
X373425D01*
X266142Y136967D02*
X373425D01*
X266142Y136613D02*
X373425D01*
X266142Y136259D02*
X373425D01*
X266142Y135904D02*
X373425D01*
X266142Y135550D02*
X373425D01*
X266142Y135196D02*
X373425D01*
X266142Y134841D02*
X373425D01*
X266142Y134487D02*
X373425D01*
X266142Y134133D02*
X373425D01*
X266142Y133778D02*
X373425D01*
X266142Y133424D02*
X373425D01*
X266142Y133070D02*
X373425D01*
X266142Y132715D02*
X373425D01*
X266142Y132361D02*
X373425D01*
X266142Y132007D02*
X373425D01*
X266142Y131652D02*
X373425D01*
X266142Y131298D02*
X373425D01*
X266142Y130944D02*
X373425D01*
X266142Y130589D02*
X373425D01*
X266142Y130235D02*
X373425D01*
X266142Y129881D02*
X373425D01*
X266159Y129526D02*
X373425D01*
X267382Y129172D02*
X373425D01*
X267818Y128818D02*
X373425D01*
X268064Y128463D02*
X373425D01*
X268204Y128109D02*
X373425D01*
X268264Y127755D02*
X373425D01*
X268268Y127400D02*
X373425D01*
X268268Y127046D02*
X373425D01*
X268268Y126692D02*
X373425D01*
X268268Y126337D02*
X373425D01*
X268268Y125983D02*
X373425D01*
X268268Y125629D02*
X373425D01*
X268268Y125274D02*
X373425D01*
X268268Y124920D02*
X373425D01*
X268268Y124566D02*
X373425D01*
X361685Y124211D02*
X373425D01*
X362887Y123857D02*
X373425D01*
X363701Y123503D02*
X373425D01*
X364343Y123148D02*
X373425D01*
X364880Y122794D02*
X373425D01*
X365342Y122440D02*
X373425D01*
X365747Y122085D02*
X373425D01*
X366106Y121731D02*
X373425D01*
X366426Y121377D02*
X373425D01*
X366713Y121022D02*
X373425D01*
X366971Y120668D02*
X373425D01*
X367203Y120314D02*
X373425D01*
X367411Y119959D02*
X373425D01*
X367598Y119605D02*
X373425D01*
X367764Y119251D02*
X373425D01*
X367912Y118896D02*
X373425D01*
X368041Y118542D02*
X373425D01*
X368153Y118188D02*
X373425D01*
X368249Y117833D02*
X373425D01*
X368329Y117479D02*
X373425D01*
X368394Y117125D02*
X373425D01*
X368443Y116770D02*
X373425D01*
X368478Y116416D02*
X373425D01*
X368498Y116062D02*
X373425D01*
X368504Y115707D02*
X373425D01*
X368495Y115353D02*
X373425D01*
X368471Y114999D02*
X373425D01*
X368433Y114644D02*
X373425D01*
X368380Y114290D02*
X373425D01*
X368312Y113936D02*
X373425D01*
X368229Y113581D02*
X373425D01*
X368129Y113227D02*
X373425D01*
X368013Y112873D02*
X373425D01*
X367879Y112518D02*
X373425D01*
X367728Y112164D02*
X373425D01*
X367557Y111810D02*
X373425D01*
X367365Y111455D02*
X373425D01*
X367152Y111101D02*
X373425D01*
X366914Y110747D02*
X373425D01*
X366650Y110392D02*
X373425D01*
X366355Y110038D02*
X373425D01*
X366027Y109684D02*
X373425D01*
X365658Y109329D02*
X373425D01*
X365241Y108975D02*
X373425D01*
X364764Y108621D02*
X373425D01*
X364207Y108266D02*
X373425D01*
X363533Y107912D02*
X373425D01*
X362660Y107558D02*
X373425D01*
X361260Y107203D02*
X373425D01*
X102165Y106849D02*
X373425D01*
X102165Y106495D02*
X373425D01*
X102165Y106140D02*
X373425D01*
X102165Y105786D02*
X373425D01*
X102165Y105432D02*
X373425D01*
X102165Y105077D02*
X373425D01*
X102165Y104723D02*
X373425D01*
X102165Y104369D02*
X373425D01*
X102165Y104014D02*
X373425D01*
X102165Y103660D02*
X373425D01*
X102165Y103306D02*
X373425D01*
X102165Y102951D02*
X373425D01*
X102165Y102597D02*
X373425D01*
X102181Y373306D02*
X373409D01*
X102206Y102243D02*
X373385D01*
X302344Y270196D02*
X362580D01*
X318939Y261337D02*
X362480D01*
X302080Y269841D02*
X361814D01*
X319367Y261692D02*
X361751D01*
X301759Y269487D02*
X361285D01*
X319670Y262046D02*
X361238D01*
X301360Y269133D02*
X360877D01*
X319890Y262400D02*
X360840D01*
X300847Y268778D02*
X360549D01*
X320049Y262755D02*
X360518D01*
X300118Y268424D02*
X360280D01*
X320155Y263109D02*
X360255D01*
X280709Y268070D02*
X360059D01*
X320215Y263463D02*
X360038D01*
X280709Y267715D02*
X359878D01*
X320232Y263818D02*
X359861D01*
X280709Y267361D02*
X359733D01*
X320206Y264172D02*
X359719D01*
X280709Y267007D02*
X359620D01*
X320136Y264526D02*
X359610D01*
X317963Y266652D02*
X359536D01*
X320019Y264881D02*
X359529D01*
X318821Y266298D02*
X359481D01*
X319849Y265235D02*
X359477D01*
X319288Y265944D02*
X359453D01*
X319613Y265589D02*
X359451D01*
X266142Y162125D02*
X358798D01*
X303865Y171337D02*
X358787D01*
X117166Y107203D02*
X358425D01*
X349863Y174526D02*
X358405D01*
X349875Y183739D02*
X358393D01*
X251475Y351337D02*
X358205D01*
X117399Y368345D02*
X358191D01*
X268268Y124211D02*
X358000D01*
X266142Y162479D02*
X357786D01*
X304018Y170983D02*
X357780D01*
X350876Y174881D02*
X357392D01*
X350881Y183385D02*
X357387D01*
X266142Y162833D02*
X357174D01*
X304138Y170629D02*
X357171D01*
X118566Y107558D02*
X357025D01*
X251992Y351692D02*
X356913D01*
X118685Y367991D02*
X356906D01*
X268268Y123857D02*
X356799D01*
X351487Y175235D02*
X356781D01*
X351491Y183030D02*
X356777D01*
X266142Y163188D02*
X356719D01*
X304227Y170274D02*
X356716D01*
X350287Y244329D02*
X356370D01*
X266142Y163542D02*
X356358D01*
X304289Y169920D02*
X356356D01*
X355000Y233699D02*
X356350D01*
X351942Y175589D02*
X356325D01*
X351945Y182676D02*
X356322D01*
X119438Y107912D02*
X356152D01*
X347820Y194369D02*
X356117D01*
X252270Y352046D02*
X356070D01*
X119526Y367636D02*
X356064D01*
X266142Y163896D02*
X356064D01*
X304323Y169566D02*
X356062D01*
X268268Y123503D02*
X355984D01*
X352303Y175944D02*
X355964D01*
X352306Y182322D02*
X355962D01*
X355714Y234408D02*
X355924D01*
X348024Y243621D02*
X355913D01*
X266142Y164251D02*
X355822D01*
X304330Y169211D02*
X355821D01*
X348183Y203581D02*
X355754D01*
X352597Y176298D02*
X355670D01*
X352599Y181967D02*
X355668D01*
X300205Y164605D02*
X355624D01*
X348314Y224487D02*
X355623D01*
X304311Y168857D02*
X355623D01*
X350735Y253542D02*
X355614D01*
X348448Y213503D02*
X355489D01*
X120112Y108266D02*
X355478D01*
X301491Y164959D02*
X355463D01*
X304264Y168503D02*
X355462D01*
X352839Y176652D02*
X355429D01*
X352841Y181613D02*
X355427D01*
X252431Y352400D02*
X355412D01*
X120183Y367282D02*
X355407D01*
X348555Y214566D02*
X355382D01*
X268268Y123148D02*
X355342D01*
X302155Y165314D02*
X355336D01*
X304190Y168148D02*
X355335D01*
X348668Y223424D02*
X355269D01*
X302638Y165668D02*
X355240D01*
X304087Y167794D02*
X355239D01*
X353037Y177007D02*
X355230D01*
X353039Y181259D02*
X355229D01*
X348760Y204644D02*
X355177D01*
X303017Y166022D02*
X355172D01*
X303953Y167440D02*
X355171D01*
X303324Y166377D02*
X355131D01*
X303784Y167085D02*
X355131D01*
X303577Y166731D02*
X355118D01*
X351033Y244684D02*
X355083D01*
X353198Y177361D02*
X355070D01*
X353199Y180904D02*
X355069D01*
X348942Y194723D02*
X354995D01*
X353325Y177715D02*
X354942D01*
X353326Y180550D02*
X354942D01*
X120670Y108621D02*
X354921D01*
X349031Y243266D02*
X354906D01*
X252509Y352755D02*
X354864D01*
X120730Y366928D02*
X354861D01*
X353422Y178070D02*
X354846D01*
X353422Y180196D02*
X354845D01*
X349110Y203227D02*
X354827D01*
X268268Y122794D02*
X354805D01*
X353490Y178424D02*
X354778D01*
X353490Y179841D02*
X354778D01*
X349181Y224841D02*
X354756D01*
X351207Y253188D02*
X354751D01*
X353530Y178778D02*
X354738D01*
X353530Y179487D02*
X354738D01*
X353543Y179133D02*
X354724D01*
X349258Y213148D02*
X354679D01*
X349323Y214920D02*
X354614D01*
X349395Y223070D02*
X354542D01*
X349455Y204999D02*
X354482D01*
X121147Y108975D02*
X354444D01*
X351366Y245038D02*
X354419D01*
X252520Y353109D02*
X354395D01*
X121199Y366573D02*
X354391D01*
X349578Y195077D02*
X354359D01*
X268268Y122440D02*
X354343D01*
X349640Y242912D02*
X354297D01*
X349697Y202873D02*
X354240D01*
X349748Y225196D02*
X354189D01*
X351468Y252833D02*
X354185D01*
X349805Y212794D02*
X354132D01*
X349853Y215274D02*
X354084D01*
X349907Y222715D02*
X354030D01*
X121564Y109329D02*
X354027D01*
X349953Y205353D02*
X353984D01*
X252520Y353463D02*
X353984D01*
X121610Y366219D02*
X353981D01*
X268268Y122085D02*
X353938D01*
X351561Y245392D02*
X353937D01*
X350047Y195432D02*
X353890D01*
X350095Y242558D02*
X353842D01*
X350139Y202518D02*
X353798D01*
X350179Y225550D02*
X353758D01*
X351618Y252479D02*
X353755D01*
X350224Y212440D02*
X353713D01*
X350262Y215629D02*
X353675D01*
X121932Y109684D02*
X353658D01*
X350305Y222361D02*
X353632D01*
X252520Y353818D02*
X353620D01*
X121973Y365865D02*
X353617D01*
X350341Y205707D02*
X353596D01*
X268268Y121731D02*
X353580D01*
X351664Y245747D02*
X353558D01*
X350417Y195786D02*
X353520D01*
X350455Y242203D02*
X353482D01*
X350491Y202164D02*
X353446D01*
X350524Y225904D02*
X353413D01*
X351686Y252125D02*
X353411D01*
X350560Y212085D02*
X353377D01*
X350591Y215983D02*
X353346D01*
X264395Y110038D02*
X353330D01*
X350626Y222007D02*
X353311D01*
X252520Y354172D02*
X353295D01*
X122297Y365510D02*
X353293D01*
X350655Y206062D02*
X353282D01*
X268232Y121377D02*
X353259D01*
X351693Y246101D02*
X353250D01*
X350717Y196140D02*
X353220D01*
X350749Y241849D02*
X353188D01*
X350778Y201810D02*
X353159D01*
X350805Y226259D02*
X353132D01*
X351693Y251770D02*
X353130D01*
X350835Y211731D02*
X353102D01*
X350860Y216337D02*
X353077D01*
X350889Y221652D02*
X353048D01*
X265516Y110392D02*
X353035D01*
X350913Y206416D02*
X353024D01*
X252520Y354526D02*
X353005D01*
X122588Y365156D02*
X353003D01*
X351693Y246455D02*
X352998D01*
X350964Y196495D02*
X352973D01*
X268119Y121022D02*
X352972D01*
X350990Y241495D02*
X352947D01*
X351014Y201455D02*
X352923D01*
X351036Y226613D02*
X352901D01*
X351693Y251416D02*
X352899D01*
X351061Y211377D02*
X352876D01*
X351082Y216692D02*
X352855D01*
X352411Y231573D02*
X352854D01*
X351105Y221298D02*
X352832D01*
X351125Y206770D02*
X352812D01*
X351693Y246810D02*
X352791D01*
X351148Y231219D02*
X352789D01*
X266153Y110747D02*
X352771D01*
X351167Y196849D02*
X352770D01*
X351188Y241140D02*
X352749D01*
X252520Y354881D02*
X352743D01*
X122849Y364802D02*
X352741D01*
X351208Y201101D02*
X352729D01*
X267912Y120668D02*
X352714D01*
X351226Y226967D02*
X352711D01*
X351693Y251062D02*
X352710D01*
X351246Y211022D02*
X352691D01*
X351263Y217046D02*
X352674D01*
X351282Y220944D02*
X352655D01*
X351298Y207125D02*
X352639D01*
X351693Y247164D02*
X352622D01*
X351316Y230865D02*
X352621D01*
X351331Y197203D02*
X352606D01*
X351349Y240786D02*
X352588D01*
X351364Y200747D02*
X352573D01*
X351379Y227322D02*
X352558D01*
X351693Y250707D02*
X352557D01*
X351395Y210668D02*
X352542D01*
X266621Y111101D02*
X352533D01*
X351408Y217400D02*
X352529D01*
X351423Y220589D02*
X352514D01*
X252520Y355235D02*
X352508D01*
X123084Y364448D02*
X352507D01*
X351436Y207479D02*
X352501D01*
X351693Y247518D02*
X352488D01*
X351450Y230510D02*
X352487D01*
X267557Y120314D02*
X352482D01*
X351462Y197558D02*
X352475D01*
X351476Y240432D02*
X352461D01*
X351488Y200392D02*
X352449D01*
X351499Y227676D02*
X352438D01*
X351693Y250353D02*
X352437D01*
X351511Y210314D02*
X352426D01*
X351521Y217755D02*
X352416D01*
X351533Y220235D02*
X352404D01*
X351543Y207833D02*
X352394D01*
X351693Y247873D02*
X352384D01*
X351553Y230156D02*
X352384D01*
X351562Y197912D02*
X352375D01*
X351571Y237951D02*
X352366D01*
X351572Y240077D02*
X352365D01*
X351581Y200038D02*
X352356D01*
X351589Y228030D02*
X352348D01*
X351693Y249999D02*
X352347D01*
X351598Y209959D02*
X352339D01*
X351605Y218109D02*
X352332D01*
X351613Y219881D02*
X352324D01*
X266991Y111455D02*
X352320D01*
X351620Y208188D02*
X352317D01*
X351693Y248227D02*
X352310D01*
X351627Y229802D02*
X352310D01*
X351633Y198266D02*
X352304D01*
X351639Y238306D02*
X352298D01*
X351640Y239723D02*
X352297D01*
X252520Y355589D02*
X352297D01*
X123295Y364093D02*
X352296D01*
X351645Y199684D02*
X352292D01*
X351651Y228385D02*
X352286D01*
X351693Y249644D02*
X352286D01*
X351656Y209605D02*
X352281D01*
X351661Y218463D02*
X352276D01*
X260767Y119959D02*
X352274D01*
X351665Y219526D02*
X352272D01*
X351669Y208542D02*
X352268D01*
X351693Y248581D02*
X352264D01*
X351673Y229448D02*
X352264D01*
X351676Y198621D02*
X352261D01*
X351680Y238660D02*
X352257D01*
X351680Y239369D02*
X352257D01*
X351683Y199329D02*
X352254D01*
X351685Y228739D02*
X352252D01*
X351693Y249290D02*
X352252D01*
X351687Y209251D02*
X352250D01*
X351689Y218818D02*
X352248D01*
X351690Y219172D02*
X352247D01*
X351691Y208896D02*
X352246D01*
X351693Y248936D02*
X352245D01*
X351692Y229093D02*
X352245D01*
X351693Y198975D02*
X352244D01*
X351693Y239014D02*
X352244D01*
X351475Y237597D02*
X352209D01*
X267292Y111810D02*
X352128D01*
X252520Y355944D02*
X352108D01*
X123484Y363739D02*
X352107D01*
X260555Y119605D02*
X352087D01*
X267539Y112164D02*
X351957D01*
X252520Y356298D02*
X351940D01*
X123652Y363385D02*
X351938D01*
X264758Y119251D02*
X351921D01*
X351354Y237243D02*
X351855D01*
X267742Y112518D02*
X351806D01*
X252520Y356652D02*
X351790D01*
X123802Y363030D02*
X351789D01*
X265685Y118896D02*
X351774D01*
X267906Y112873D02*
X351672D01*
X252520Y357007D02*
X351659D01*
X123933Y362676D02*
X351658D01*
X266272Y118542D02*
X351644D01*
X268037Y113227D02*
X351556D01*
X252520Y357361D02*
X351544D01*
X124047Y362322D02*
X351543D01*
X266714Y118188D02*
X351532D01*
X268137Y113581D02*
X351456D01*
X252520Y357715D02*
X351446D01*
X124145Y361967D02*
X351446D01*
X267066Y117833D02*
X351436D01*
X268208Y113936D02*
X351373D01*
X252520Y358070D02*
X351364D01*
X124227Y361613D02*
X351364D01*
X267353Y117479D02*
X351356D01*
X268251Y114290D02*
X351305D01*
X252520Y358424D02*
X351298D01*
X124293Y361259D02*
X351298D01*
X267589Y117125D02*
X351291D01*
X268268Y114644D02*
X351252D01*
X252520Y358778D02*
X351247D01*
X124344Y360904D02*
X351246D01*
X267783Y116770D02*
X351242D01*
X268257Y114999D02*
X351214D01*
X252498Y359133D02*
X351210D01*
X251275Y360550D02*
X351210D01*
X267939Y116416D02*
X351207D01*
X268220Y115353D02*
X351190D01*
X252404Y359487D02*
X351188D01*
X251910Y360196D02*
X351188D01*
X268063Y116062D02*
X351187D01*
X268156Y115707D02*
X351181D01*
X252222Y359841D02*
X351181D01*
X281223Y290038D02*
X348807D01*
X280709Y277636D02*
X348754D01*
X148022Y298896D02*
X348694D01*
X280709Y286849D02*
X348392D01*
X281117Y290392D02*
X348039D01*
X148216Y298542D02*
X347967D01*
X266142Y174526D02*
X347775D01*
X262056Y183739D02*
X347763D01*
X280709Y277991D02*
X347633D01*
X280959Y290747D02*
X347509D01*
X280709Y286495D02*
X347465D01*
X148372Y298188D02*
X347455D01*
X280739Y291101D02*
X347100D01*
X148496Y297833D02*
X347057D01*
X280709Y278345D02*
X346997D01*
X280709Y286140D02*
X346878D01*
X280437Y291455D02*
X346771D01*
X266142Y174881D02*
X346762D01*
X261677Y183385D02*
X346757D01*
X148589Y297479D02*
X346736D01*
X280709Y278699D02*
X346528D01*
X280010Y291810D02*
X346502D01*
X148653Y297125D02*
X346473D01*
X280709Y285786D02*
X346436D01*
X279302Y292164D02*
X346280D01*
X148690Y296770D02*
X346257D01*
X280709Y279054D02*
X346158D01*
X266142Y175235D02*
X346151D01*
X261298Y183030D02*
X346147D01*
X328358Y194369D02*
X346117D01*
X146586Y292518D02*
X346100D01*
X280709Y285432D02*
X346084D01*
X148701Y296416D02*
X346080D01*
X147055Y292873D02*
X345954D01*
X148684Y296062D02*
X345939D01*
X300461Y243621D02*
X345913D01*
X280709Y279408D02*
X345858D01*
X147425Y293227D02*
X345841D01*
X148641Y295707D02*
X345829D01*
X280709Y285077D02*
X345797D01*
X147725Y293581D02*
X345757D01*
X306282Y203581D02*
X345754D01*
X148570Y295353D02*
X345749D01*
X147972Y293936D02*
X345702D01*
X148470Y294999D02*
X345697D01*
X266142Y175589D02*
X345695D01*
X260919Y182676D02*
X345692D01*
X148175Y294290D02*
X345673D01*
X148339Y294644D02*
X345672D01*
X327624Y224487D02*
X345623D01*
X280709Y279762D02*
X345611D01*
X280709Y284723D02*
X345561D01*
X328365Y213503D02*
X345489D01*
X280709Y280117D02*
X345408D01*
X299173Y214566D02*
X345382D01*
X280709Y284369D02*
X345367D01*
X266251Y175944D02*
X345334D01*
X260540Y182322D02*
X345332D01*
X329061Y223424D02*
X345269D01*
X280709Y280471D02*
X345243D01*
X280709Y284014D02*
X345210D01*
X328464Y204644D02*
X345177D01*
X280709Y280825D02*
X345112D01*
X280709Y283660D02*
X345087D01*
X266449Y176298D02*
X345040D01*
X260161Y181967D02*
X345038D01*
X280709Y281180D02*
X345013D01*
X329126Y194723D02*
X344995D01*
X280709Y283306D02*
X344994D01*
X280709Y281534D02*
X344942D01*
X280709Y282951D02*
X344929D01*
X300107Y243266D02*
X344906D01*
X280709Y281888D02*
X344898D01*
X280709Y282597D02*
X344892D01*
X280709Y282243D02*
X344882D01*
X328471Y203227D02*
X344827D01*
X266590Y176652D02*
X344799D01*
X259782Y181613D02*
X344797D01*
X328745Y224841D02*
X344756D01*
X329131Y213148D02*
X344679D01*
X328564Y214920D02*
X344614D01*
X266680Y177007D02*
X344601D01*
X259403Y181259D02*
X344599D01*
X329608Y223070D02*
X344542D01*
X329194Y204999D02*
X344482D01*
X266726Y177361D02*
X344440D01*
X259023Y180904D02*
X344439D01*
X329656Y195077D02*
X344359D01*
X266728Y177715D02*
X344312D01*
X258644Y180550D02*
X344312D01*
X299753Y242912D02*
X344297D01*
X329198Y202873D02*
X344240D01*
X266688Y178070D02*
X344216D01*
X265109Y180196D02*
X344215D01*
X329381Y225196D02*
X344189D01*
X266603Y178424D02*
X344148D01*
X265653Y179841D02*
X344148D01*
X329660Y212794D02*
X344132D01*
X266469Y178778D02*
X344108D01*
X266016Y179487D02*
X344108D01*
X266278Y179133D02*
X344094D01*
X329258Y215274D02*
X344084D01*
X330027Y222715D02*
X344030D01*
X329707Y205353D02*
X343984D01*
X330065Y195432D02*
X343890D01*
X299398Y242558D02*
X343842D01*
X329710Y202518D02*
X343798D01*
X329850Y225550D02*
X343758D01*
X330068Y212440D02*
X343713D01*
X329756Y215629D02*
X343675D01*
X301170Y244329D02*
X343650D01*
X330363Y222361D02*
X343632D01*
X330105Y205707D02*
X343596D01*
X330394Y195786D02*
X343520D01*
X299044Y242203D02*
X343482D01*
X330108Y202164D02*
X343446D01*
X330220Y225904D02*
X343413D01*
X330396Y212085D02*
X343377D01*
X330144Y215983D02*
X343346D01*
X330638Y222007D02*
X343311D01*
X330427Y206062D02*
X343282D01*
X330663Y196140D02*
X343220D01*
X310383Y253542D02*
X343202D01*
X298690Y241849D02*
X343188D01*
X330429Y201810D02*
X343159D01*
X330520Y226259D02*
X343132D01*
X330665Y211731D02*
X343102D01*
X330459Y216337D02*
X343077D01*
X330864Y221652D02*
X343048D01*
X330690Y206416D02*
X343024D01*
X330885Y196495D02*
X342973D01*
X293658Y236534D02*
X342948D01*
X298335Y241495D02*
X342947D01*
X330692Y201455D02*
X342923D01*
X301524Y244684D02*
X342904D01*
X330767Y226613D02*
X342901D01*
X330886Y211377D02*
X342876D01*
X330716Y216692D02*
X342855D01*
X331049Y221298D02*
X342832D01*
X330907Y206770D02*
X342812D01*
X331011Y231219D02*
X342789D01*
X331066Y196849D02*
X342770D01*
X293729Y236888D02*
X342750D01*
X297981Y241140D02*
X342749D01*
X310028Y253188D02*
X342730D01*
X330908Y201101D02*
X342729D01*
X330970Y226967D02*
X342711D01*
X331067Y211022D02*
X342691D01*
X330928Y217046D02*
X342674D01*
X331198Y220944D02*
X342655D01*
X331084Y207125D02*
X342639D01*
X331168Y230865D02*
X342621D01*
X331211Y197203D02*
X342606D01*
X294083Y237243D02*
X342589D01*
X297627Y240786D02*
X342588D01*
X331085Y200747D02*
X342573D01*
X301879Y245038D02*
X342571D01*
X331135Y227322D02*
X342558D01*
X331212Y210668D02*
X342542D01*
X331101Y217400D02*
X342529D01*
X331314Y220589D02*
X342514D01*
X331225Y207479D02*
X342501D01*
X331291Y230510D02*
X342487D01*
X331325Y197558D02*
X342475D01*
X309674Y252833D02*
X342469D01*
X294438Y237597D02*
X342462D01*
X297272Y240432D02*
X342461D01*
X331226Y200392D02*
X342449D01*
X331265Y227676D02*
X342438D01*
X331325Y210314D02*
X342426D01*
X331239Y217755D02*
X342416D01*
X331401Y220235D02*
X342404D01*
X331335Y207833D02*
X342394D01*
X331384Y230156D02*
X342384D01*
X302233Y245392D02*
X342376D01*
X331408Y197912D02*
X342375D01*
X294792Y237951D02*
X342366D01*
X296918Y240077D02*
X342365D01*
X331336Y200038D02*
X342356D01*
X331365Y228030D02*
X342348D01*
X331409Y209959D02*
X342339D01*
X331346Y218109D02*
X342332D01*
X331459Y219881D02*
X342324D01*
X309320Y252479D02*
X342319D01*
X331416Y208188D02*
X342317D01*
X331449Y229802D02*
X342310D01*
X331464Y198266D02*
X342304D01*
X295146Y238306D02*
X342298D01*
X296564Y239723D02*
X342297D01*
X331416Y199684D02*
X342292D01*
X331436Y228385D02*
X342286D01*
X331464Y209605D02*
X342281D01*
X331423Y218463D02*
X342276D01*
X302587Y245747D02*
X342273D01*
X331490Y219526D02*
X342272D01*
X331468Y208542D02*
X342268D01*
X331486Y229448D02*
X342264D01*
X331492Y198621D02*
X342261D01*
X295501Y238660D02*
X342257D01*
X296209Y239369D02*
X342257D01*
X331468Y199329D02*
X342254D01*
X331480Y228739D02*
X342252D01*
X308965Y252125D02*
X342251D01*
X331492Y209251D02*
X342250D01*
X331472Y218818D02*
X342248D01*
X331495Y219172D02*
X342247D01*
X331493Y208896D02*
X342246D01*
X331496Y229093D02*
X342245D01*
X331494Y198975D02*
X342244D01*
X308611Y251770D02*
X342244D01*
X308257Y251416D02*
X342244D01*
X307902Y251062D02*
X342244D01*
X307548Y250707D02*
X342244D01*
X307194Y250353D02*
X342244D01*
X306839Y249999D02*
X342244D01*
X306485Y249644D02*
X342244D01*
X306131Y249290D02*
X342244D01*
X305776Y248936D02*
X342244D01*
X305422Y248581D02*
X342244D01*
X305068Y248227D02*
X342244D01*
X304713Y247873D02*
X342244D01*
X304359Y247518D02*
X342244D01*
X304005Y247164D02*
X342244D01*
X303650Y246810D02*
X342244D01*
X303296Y246455D02*
X342244D01*
X302942Y246101D02*
X342244D01*
X295855Y239014D02*
X342244D01*
X299173Y224487D02*
X325920D01*
X299173Y223778D02*
X325292D01*
X155706Y194369D02*
X325185D01*
X299173Y213503D02*
X325178D01*
X307265Y204644D02*
X325079D01*
X305768Y203227D02*
X325072D01*
X299173Y214920D02*
X324980D01*
X299173Y224841D02*
X324798D01*
X299173Y223424D02*
X324482D01*
X155610Y194723D02*
X324417D01*
X299173Y213148D02*
X324412D01*
X307482Y204999D02*
X324350D01*
X305039Y202873D02*
X324345D01*
X299173Y215274D02*
X324285D01*
X299173Y225196D02*
X324162D01*
X299173Y223070D02*
X323935D01*
X155483Y195077D02*
X323887D01*
X299173Y212794D02*
X323884D01*
X307658Y205353D02*
X323837D01*
X281843Y202518D02*
X323833D01*
X299173Y215629D02*
X323788D01*
X299173Y225550D02*
X323693D01*
X299173Y222715D02*
X323516D01*
X155322Y195432D02*
X323478D01*
X299173Y212440D02*
X323475D01*
X307800Y205707D02*
X323438D01*
X281489Y202164D02*
X323435D01*
X299173Y215983D02*
X323399D01*
X299173Y225904D02*
X323324D01*
X299173Y222361D02*
X323180D01*
X155124Y195786D02*
X323149D01*
X299173Y212085D02*
X323147D01*
X307910Y206062D02*
X323117D01*
X281247Y201810D02*
X323114D01*
X299173Y216337D02*
X323085D01*
X299173Y226259D02*
X323023D01*
X299173Y222007D02*
X322905D01*
X154883Y196140D02*
X322880D01*
X304940Y211731D02*
X322878D01*
X307991Y206416D02*
X322853D01*
X281157Y201455D02*
X322851D01*
X299173Y216692D02*
X322827D01*
X299173Y226613D02*
X322776D01*
X299173Y221652D02*
X322679D01*
X154589Y196495D02*
X322658D01*
X305706Y211377D02*
X322657D01*
X308043Y206770D02*
X322636D01*
X281016Y201101D02*
X322635D01*
X299173Y217046D02*
X322615D01*
X299173Y226967D02*
X322573D01*
X303024Y231219D02*
X322532D01*
X299173Y221298D02*
X322495D01*
X154229Y196849D02*
X322477D01*
X306235Y211022D02*
X322476D01*
X308068Y207125D02*
X322460D01*
X280818Y200747D02*
X322458D01*
X299173Y217400D02*
X322442D01*
X299176Y227322D02*
X322409D01*
X302670Y230865D02*
X322376D01*
X299173Y220944D02*
X322346D01*
X153774Y197203D02*
X322332D01*
X306643Y210668D02*
X322331D01*
X308067Y207479D02*
X322318D01*
X280546Y200392D02*
X322317D01*
X299173Y217755D02*
X322304D01*
X299481Y227676D02*
X322278D01*
X302316Y230510D02*
X322252D01*
X299173Y220589D02*
X322229D01*
X153164Y197558D02*
X322219D01*
X306971Y210314D02*
X322218D01*
X308039Y207833D02*
X322208D01*
X280168Y200038D02*
X322207D01*
X299173Y218109D02*
X322198D01*
X299835Y228030D02*
X322178D01*
X301961Y230156D02*
X322159D01*
X299173Y220235D02*
X322142D01*
X152158Y197912D02*
X322135D01*
X307240Y209959D02*
X322135D01*
X307984Y208188D02*
X322128D01*
X279589Y199684D02*
X322127D01*
X299173Y218463D02*
X322120D01*
X300190Y228385D02*
X322107D01*
X301607Y229802D02*
X322095D01*
X299173Y219881D02*
X322084D01*
X102165Y198266D02*
X322080D01*
X307461Y209605D02*
X322079D01*
X307900Y208542D02*
X322075D01*
X102165Y199329D02*
X322075D01*
X299173Y218818D02*
X322071D01*
X300544Y228739D02*
X322064D01*
X301253Y229448D02*
X322058D01*
X299173Y219526D02*
X322053D01*
X102165Y198621D02*
X322051D01*
X307642Y209251D02*
X322051D01*
X307787Y208896D02*
X322050D01*
X102165Y198975D02*
X322050D01*
X299173Y219172D02*
X322049D01*
X300898Y229093D02*
X322047D01*
X280709Y266652D02*
X316597D01*
X280709Y266298D02*
X315738D01*
X280709Y265944D02*
X315271D01*
X280709Y265589D02*
X314946D01*
X280709Y265235D02*
X314710D01*
X280709Y264881D02*
X314540D01*
X280709Y264526D02*
X314423D01*
X280709Y264172D02*
X314329D01*
X280709Y263818D02*
X313977D01*
X280709Y263463D02*
X313623D01*
X280709Y263109D02*
X313268D01*
X280709Y262755D02*
X312914D01*
X280709Y262400D02*
X312560D01*
X280709Y262046D02*
X312205D01*
X280709Y261692D02*
X311851D01*
X280709Y261337D02*
X311497D01*
X280709Y260983D02*
X311142D01*
X280709Y260629D02*
X310788D01*
X280709Y260274D02*
X310434D01*
X280709Y259920D02*
X310079D01*
X280709Y259566D02*
X309725D01*
X280709Y259211D02*
X309371D01*
X280709Y258857D02*
X309016D01*
X280709Y258503D02*
X308662D01*
X280709Y258148D02*
X308308D01*
X280709Y257794D02*
X307953D01*
X280709Y257440D02*
X307599D01*
X280709Y257085D02*
X307245D01*
X280709Y256731D02*
X306890D01*
X280709Y256377D02*
X306536D01*
X280709Y256022D02*
X306182D01*
X280709Y255668D02*
X305827D01*
X280709Y255314D02*
X305473D01*
X280709Y254959D02*
X305119D01*
X280709Y254605D02*
X304764D01*
X280709Y254251D02*
X304410D01*
X280709Y253896D02*
X304056D01*
X280709Y253542D02*
X303701D01*
X280709Y253188D02*
X303347D01*
X280709Y252833D02*
X302993D01*
X280709Y252479D02*
X302638D01*
X280709Y252125D02*
X302284D01*
X280709Y251770D02*
X301930D01*
X293658Y236180D02*
X301886D01*
X299173Y211731D02*
X301753D01*
X282174Y202873D02*
X301654D01*
X280709Y251416D02*
X301575D01*
X280709Y251062D02*
X301221D01*
X293658Y235825D02*
X301015D01*
X299173Y211377D02*
X300987D01*
X282404Y203227D02*
X300925D01*
X280709Y250707D02*
X300867D01*
X293658Y235471D02*
X300595D01*
X280709Y250353D02*
X300512D01*
X299173Y211022D02*
X300458D01*
X282555Y203581D02*
X300411D01*
X293658Y235117D02*
X300241D01*
X280709Y249999D02*
X300158D01*
X299173Y210668D02*
X300050D01*
X282644Y203936D02*
X300013D01*
X293658Y234762D02*
X299886D01*
X280709Y249644D02*
X299804D01*
X299173Y210314D02*
X299722D01*
X282677Y204290D02*
X299691D01*
X293658Y234408D02*
X299532D01*
X280709Y249290D02*
X299449D01*
X292161Y204644D02*
X299428D01*
X292939Y204999D02*
X299211D01*
X293658Y234054D02*
X299178D01*
X280709Y248936D02*
X299095D01*
X295082Y205353D02*
X299034D01*
X266142Y164605D02*
X299008D01*
X295616Y205707D02*
X298893D01*
X293658Y233699D02*
X298823D01*
X295977Y206062D02*
X298783D01*
X280709Y248581D02*
X298741D01*
X298103Y208188D02*
X298709D01*
X296332Y206416D02*
X298702D01*
X297749Y207833D02*
X298654D01*
X296686Y206770D02*
X298650D01*
X297394Y207479D02*
X298626D01*
X297040Y207125D02*
X298625D01*
X298510Y208542D02*
X298574D01*
X293658Y233345D02*
X298469D01*
X280709Y248227D02*
X298386D01*
X266142Y173818D02*
X298252D01*
X293658Y232991D02*
X298115D01*
X280709Y247873D02*
X298032D01*
X293658Y232636D02*
X297760D01*
X266142Y164959D02*
X297721D01*
X280709Y247518D02*
X297678D01*
X293658Y232282D02*
X297406D01*
X266142Y173463D02*
X297389D01*
X280709Y247164D02*
X297323D01*
X266142Y165314D02*
X297057D01*
X293658Y231928D02*
X297052D01*
X280709Y246810D02*
X296969D01*
X280709Y277282D02*
X296831D01*
X266142Y173109D02*
X296823D01*
X280709Y268424D02*
X296732D01*
X293658Y231573D02*
X296697D01*
X280709Y246455D02*
X296615D01*
X266142Y165668D02*
X296575D01*
X266142Y172755D02*
X296393D01*
X293658Y231219D02*
X296343D01*
X280709Y246101D02*
X296260D01*
X266142Y166022D02*
X296195D01*
X280709Y276928D02*
X296066D01*
X266142Y172400D02*
X296049D01*
X280709Y268778D02*
X296003D01*
X293658Y230865D02*
X295989D01*
X280709Y245747D02*
X295906D01*
X266142Y166377D02*
X295888D01*
X266142Y172046D02*
X295768D01*
X266142Y166731D02*
X295636D01*
X293658Y230510D02*
X295634D01*
X280709Y245392D02*
X295552D01*
X280709Y276573D02*
X295537D01*
X266142Y171692D02*
X295537D01*
X280709Y269133D02*
X295490D01*
X266142Y167085D02*
X295429D01*
X266142Y171337D02*
X295348D01*
X293658Y230156D02*
X295280D01*
X266142Y167440D02*
X295260D01*
X280747Y245038D02*
X295197D01*
X266142Y170983D02*
X295195D01*
X280709Y276219D02*
X295129D01*
X266142Y167794D02*
X295125D01*
X280709Y269487D02*
X295092D01*
X266142Y170629D02*
X295075D01*
X266142Y168148D02*
X295022D01*
X266142Y170274D02*
X294985D01*
X293658Y229802D02*
X294950D01*
X266142Y168503D02*
X294948D01*
X266142Y169920D02*
X294924D01*
X266142Y168857D02*
X294902D01*
X266142Y169566D02*
X294890D01*
X266142Y169211D02*
X294883D01*
X281098Y244684D02*
X294843D01*
X280709Y275865D02*
X294801D01*
X280709Y269841D02*
X294770D01*
X293658Y229448D02*
X294721D01*
X293658Y229093D02*
X294570D01*
X280709Y275510D02*
X294532D01*
X280709Y270196D02*
X294507D01*
X281452Y244329D02*
X294489D01*
X293658Y228739D02*
X294482D01*
X293658Y228385D02*
X294449D01*
X293658Y228030D02*
X294449D01*
X293658Y227676D02*
X294449D01*
X293658Y227322D02*
X294449D01*
X293658Y226967D02*
X294449D01*
X293658Y226613D02*
X294449D01*
X293658Y226259D02*
X294449D01*
X293658Y225904D02*
X294449D01*
X293658Y225550D02*
X294449D01*
X293658Y225196D02*
X294449D01*
X293658Y224841D02*
X294449D01*
X293658Y224487D02*
X294449D01*
X293658Y224133D02*
X294449D01*
X293658Y223778D02*
X294449D01*
X293658Y223424D02*
X294449D01*
X293658Y223070D02*
X294449D01*
X293658Y222715D02*
X294449D01*
X293658Y222361D02*
X294449D01*
X293658Y222007D02*
X294449D01*
X293658Y221652D02*
X294449D01*
X293658Y221298D02*
X294449D01*
X293658Y220944D02*
X294449D01*
X293658Y220589D02*
X294449D01*
X293658Y220235D02*
X294449D01*
X293658Y219881D02*
X294449D01*
X293658Y219526D02*
X294449D01*
X293658Y219172D02*
X294449D01*
X293658Y218818D02*
X294449D01*
X293658Y218463D02*
X294449D01*
X293658Y218109D02*
X294449D01*
X293658Y217755D02*
X294449D01*
X293658Y217400D02*
X294449D01*
X293658Y217046D02*
X294449D01*
X293658Y216692D02*
X294449D01*
X293658Y216337D02*
X294449D01*
X293658Y215983D02*
X294449D01*
X293658Y215629D02*
X294449D01*
X293658Y215274D02*
X294449D01*
X293658Y214920D02*
X294449D01*
X293658Y214566D02*
X294449D01*
X293658Y214211D02*
X294449D01*
X293636Y213857D02*
X294449D01*
X293560Y213503D02*
X294449D01*
X293424Y213148D02*
X294449D01*
X293213Y212794D02*
X294449D01*
X292902Y212440D02*
X294449D01*
X292548Y212085D02*
X294449D01*
X292194Y211731D02*
X294449D01*
X291839Y211377D02*
X294449D01*
X280709Y275156D02*
X294310D01*
X280709Y270550D02*
X294290D01*
X291485Y211022D02*
X294256D01*
X281807Y243975D02*
X294134D01*
X280709Y274802D02*
X294130D01*
X280709Y270904D02*
X294113D01*
X280709Y274448D02*
X293985D01*
X280709Y271259D02*
X293971D01*
X291178Y210668D02*
X293902D01*
X280709Y274093D02*
X293871D01*
X280709Y271613D02*
X293861D01*
X280709Y273739D02*
X293788D01*
X280709Y271967D02*
X293781D01*
X282144Y243621D02*
X293780D01*
X280709Y273385D02*
X293733D01*
X280709Y272322D02*
X293729D01*
X280709Y273030D02*
X293705D01*
X280709Y272676D02*
X293703D01*
X292170Y210314D02*
X293548D01*
X282384Y243266D02*
X293426D01*
X292943Y209959D02*
X293192D01*
X282543Y242912D02*
X293071D01*
X282637Y242558D02*
X292717D01*
X282676Y242203D02*
X292363D01*
X282677Y241849D02*
X292008D01*
X282677Y241495D02*
X291654D01*
X282677Y241140D02*
X291300D01*
X282677Y240786D02*
X290945D01*
X282677Y240432D02*
X290591D01*
X282677Y204644D02*
X290516D01*
X282677Y240077D02*
X290237D01*
X282677Y239723D02*
X289882D01*
X282677Y204999D02*
X289738D01*
X282677Y239369D02*
X289533D01*
X282677Y205353D02*
X289291D01*
X282677Y239014D02*
X289272D01*
X282677Y238660D02*
X289097D01*
X282677Y238306D02*
X288989D01*
X282677Y205707D02*
X288977D01*
X282677Y237951D02*
X288938D01*
X282677Y237597D02*
X288933D01*
X282677Y237243D02*
X288933D01*
X282677Y236888D02*
X288933D01*
X282677Y236534D02*
X288933D01*
X282677Y236180D02*
X288933D01*
X282677Y235825D02*
X288933D01*
X282677Y235471D02*
X288933D01*
X282677Y235117D02*
X288933D01*
X282677Y234762D02*
X288933D01*
X282677Y234408D02*
X288933D01*
X282677Y234054D02*
X288933D01*
X282677Y233699D02*
X288933D01*
X282677Y233345D02*
X288933D01*
X282677Y232991D02*
X288933D01*
X282677Y232636D02*
X288933D01*
X282677Y232282D02*
X288933D01*
X282677Y231928D02*
X288933D01*
X282677Y231573D02*
X288933D01*
X282677Y231219D02*
X288933D01*
X282677Y230865D02*
X288933D01*
X282677Y230510D02*
X288933D01*
X282677Y230156D02*
X288933D01*
X282677Y229802D02*
X288933D01*
X282677Y229448D02*
X288933D01*
X282677Y229093D02*
X288933D01*
X282677Y228739D02*
X288933D01*
X282677Y228385D02*
X288933D01*
X282677Y228030D02*
X288933D01*
X282677Y227676D02*
X288933D01*
X282677Y227322D02*
X288933D01*
X282677Y226967D02*
X288933D01*
X282677Y226613D02*
X288933D01*
X282677Y226259D02*
X288933D01*
X282677Y225904D02*
X288933D01*
X282677Y225550D02*
X288933D01*
X282677Y225196D02*
X288933D01*
X282677Y224841D02*
X288933D01*
X282677Y224487D02*
X288933D01*
X282677Y224133D02*
X288933D01*
X282677Y223778D02*
X288933D01*
X282677Y223424D02*
X288933D01*
X282677Y223070D02*
X288933D01*
X282677Y222715D02*
X288933D01*
X282677Y222361D02*
X288933D01*
X282677Y222007D02*
X288933D01*
X282677Y221652D02*
X288933D01*
X282677Y221298D02*
X288933D01*
X282677Y220944D02*
X288933D01*
X282677Y220589D02*
X288933D01*
X282677Y220235D02*
X288933D01*
X282677Y219881D02*
X288933D01*
X282677Y219526D02*
X288933D01*
X282677Y219172D02*
X288933D01*
X282677Y218818D02*
X288933D01*
X282677Y218463D02*
X288933D01*
X282677Y218109D02*
X288933D01*
X282677Y217755D02*
X288933D01*
X282677Y217400D02*
X288933D01*
X282677Y217046D02*
X288933D01*
X282677Y216692D02*
X288933D01*
X282677Y216337D02*
X288933D01*
X282677Y215983D02*
X288933D01*
X282677Y215629D02*
X288933D01*
X282677Y215274D02*
X288933D01*
X282677Y206062D02*
X288749D01*
X282677Y214920D02*
X288701D01*
X282677Y206416D02*
X288584D01*
X282677Y206770D02*
X288472D01*
X282677Y207125D02*
X288407D01*
X282677Y207479D02*
X288386D01*
X282677Y214566D02*
X288347D01*
X282677Y214211D02*
X287993D01*
X282677Y213857D02*
X287638D01*
X282677Y213503D02*
X287069D01*
X282677Y207833D02*
X286804D01*
X282677Y213148D02*
X286210D01*
X282677Y208188D02*
X286092D01*
X282677Y212794D02*
X285743D01*
X282677Y208542D02*
X285664D01*
X282677Y212440D02*
X285419D01*
X282677Y208896D02*
X285362D01*
X282677Y212085D02*
X285183D01*
X282677Y209251D02*
X285141D01*
X282677Y211731D02*
X285012D01*
X282677Y209605D02*
X284983D01*
X282677Y211377D02*
X284895D01*
X282677Y209959D02*
X284876D01*
X282677Y211022D02*
X284825D01*
X282677Y210314D02*
X284816D01*
X282677Y210668D02*
X284799D01*
X268110Y240786D02*
X277953D01*
X268110Y240432D02*
X277953D01*
X268110Y240077D02*
X277953D01*
X268110Y239723D02*
X277953D01*
X268110Y239369D02*
X277953D01*
X268110Y239014D02*
X277953D01*
X268110Y238660D02*
X277953D01*
X268110Y238306D02*
X277953D01*
X268110Y237951D02*
X277953D01*
X268110Y237597D02*
X277953D01*
X268110Y237243D02*
X277953D01*
X268110Y236888D02*
X277953D01*
X268110Y236534D02*
X277953D01*
X268110Y236180D02*
X277953D01*
X268110Y235825D02*
X277953D01*
X268110Y235471D02*
X277953D01*
X268110Y235117D02*
X277953D01*
X268110Y234762D02*
X277953D01*
X268110Y234408D02*
X277953D01*
X268110Y234054D02*
X277953D01*
X268110Y233699D02*
X277953D01*
X268110Y233345D02*
X277953D01*
X268110Y232991D02*
X277953D01*
X268110Y232636D02*
X277953D01*
X268110Y232282D02*
X277953D01*
X268110Y231928D02*
X277953D01*
X276447Y231573D02*
X277953D01*
X277443Y231219D02*
X277953D01*
X277011Y223424D02*
X277953D01*
X268110Y223070D02*
X277953D01*
X268110Y222715D02*
X277953D01*
X268110Y222361D02*
X277953D01*
X268110Y222007D02*
X277953D01*
X268110Y221652D02*
X277953D01*
X275503Y221298D02*
X277953D01*
X276211Y220944D02*
X277953D01*
X276695Y220589D02*
X277953D01*
X277063Y220235D02*
X277953D01*
X277353Y219881D02*
X277953D01*
X277292Y214920D02*
X277953D01*
X276986Y214566D02*
X277953D01*
X276596Y214211D02*
X277953D01*
X276076Y213857D02*
X277953D01*
X275272Y213503D02*
X277953D01*
X268110Y213148D02*
X277953D01*
X268110Y212794D02*
X277953D01*
X268110Y212440D02*
X277953D01*
X268110Y212085D02*
X277953D01*
X268110Y211731D02*
X277953D01*
X268110Y211377D02*
X277953D01*
X268110Y211022D02*
X277953D01*
X268110Y210668D02*
X277953D01*
X268110Y210314D02*
X277953D01*
X268110Y209959D02*
X277953D01*
X268110Y209605D02*
X277953D01*
X268110Y209251D02*
X277953D01*
X268105Y208896D02*
X277953D01*
X268054Y208542D02*
X277953D01*
X267945Y208188D02*
X277953D01*
X267770Y207833D02*
X277953D01*
X267508Y207479D02*
X277953D01*
X267158Y207125D02*
X277953D01*
X266804Y206770D02*
X277953D01*
X266450Y206416D02*
X277953D01*
X266095Y206062D02*
X277953D01*
X265741Y205707D02*
X277953D01*
X277536Y215274D02*
X277952D01*
X268110Y241140D02*
X277938D01*
X277585Y219526D02*
X277927D01*
X265387Y205353D02*
X277924D01*
X277581Y223778D02*
X277922D01*
X268110Y241495D02*
X277606D01*
X145950Y292164D02*
X277391D01*
X268110Y241849D02*
X277251D01*
X102165Y199684D02*
X277104D01*
X265032Y204999D02*
X277017D01*
X268110Y242203D02*
X276897D01*
X144828Y291810D02*
X276683D01*
X268110Y242558D02*
X276552D01*
X102165Y200038D02*
X276525D01*
X264678Y204644D02*
X276473D01*
X268110Y242912D02*
X276301D01*
X102165Y291455D02*
X276256D01*
X102165Y200392D02*
X276147D01*
X268110Y243266D02*
X276134D01*
X264324Y204290D02*
X276110D01*
X268235Y243621D02*
X276032D01*
X268732Y243975D02*
X275987D01*
X102165Y287203D02*
X275984D01*
X102165Y286849D02*
X275984D01*
X102165Y286495D02*
X275984D01*
X102165Y286140D02*
X275984D01*
X102165Y285786D02*
X275984D01*
X102165Y285432D02*
X275984D01*
X102165Y285077D02*
X275984D01*
X102165Y284723D02*
X275984D01*
X102165Y284369D02*
X275984D01*
X102165Y284014D02*
X275984D01*
X102165Y283660D02*
X275984D01*
X102165Y283306D02*
X275984D01*
X102165Y282951D02*
X275984D01*
X102165Y282597D02*
X275984D01*
X102165Y282243D02*
X275984D01*
X102165Y281888D02*
X275984D01*
X102165Y281534D02*
X275984D01*
X102165Y281180D02*
X275984D01*
X102165Y280825D02*
X275984D01*
X272930Y280471D02*
X275984D01*
X273916Y280117D02*
X275984D01*
X274407Y279762D02*
X275984D01*
X274743Y279408D02*
X275984D01*
X274987Y279054D02*
X275984D01*
X275165Y278699D02*
X275984D01*
X275287Y278345D02*
X275984D01*
X275362Y277991D02*
X275984D01*
X275393Y277636D02*
X275984D01*
X275381Y277282D02*
X275984D01*
X275325Y276928D02*
X275984D01*
X275224Y276573D02*
X275984D01*
X275072Y276219D02*
X275984D01*
X274859Y275865D02*
X275984D01*
X274568Y275510D02*
X275984D01*
X274157Y275156D02*
X275984D01*
X273498Y274802D02*
X275984D01*
X263539Y274448D02*
X275984D01*
X263893Y274093D02*
X275984D01*
X264248Y273739D02*
X275984D01*
X264602Y273385D02*
X275984D01*
X264956Y273030D02*
X275984D01*
X265311Y272676D02*
X275984D01*
X265665Y272322D02*
X275984D01*
X266019Y271967D02*
X275984D01*
X266374Y271613D02*
X275984D01*
X266728Y271259D02*
X275984D01*
X267082Y270904D02*
X275984D01*
X267436Y270550D02*
X275984D01*
X267722Y270196D02*
X275984D01*
X267914Y269841D02*
X275984D01*
X268036Y269487D02*
X275984D01*
X268099Y269133D02*
X275984D01*
X268110Y268778D02*
X275984D01*
X268110Y268424D02*
X275984D01*
X268110Y268070D02*
X275984D01*
X268110Y267715D02*
X275984D01*
X268110Y267361D02*
X275984D01*
X268110Y267007D02*
X275984D01*
X268110Y266652D02*
X275984D01*
X268110Y266298D02*
X275984D01*
X268110Y265944D02*
X275984D01*
X268110Y265589D02*
X275984D01*
X268110Y265235D02*
X275984D01*
X268110Y264881D02*
X275984D01*
X268110Y264526D02*
X275984D01*
X268110Y264172D02*
X275984D01*
X268110Y263818D02*
X275984D01*
X268110Y263463D02*
X275984D01*
X268110Y263109D02*
X275984D01*
X268110Y262755D02*
X275984D01*
X268110Y262400D02*
X275984D01*
X268110Y262046D02*
X275984D01*
X268110Y261692D02*
X275984D01*
X268110Y261337D02*
X275984D01*
X268110Y260983D02*
X275984D01*
X268110Y260629D02*
X275984D01*
X268110Y260274D02*
X275984D01*
X268110Y259920D02*
X275984D01*
X268110Y259566D02*
X275984D01*
X268110Y259211D02*
X275984D01*
X268110Y258857D02*
X275984D01*
X268110Y258503D02*
X275984D01*
X268110Y258148D02*
X275984D01*
X268110Y257794D02*
X275984D01*
X268110Y257440D02*
X275984D01*
X268110Y257085D02*
X275984D01*
X268110Y256731D02*
X275984D01*
X268110Y256377D02*
X275984D01*
X268110Y256022D02*
X275984D01*
X268110Y255668D02*
X275984D01*
X268110Y255314D02*
X275984D01*
X268110Y254959D02*
X275984D01*
X268110Y254605D02*
X275984D01*
X268110Y254251D02*
X275984D01*
X268110Y253896D02*
X275984D01*
X268110Y253542D02*
X275984D01*
X268110Y253188D02*
X275984D01*
X268110Y252833D02*
X275984D01*
X268110Y252479D02*
X275984D01*
X268110Y252125D02*
X275984D01*
X268124Y251770D02*
X275984D01*
X268584Y251416D02*
X275984D01*
X269003Y251062D02*
X275984D01*
X269339Y250707D02*
X275984D01*
X269614Y250353D02*
X275984D01*
X269840Y249999D02*
X275984D01*
X270025Y249644D02*
X275984D01*
X270174Y249290D02*
X275984D01*
X270291Y248936D02*
X275984D01*
X270377Y248581D02*
X275984D01*
X270436Y248227D02*
X275984D01*
X270467Y247873D02*
X275984D01*
X270471Y247518D02*
X275984D01*
X270449Y247164D02*
X275984D01*
X270399Y246810D02*
X275984D01*
X270322Y246455D02*
X275984D01*
X270216Y246101D02*
X275984D01*
X270077Y245747D02*
X275984D01*
X269905Y245392D02*
X275984D01*
X269693Y245038D02*
X275984D01*
X269435Y244684D02*
X275984D01*
X269121Y244329D02*
X275984D01*
X102165Y287558D02*
X275983D01*
X102165Y291101D02*
X275954D01*
X102165Y200747D02*
X275875D01*
X263969Y203936D02*
X275848D01*
X102165Y287912D02*
X275779D01*
X102165Y290747D02*
X275734D01*
X245704Y201101D02*
X275677D01*
X263615Y203581D02*
X275657D01*
X102165Y288266D02*
X275608D01*
X102165Y290392D02*
X275576D01*
X246482Y201455D02*
X275536D01*
X263261Y203227D02*
X275523D01*
X102165Y288621D02*
X275490D01*
X102165Y290038D02*
X275470D01*
X261657Y201810D02*
X275446D01*
X262906Y202873D02*
X275438D01*
X102165Y288975D02*
X275420D01*
X102165Y289684D02*
X275410D01*
X262191Y202164D02*
X275400D01*
X262552Y202518D02*
X275398D01*
X102165Y289329D02*
X275394D01*
X268110Y213503D02*
X272759D01*
X268110Y221298D02*
X272528D01*
X268110Y213857D02*
X271956D01*
X261949Y280471D02*
X271952D01*
X268110Y220944D02*
X271820D01*
X268110Y231573D02*
X271585D01*
X268110Y214211D02*
X271435D01*
X263185Y274802D02*
X271384D01*
X268110Y220589D02*
X271337D01*
X268110Y214566D02*
X271046D01*
X268110Y223424D02*
X271021D01*
X268110Y220235D02*
X270969D01*
X262936Y280117D02*
X270966D01*
X268110Y214920D02*
X270740D01*
X263177Y275156D02*
X270725D01*
X268110Y219881D02*
X270679D01*
X268110Y231219D02*
X270589D01*
X268110Y215274D02*
X270495D01*
X268110Y223778D02*
X270450D01*
X268110Y219526D02*
X270446D01*
X268110Y215629D02*
X270300D01*
X268110Y219172D02*
X270262D01*
X268110Y230865D02*
X270235D01*
X268110Y224133D02*
X270156D01*
X268110Y215983D02*
X270148D01*
X268110Y218818D02*
X270118D01*
X268110Y216337D02*
X270032D01*
X268110Y230510D02*
X270029D01*
X268110Y218463D02*
X270010D01*
X268110Y224487D02*
X269984D01*
X268110Y216692D02*
X269950D01*
X268110Y218109D02*
X269936D01*
X268110Y230156D02*
X269917D01*
X268110Y217046D02*
X269901D01*
X268110Y224841D02*
X269898D01*
X268110Y217755D02*
X269894D01*
X268110Y217400D02*
X269882D01*
X268110Y229802D02*
X269882D01*
X268110Y229448D02*
X269882D01*
X268110Y229093D02*
X269882D01*
X268110Y228739D02*
X269882D01*
X268110Y228385D02*
X269882D01*
X268110Y228030D02*
X269882D01*
X268110Y227676D02*
X269882D01*
X268110Y227322D02*
X269882D01*
X268110Y226967D02*
X269882D01*
X268110Y226613D02*
X269882D01*
X268110Y226259D02*
X269882D01*
X268110Y225904D02*
X269882D01*
X268110Y225550D02*
X269882D01*
X268110Y225196D02*
X269882D01*
X102165Y305629D02*
X267460D01*
X102165Y314841D02*
X267448D01*
X102165Y305983D02*
X266447D01*
X102165Y314487D02*
X266442D01*
X102165Y306337D02*
X265836D01*
X102165Y314133D02*
X265832D01*
X102165Y306692D02*
X265380D01*
X102165Y313778D02*
X265378D01*
X102165Y307046D02*
X265019D01*
X102165Y313424D02*
X265017D01*
X102165Y307400D02*
X264725D01*
X102165Y313070D02*
X264723D01*
X102165Y307755D02*
X264484D01*
X102165Y312715D02*
X264482D01*
X102165Y308109D02*
X264286D01*
X102165Y312361D02*
X264284D01*
X102165Y308463D02*
X264125D01*
X102165Y312007D02*
X264124D01*
X102165Y308818D02*
X263998D01*
X102165Y311652D02*
X263997D01*
X102165Y309172D02*
X263901D01*
X102165Y311298D02*
X263900D01*
X102165Y309526D02*
X263833D01*
X102165Y310944D02*
X263833D01*
X102165Y309881D02*
X263793D01*
X102165Y310589D02*
X263793D01*
X102165Y310235D02*
X263780D01*
X245176Y191534D02*
X263691D01*
X250481Y267715D02*
X263386D01*
X250297Y267361D02*
X263386D01*
X250138Y267007D02*
X263386D01*
X250138Y266652D02*
X263386D01*
X250138Y266298D02*
X263386D01*
X250138Y265944D02*
X263386D01*
X250138Y265589D02*
X263386D01*
X250138Y265235D02*
X263386D01*
X250138Y264881D02*
X263386D01*
X250138Y264526D02*
X263386D01*
X250138Y264172D02*
X263386D01*
X250138Y263818D02*
X263386D01*
X250138Y263463D02*
X263386D01*
X250138Y263109D02*
X263386D01*
X250138Y262755D02*
X263386D01*
X250138Y262400D02*
X263386D01*
X250138Y262046D02*
X263386D01*
X250138Y261692D02*
X263386D01*
X250138Y261337D02*
X263386D01*
X250138Y260983D02*
X263386D01*
X250138Y260629D02*
X263386D01*
X250138Y260274D02*
X263386D01*
X250138Y259920D02*
X263386D01*
X250138Y259566D02*
X263386D01*
X250138Y259211D02*
X263386D01*
X250138Y258857D02*
X263386D01*
X250138Y258503D02*
X263386D01*
X250138Y258148D02*
X263386D01*
X250138Y257794D02*
X263386D01*
X250138Y257440D02*
X263386D01*
X250138Y257085D02*
X263386D01*
X250138Y256731D02*
X263386D01*
X250138Y256377D02*
X263386D01*
X250138Y256022D02*
X263386D01*
X250138Y255668D02*
X263386D01*
X250138Y255314D02*
X263386D01*
X250138Y254959D02*
X263386D01*
X250138Y254605D02*
X263386D01*
X250409Y254251D02*
X263386D01*
X250763Y253896D02*
X263386D01*
X251118Y253542D02*
X263386D01*
X252192Y253188D02*
X263386D01*
X252885Y252833D02*
X263386D01*
X253381Y252479D02*
X263386D01*
X253769Y252125D02*
X263386D01*
X259287Y243266D02*
X263386D01*
X259641Y242912D02*
X263386D01*
X259996Y242558D02*
X263386D01*
X260350Y242203D02*
X263386D01*
X260635Y241849D02*
X263386D01*
X260827Y241495D02*
X263386D01*
X260949Y241140D02*
X263386D01*
X261012Y240786D02*
X263386D01*
X261024Y240432D02*
X263386D01*
X261024Y240077D02*
X263386D01*
X261024Y239723D02*
X263386D01*
X261024Y239369D02*
X263386D01*
X261024Y239014D02*
X263386D01*
X261024Y238660D02*
X263386D01*
X261024Y238306D02*
X263386D01*
X261024Y237951D02*
X263386D01*
X261024Y237597D02*
X263386D01*
X261024Y237243D02*
X263386D01*
X261024Y236888D02*
X263386D01*
X261024Y236534D02*
X263386D01*
X261024Y236180D02*
X263386D01*
X261024Y235825D02*
X263386D01*
X261024Y235471D02*
X263386D01*
X261024Y235117D02*
X263386D01*
X261024Y234762D02*
X263386D01*
X261024Y234408D02*
X263386D01*
X261024Y234054D02*
X263386D01*
X261024Y233699D02*
X263386D01*
X261024Y233345D02*
X263386D01*
X261024Y232991D02*
X263386D01*
X261024Y232636D02*
X263386D01*
X261024Y232282D02*
X263386D01*
X261024Y231928D02*
X263386D01*
X261024Y231573D02*
X263386D01*
X261024Y231219D02*
X263386D01*
X261024Y230865D02*
X263386D01*
X261024Y230510D02*
X263386D01*
X261024Y230156D02*
X263386D01*
X261024Y229802D02*
X263386D01*
X261024Y229448D02*
X263386D01*
X261024Y229093D02*
X263386D01*
X261024Y228739D02*
X263386D01*
X261024Y228385D02*
X263386D01*
X261024Y228030D02*
X263386D01*
X261024Y227676D02*
X263386D01*
X261024Y227322D02*
X263386D01*
X261024Y226967D02*
X263386D01*
X261024Y226613D02*
X263386D01*
X261024Y226259D02*
X263386D01*
X261024Y225904D02*
X263386D01*
X261024Y225550D02*
X263386D01*
X261024Y225196D02*
X263386D01*
X261024Y224841D02*
X263386D01*
X261024Y224487D02*
X263386D01*
X261024Y224133D02*
X263386D01*
X261024Y223778D02*
X263386D01*
X261024Y223424D02*
X263386D01*
X261024Y223070D02*
X263386D01*
X261024Y222715D02*
X263386D01*
X261024Y222361D02*
X263386D01*
X261024Y222007D02*
X263386D01*
X261024Y221652D02*
X263386D01*
X261024Y221298D02*
X263386D01*
X261024Y220944D02*
X263386D01*
X261024Y220589D02*
X263386D01*
X261024Y220235D02*
X263386D01*
X261024Y219881D02*
X263386D01*
X261024Y219526D02*
X263386D01*
X261024Y219172D02*
X263386D01*
X261024Y218818D02*
X263386D01*
X261024Y218463D02*
X263386D01*
X261024Y218109D02*
X263386D01*
X261024Y217755D02*
X263386D01*
X261024Y217400D02*
X263386D01*
X261024Y217046D02*
X263386D01*
X261024Y216692D02*
X263386D01*
X261024Y216337D02*
X263386D01*
X261024Y215983D02*
X263386D01*
X261024Y215629D02*
X263386D01*
X261024Y215274D02*
X263386D01*
X261024Y214920D02*
X263386D01*
X261024Y214566D02*
X263386D01*
X261024Y214211D02*
X263386D01*
X261024Y213857D02*
X263386D01*
X261024Y213503D02*
X263386D01*
X261024Y213148D02*
X263386D01*
X261015Y212794D02*
X263386D01*
X260958Y212440D02*
X263386D01*
X260843Y212085D02*
X263386D01*
X260659Y211731D02*
X263386D01*
X260385Y211377D02*
X263386D01*
X260032Y211022D02*
X263386D01*
X259678Y210668D02*
X263386D01*
X259324Y210314D02*
X263386D01*
X254083Y251770D02*
X263373D01*
X258969Y209959D02*
X263312D01*
X258933Y243621D02*
X263261D01*
X250610Y268070D02*
X263235D01*
X258615Y209605D02*
X262957D01*
X254340Y251416D02*
X262912D01*
X250690Y268424D02*
X262881D01*
X258578Y243975D02*
X262764D01*
X254395Y110038D02*
X262691D01*
X258261Y209251D02*
X262603D01*
X250726Y268778D02*
X262527D01*
X254552Y251062D02*
X262493D01*
X258265Y180196D02*
X262450D01*
X258224Y244329D02*
X262375D01*
X245666Y191180D02*
X262375D01*
X260432Y119251D02*
X262329D01*
X257906Y208896D02*
X262249D01*
X250719Y269133D02*
X262172D01*
X254724Y250707D02*
X262157D01*
X257870Y244684D02*
X262061D01*
X257886Y179841D02*
X261906D01*
X257552Y208542D02*
X261894D01*
X254862Y250353D02*
X261882D01*
X246003Y190825D02*
X261859D01*
X250669Y269487D02*
X261818D01*
X257515Y245038D02*
X261803D01*
X254968Y249999D02*
X261656D01*
X257161Y245392D02*
X261591D01*
X255516Y110392D02*
X261570D01*
X257507Y179487D02*
X261543D01*
X257245Y208188D02*
X261540D01*
X246247Y190471D02*
X261510D01*
X255045Y249644D02*
X261471D01*
X250574Y269841D02*
X261464D01*
X256807Y245747D02*
X261419D01*
X260240Y118896D02*
X261402D01*
X255095Y249290D02*
X261322D01*
X257128Y179133D02*
X261281D01*
X256452Y246101D02*
X261281D01*
X246424Y190117D02*
X261257D01*
X255117Y248936D02*
X261205D01*
X257165Y207833D02*
X261186D01*
X256098Y246455D02*
X261174D01*
X255112Y248581D02*
X261119D01*
X250428Y270196D02*
X261109D01*
X255744Y246810D02*
X261097D01*
X256749Y178778D02*
X261090D01*
X246547Y189762D02*
X261073D01*
X255081Y248227D02*
X261060D01*
X255389Y247164D02*
X261047D01*
X255022Y247873D02*
X261029D01*
X255035Y247518D02*
X261025D01*
X102165Y280471D02*
X260972D01*
X259099Y178424D02*
X260956D01*
X246622Y189408D02*
X260944D01*
X256153Y110747D02*
X260934D01*
X259872Y178070D02*
X260871D01*
X257036Y207479D02*
X260831D01*
X260318Y177715D02*
X260831D01*
X246653Y189054D02*
X260824D01*
X259961Y118542D02*
X260815D01*
X250223Y270550D02*
X260755D01*
X256852Y207125D02*
X260477D01*
X256621Y111101D02*
X260465D01*
X246641Y188699D02*
X260445D01*
X249942Y270904D02*
X260401D01*
X259657Y118188D02*
X260373D01*
X256598Y206770D02*
X260123D01*
X256991Y111455D02*
X260095D01*
X246585Y188345D02*
X260066D01*
X249549Y271259D02*
X260046D01*
X259353Y117833D02*
X260021D01*
X102165Y280117D02*
X259985D01*
X257292Y111810D02*
X259795D01*
X256438Y206416D02*
X259768D01*
X259049Y117479D02*
X259734D01*
X248936Y271613D02*
X259692D01*
X246484Y187991D02*
X259687D01*
X257539Y112164D02*
X259548D01*
X258746Y117125D02*
X259498D01*
X102165Y279762D02*
X259495D01*
X257742Y112518D02*
X259345D01*
X102165Y271967D02*
X259338D01*
X246332Y187636D02*
X259308D01*
X258442Y116770D02*
X259304D01*
X257906Y112873D02*
X259180D01*
X102165Y279408D02*
X259159D01*
X258138Y116416D02*
X259147D01*
X258037Y113227D02*
X259049D01*
X258063Y116062D02*
X259024D01*
X258152Y272322D02*
X258983D01*
X258137Y113581D02*
X258950D01*
X258156Y115707D02*
X258931D01*
X246119Y187282D02*
X258928D01*
X102165Y279054D02*
X258914D01*
X258208Y113936D02*
X258879D01*
X258220Y115353D02*
X258866D01*
X258251Y114290D02*
X258835D01*
X258257Y114999D02*
X258829D01*
X258268Y114644D02*
X258819D01*
X102165Y278699D02*
X258737D01*
X102165Y278345D02*
X258614D01*
X246063Y186928D02*
X258549D01*
X246063Y186573D02*
X258170D01*
X246063Y186219D02*
X257791D01*
X256370Y178424D02*
X257436D01*
X246063Y185865D02*
X257412D01*
X246063Y185510D02*
X257033D01*
X102165Y272322D02*
X256808D01*
X255990Y178070D02*
X256664D01*
X246063Y185156D02*
X256654D01*
X102165Y277991D02*
X256525D01*
X102165Y239369D02*
X256299D01*
X102165Y239014D02*
X256299D01*
X102165Y238660D02*
X256299D01*
X102165Y238306D02*
X256299D01*
X102165Y237951D02*
X256299D01*
X102165Y237597D02*
X256299D01*
X102165Y237243D02*
X256299D01*
X102165Y236888D02*
X256299D01*
X102165Y236534D02*
X256299D01*
X102165Y236180D02*
X256299D01*
X102165Y235825D02*
X256299D01*
X102165Y235471D02*
X256299D01*
X238214Y235117D02*
X256299D01*
X239040Y234762D02*
X256299D01*
X239588Y234408D02*
X256299D01*
X240006Y234054D02*
X256299D01*
X240340Y233699D02*
X256299D01*
X240612Y233345D02*
X256299D01*
X240835Y232991D02*
X256299D01*
X241016Y232636D02*
X256299D01*
X241161Y232282D02*
X256299D01*
X241273Y231928D02*
X256299D01*
X241355Y231573D02*
X256299D01*
X241409Y231219D02*
X256299D01*
X241434Y230865D02*
X256299D01*
X241433Y230510D02*
X256299D01*
X241404Y230156D02*
X256299D01*
X241347Y229802D02*
X256299D01*
X241262Y229448D02*
X256299D01*
X241146Y229093D02*
X256299D01*
X240997Y228739D02*
X256299D01*
X240811Y228385D02*
X256299D01*
X240583Y228030D02*
X256299D01*
X240304Y227676D02*
X256299D01*
X239962Y227322D02*
X256299D01*
X239532Y226967D02*
X256299D01*
X238961Y226613D02*
X256299D01*
X238074Y226259D02*
X256299D01*
X102165Y225904D02*
X256299D01*
X225920Y225550D02*
X256299D01*
X226533Y225196D02*
X256299D01*
X226926Y224841D02*
X256299D01*
X227207Y224487D02*
X256299D01*
X227412Y224133D02*
X256299D01*
X227558Y223778D02*
X256299D01*
X227653Y223424D02*
X256299D01*
X227703Y223070D02*
X256299D01*
X227710Y222715D02*
X256299D01*
X227674Y222361D02*
X256299D01*
X227594Y222007D02*
X256299D01*
X227466Y221652D02*
X256299D01*
X227281Y221298D02*
X256299D01*
X227028Y220944D02*
X256299D01*
X226677Y220589D02*
X256299D01*
X226160Y220235D02*
X256299D01*
X102165Y219881D02*
X256299D01*
X102165Y219526D02*
X256299D01*
X102165Y219172D02*
X256299D01*
X102165Y218818D02*
X256299D01*
X102165Y218463D02*
X256299D01*
X102165Y218109D02*
X256299D01*
X102165Y217755D02*
X256299D01*
X102165Y217400D02*
X256299D01*
X102165Y217046D02*
X256299D01*
X102165Y216692D02*
X256299D01*
X102165Y216337D02*
X256299D01*
X102165Y215983D02*
X256299D01*
X102165Y215629D02*
X256299D01*
X102165Y215274D02*
X256299D01*
X102165Y214920D02*
X256299D01*
X102165Y214566D02*
X256299D01*
X102165Y214211D02*
X256299D01*
X246063Y184802D02*
X256275D01*
X255991Y177715D02*
X256213D01*
X102165Y213857D02*
X256186D01*
X102165Y239723D02*
X256149D01*
X102165Y272676D02*
X255943D01*
X246063Y184448D02*
X255896D01*
X102165Y213503D02*
X255831D01*
X102165Y277636D02*
X255817D01*
X102165Y240077D02*
X255794D01*
X246063Y184093D02*
X255516D01*
X102165Y213148D02*
X255477D01*
X102165Y273030D02*
X255474D01*
X102165Y240432D02*
X255440D01*
X102165Y277282D02*
X255390D01*
X102165Y273385D02*
X255149D01*
X246063Y183739D02*
X255137D01*
X102165Y212794D02*
X255123D01*
X102165Y276928D02*
X255088D01*
X102165Y240786D02*
X255086D01*
X102165Y273739D02*
X254913D01*
X102165Y276573D02*
X254868D01*
X160339Y119959D02*
X254813D01*
X102165Y212440D02*
X254768D01*
X246063Y183385D02*
X254758D01*
X102165Y274093D02*
X254742D01*
X102165Y241140D02*
X254731D01*
X102165Y276219D02*
X254710D01*
X160512Y119605D02*
X254649D01*
X102165Y274448D02*
X254624D01*
X102165Y275865D02*
X254604D01*
X102165Y274802D02*
X254554D01*
X102165Y275510D02*
X254544D01*
X102165Y275156D02*
X254528D01*
X102165Y212085D02*
X254414D01*
X246063Y183030D02*
X254379D01*
X102165Y241495D02*
X254377D01*
X102165Y211731D02*
X254060D01*
X102165Y241849D02*
X254023D01*
X246063Y182676D02*
X254000D01*
X102165Y242203D02*
X253668D01*
X246063Y182322D02*
X253621D01*
X102165Y242558D02*
X253314D01*
X246063Y181967D02*
X253242D01*
X102165Y211377D02*
X253170D01*
X102165Y242912D02*
X252960D01*
X246063Y181613D02*
X252863D01*
X244395Y110038D02*
X252691D01*
X102165Y243266D02*
X252606D01*
X102165Y211022D02*
X252557D01*
X246063Y181259D02*
X252483D01*
X244758Y119251D02*
X252329D01*
X102165Y243621D02*
X252251D01*
X246486Y206416D02*
X252223D01*
X102165Y210668D02*
X252164D01*
X246063Y180904D02*
X252104D01*
X245713Y206770D02*
X252063D01*
X102165Y243975D02*
X251897D01*
X102165Y210314D02*
X251883D01*
X102165Y207125D02*
X251809D01*
X245335Y120314D02*
X251751D01*
X246063Y180550D02*
X251747D01*
X102165Y209959D02*
X251678D01*
X102165Y207479D02*
X251625D01*
X245516Y110392D02*
X251570D01*
X102165Y209605D02*
X251533D01*
X246063Y180196D02*
X251497D01*
X102165Y207833D02*
X251496D01*
X102165Y209251D02*
X251437D01*
X102165Y208188D02*
X251416D01*
X245685Y118896D02*
X251402D01*
X102165Y208896D02*
X251387D01*
X102165Y208542D02*
X251380D01*
X246063Y179841D02*
X251330D01*
X246063Y179487D02*
X251229D01*
X246063Y179133D02*
X251184D01*
X246063Y178778D02*
X251181D01*
X246063Y178424D02*
X251181D01*
X246063Y178070D02*
X251181D01*
X246063Y177715D02*
X251181D01*
X246063Y177361D02*
X251181D01*
X246063Y177007D02*
X251181D01*
X246063Y176652D02*
X251181D01*
X246063Y176298D02*
X251181D01*
X246063Y175944D02*
X251181D01*
X246063Y175589D02*
X251181D01*
X246063Y175235D02*
X251181D01*
X246063Y174881D02*
X251181D01*
X246063Y174526D02*
X251181D01*
X246063Y174172D02*
X251181D01*
X246063Y173818D02*
X251181D01*
X246063Y173463D02*
X251181D01*
X246063Y173109D02*
X251181D01*
X246063Y172755D02*
X251181D01*
X246063Y172400D02*
X251181D01*
X246063Y172046D02*
X251181D01*
X246063Y171692D02*
X251181D01*
X246063Y171337D02*
X251181D01*
X246063Y170983D02*
X251181D01*
X246063Y170629D02*
X251181D01*
X246063Y170274D02*
X251181D01*
X246063Y169920D02*
X251181D01*
X246063Y169566D02*
X251181D01*
X246063Y169211D02*
X251181D01*
X246063Y168857D02*
X251181D01*
X246063Y168503D02*
X251181D01*
X246063Y168148D02*
X251181D01*
X246063Y167794D02*
X251181D01*
X246063Y167440D02*
X251181D01*
X246063Y167085D02*
X251181D01*
X246063Y166731D02*
X251181D01*
X246063Y166377D02*
X251181D01*
X246063Y166022D02*
X251181D01*
X246063Y165668D02*
X251181D01*
X246063Y165314D02*
X251181D01*
X246063Y164959D02*
X251181D01*
X246063Y164605D02*
X251181D01*
X246063Y164251D02*
X251181D01*
X246063Y163896D02*
X251181D01*
X246063Y163542D02*
X251181D01*
X246063Y163188D02*
X251181D01*
X246063Y162833D02*
X251181D01*
X246063Y162479D02*
X251181D01*
X246063Y162125D02*
X251181D01*
X246063Y161770D02*
X251181D01*
X246063Y161416D02*
X251181D01*
X246063Y161062D02*
X251181D01*
X246063Y160707D02*
X251181D01*
X246063Y160353D02*
X251181D01*
X246063Y159999D02*
X251181D01*
X246063Y159644D02*
X251181D01*
X246063Y159290D02*
X251181D01*
X246063Y158936D02*
X251181D01*
X246063Y158581D02*
X251181D01*
X246063Y158227D02*
X251181D01*
X246063Y157873D02*
X251181D01*
X246063Y157518D02*
X251181D01*
X246063Y157164D02*
X251181D01*
X246063Y156810D02*
X251181D01*
X246063Y156455D02*
X251181D01*
X246063Y156101D02*
X251181D01*
X246063Y155747D02*
X251181D01*
X246063Y155392D02*
X251181D01*
X246063Y155038D02*
X251181D01*
X246063Y154684D02*
X251181D01*
X246063Y154329D02*
X251181D01*
X246063Y153975D02*
X251181D01*
X246063Y153621D02*
X251181D01*
X246063Y153266D02*
X251181D01*
X246063Y152912D02*
X251181D01*
X246063Y152558D02*
X251181D01*
X246063Y152203D02*
X251181D01*
X246063Y151849D02*
X251181D01*
X246063Y151495D02*
X251181D01*
X246063Y151140D02*
X251181D01*
X246063Y150786D02*
X251181D01*
X246063Y150432D02*
X251181D01*
X246063Y150077D02*
X251181D01*
X246063Y149723D02*
X251181D01*
X246063Y149369D02*
X251181D01*
X246063Y149014D02*
X251181D01*
X246063Y148660D02*
X251181D01*
X246063Y148306D02*
X251181D01*
X246063Y147951D02*
X251181D01*
X246063Y147597D02*
X251181D01*
X246063Y147243D02*
X251181D01*
X246063Y146888D02*
X251181D01*
X246063Y146534D02*
X251181D01*
X246063Y146180D02*
X251181D01*
X246063Y145825D02*
X251181D01*
X246063Y145471D02*
X251181D01*
X246063Y145117D02*
X251181D01*
X246063Y144762D02*
X251181D01*
X246063Y144408D02*
X251181D01*
X246063Y144054D02*
X251181D01*
X246063Y143699D02*
X251181D01*
X246063Y143345D02*
X251181D01*
X246063Y142991D02*
X251181D01*
X246063Y142636D02*
X251181D01*
X246063Y142282D02*
X251181D01*
X246063Y141928D02*
X251181D01*
X246063Y141573D02*
X251181D01*
X246063Y141219D02*
X251181D01*
X246063Y140865D02*
X251181D01*
X246063Y140510D02*
X251181D01*
X246063Y140156D02*
X251181D01*
X246063Y139802D02*
X251181D01*
X246063Y139448D02*
X251181D01*
X246063Y139093D02*
X251181D01*
X246063Y138739D02*
X251181D01*
X246063Y138385D02*
X251181D01*
X246063Y138030D02*
X251181D01*
X246063Y137676D02*
X251181D01*
X246063Y137322D02*
X251181D01*
X246063Y136967D02*
X251181D01*
X246063Y136613D02*
X251181D01*
X246063Y136259D02*
X251181D01*
X246063Y135904D02*
X251181D01*
X246063Y135550D02*
X251181D01*
X246063Y135196D02*
X251181D01*
X246063Y134841D02*
X251181D01*
X246063Y134487D02*
X251181D01*
X246063Y134133D02*
X251181D01*
X246063Y133778D02*
X251181D01*
X246063Y133424D02*
X251181D01*
X246063Y133070D02*
X251181D01*
X246063Y132715D02*
X251181D01*
X246063Y132361D02*
X251181D01*
X246063Y132007D02*
X251181D01*
X246063Y131652D02*
X251181D01*
X246063Y131298D02*
X251181D01*
X246063Y130944D02*
X251181D01*
X246063Y130589D02*
X251181D01*
X246063Y130235D02*
X251181D01*
X246063Y129881D02*
X251181D01*
X246063Y129526D02*
X251181D01*
X246063Y129172D02*
X251181D01*
X246063Y128818D02*
X251168D01*
X246030Y120668D02*
X251057D01*
X246153Y110747D02*
X250934D01*
X246272Y118542D02*
X250815D01*
X246380Y128463D02*
X250707D01*
X246527Y121022D02*
X250559D01*
X246621Y111101D02*
X250465D01*
X246714Y118188D02*
X250373D01*
X246799Y128109D02*
X250288D01*
X246916Y121377D02*
X250171D01*
X246991Y111455D02*
X250095D01*
X247066Y117833D02*
X250021D01*
X247135Y127755D02*
X249952D01*
X247230Y121731D02*
X249856D01*
X247292Y111810D02*
X249795D01*
X247353Y117479D02*
X249734D01*
X247410Y127400D02*
X249677D01*
X247488Y122085D02*
X249598D01*
X247539Y112164D02*
X249548D01*
X247589Y117125D02*
X249498D01*
X247636Y127046D02*
X249451D01*
X247700Y122440D02*
X249387D01*
X247742Y112518D02*
X249345D01*
X247783Y116770D02*
X249304D01*
X247820Y126692D02*
X249266D01*
X247873Y122794D02*
X249214D01*
X247906Y112873D02*
X249180D01*
X247939Y116416D02*
X249147D01*
X247969Y126337D02*
X249117D01*
X248011Y123148D02*
X249076D01*
X248037Y113227D02*
X249049D01*
X248063Y116062D02*
X249024D01*
X248086Y125983D02*
X249001D01*
X248117Y123503D02*
X248969D01*
X248137Y113581D02*
X248950D01*
X248156Y115707D02*
X248931D01*
X102165Y244329D02*
X248922D01*
X248173Y125629D02*
X248914D01*
X248195Y123857D02*
X248892D01*
X248208Y113936D02*
X248879D01*
X248220Y115353D02*
X248866D01*
X248231Y125274D02*
X248856D01*
X248244Y124211D02*
X248843D01*
X248251Y114290D02*
X248835D01*
X248257Y114999D02*
X248829D01*
X248262Y124920D02*
X248825D01*
X248266Y124566D02*
X248820D01*
X248268Y114644D02*
X248819D01*
X102165Y244684D02*
X248109D01*
X239394Y245038D02*
X247561D01*
X240325Y245392D02*
X247141D01*
X240914Y245747D02*
X246805D01*
X102165Y271613D02*
X246615D01*
X241357Y246101D02*
X246529D01*
X242553Y251416D02*
X246433D01*
X241709Y246455D02*
X246303D01*
X242684Y251062D02*
X246236D01*
X242389Y251770D02*
X246208D01*
X241997Y246810D02*
X246118D01*
X242783Y250707D02*
X246063D01*
X238839Y271259D02*
X246002D01*
X242233Y247164D02*
X245969D01*
X242854Y250353D02*
X245925D01*
X242186Y252125D02*
X245887D01*
X242427Y247518D02*
X245852D01*
X242897Y249999D02*
X245819D01*
X242584Y247873D02*
X245765D01*
X242913Y249644D02*
X245742D01*
X242708Y248227D02*
X245706D01*
X242903Y249290D02*
X245693D01*
X242801Y248581D02*
X245675D01*
X242866Y248936D02*
X245671D01*
X241940Y252479D02*
X245667D01*
X239495Y270904D02*
X245609D01*
X241640Y252833D02*
X245523D01*
X241270Y253188D02*
X245440D01*
X240551Y267007D02*
X245413D01*
X240551Y266652D02*
X245413D01*
X240551Y266298D02*
X245413D01*
X240551Y265944D02*
X245413D01*
X240551Y265589D02*
X245413D01*
X240551Y265235D02*
X245413D01*
X240551Y264881D02*
X245413D01*
X240551Y264526D02*
X245413D01*
X240551Y264172D02*
X245413D01*
X240551Y263818D02*
X245413D01*
X240551Y263463D02*
X245413D01*
X240551Y263109D02*
X245413D01*
X240551Y262755D02*
X245413D01*
X240551Y262400D02*
X245413D01*
X240551Y262046D02*
X245413D01*
X240551Y261692D02*
X245413D01*
X240551Y261337D02*
X245413D01*
X240551Y260983D02*
X245413D01*
X240551Y260629D02*
X245413D01*
X240551Y260274D02*
X245413D01*
X240551Y259920D02*
X245413D01*
X240551Y259566D02*
X245413D01*
X240551Y259211D02*
X245413D01*
X240551Y258857D02*
X245413D01*
X240551Y258503D02*
X245413D01*
X240551Y258148D02*
X245413D01*
X240551Y257794D02*
X245413D01*
X240551Y257440D02*
X245413D01*
X240551Y257085D02*
X245413D01*
X240551Y256731D02*
X245413D01*
X240551Y256377D02*
X245413D01*
X240551Y256022D02*
X245413D01*
X240551Y255668D02*
X245413D01*
X240551Y255314D02*
X245413D01*
X240551Y254959D02*
X245413D01*
X240551Y254605D02*
X245413D01*
X240551Y254251D02*
X245413D01*
X240551Y253896D02*
X245413D01*
X240803Y253542D02*
X245413D01*
X239905Y270550D02*
X245328D01*
X240551Y267361D02*
X245254D01*
X240196Y270196D02*
X245123D01*
X240621Y267715D02*
X245070D01*
X240408Y269841D02*
X244978D01*
X240696Y268070D02*
X244941D01*
X240560Y269487D02*
X244882D01*
X240727Y268424D02*
X244861D01*
X240661Y269133D02*
X244832D01*
X240716Y268778D02*
X244825D01*
X238661Y360550D02*
X244316D01*
X239000Y351337D02*
X244115D01*
X102165Y201101D02*
X244060D01*
X102165Y206770D02*
X244051D01*
X239774Y360196D02*
X243680D01*
X239931Y351692D02*
X243598D01*
X240409Y359841D02*
X243369D01*
X240520Y352046D02*
X243321D01*
X102165Y201455D02*
X243282D01*
X102165Y206416D02*
X243278D01*
X155609Y191888D02*
X243212D01*
X240877Y359487D02*
X243186D01*
X240963Y352400D02*
X243159D01*
X241246Y359133D02*
X243092D01*
X241315Y352755D02*
X243082D01*
X241546Y358778D02*
X243071D01*
X241793Y358424D02*
X243071D01*
X241995Y358070D02*
X243071D01*
X242159Y357715D02*
X243071D01*
X242290Y357361D02*
X243071D01*
X242390Y357007D02*
X243071D01*
X242460Y356652D02*
X243071D01*
X242503Y356298D02*
X243071D01*
X242520Y355944D02*
X243071D01*
X242509Y355589D02*
X243071D01*
X242472Y355235D02*
X243071D01*
X242407Y354881D02*
X243071D01*
X242314Y354526D02*
X243071D01*
X242190Y354172D02*
X243071D01*
X242033Y353818D02*
X243071D01*
X241839Y353463D02*
X243071D01*
X241603Y353109D02*
X243071D01*
X102165Y201810D02*
X242834D01*
X102165Y206062D02*
X242831D01*
X122261Y110038D02*
X242691D01*
X102165Y202164D02*
X242521D01*
X102165Y205707D02*
X242519D01*
X160650Y119251D02*
X242329D01*
X102165Y202518D02*
X242292D01*
X102165Y205353D02*
X242291D01*
X155481Y191534D02*
X242225D01*
X102165Y202873D02*
X242128D01*
X102165Y204999D02*
X242127D01*
X102165Y203227D02*
X242016D01*
X102165Y204644D02*
X242015D01*
X102165Y203581D02*
X241951D01*
X102165Y204290D02*
X241950D01*
X102165Y203936D02*
X241929D01*
X160128Y120314D02*
X241751D01*
X155321Y191180D02*
X241735D01*
X122555Y110392D02*
X241570D01*
X160756Y118896D02*
X241402D01*
X155123Y190825D02*
X241399D01*
X102165Y186928D02*
X241339D01*
X102165Y186573D02*
X241339D01*
X102165Y186219D02*
X241339D01*
X102165Y185865D02*
X241339D01*
X102165Y185510D02*
X241339D01*
X102165Y185156D02*
X241339D01*
X102165Y184802D02*
X241339D01*
X102165Y184448D02*
X241339D01*
X102165Y184093D02*
X241339D01*
X102165Y183739D02*
X241339D01*
X102165Y183385D02*
X241339D01*
X102165Y183030D02*
X241339D01*
X102165Y182676D02*
X241339D01*
X102165Y182322D02*
X241339D01*
X102165Y181967D02*
X241339D01*
X102165Y181613D02*
X241339D01*
X102165Y181259D02*
X241339D01*
X102165Y180904D02*
X241339D01*
X102165Y180550D02*
X241339D01*
X102165Y180196D02*
X241339D01*
X102165Y179841D02*
X241339D01*
X102165Y179487D02*
X241339D01*
X102165Y179133D02*
X241339D01*
X172422Y178778D02*
X241339D01*
X173305Y178424D02*
X241339D01*
X173860Y178070D02*
X241339D01*
X174275Y177715D02*
X241339D01*
X174602Y177361D02*
X241339D01*
X174865Y177007D02*
X241339D01*
X175077Y176652D02*
X241339D01*
X175247Y176298D02*
X241339D01*
X175379Y175944D02*
X241339D01*
X175478Y175589D02*
X241339D01*
X175545Y175235D02*
X241339D01*
X175582Y174881D02*
X241339D01*
X175591Y174526D02*
X241339D01*
X175591Y174172D02*
X241339D01*
X175591Y173818D02*
X241339D01*
X175591Y173463D02*
X241339D01*
X175591Y173109D02*
X241339D01*
X175591Y172755D02*
X241339D01*
X175591Y172400D02*
X241339D01*
X175591Y172046D02*
X241339D01*
X175588Y171692D02*
X241339D01*
X175560Y171337D02*
X241339D01*
X175503Y170983D02*
X241339D01*
X175415Y170629D02*
X241339D01*
X175294Y170274D02*
X241339D01*
X175137Y169920D02*
X241339D01*
X174939Y169566D02*
X241339D01*
X174694Y169211D02*
X241339D01*
X174389Y168857D02*
X241339D01*
X174007Y168503D02*
X241339D01*
X173507Y168148D02*
X241339D01*
X172777Y167794D02*
X241339D01*
X102165Y167440D02*
X241339D01*
X102165Y167085D02*
X241339D01*
X102165Y166731D02*
X241339D01*
X102165Y166377D02*
X241339D01*
X102165Y166022D02*
X241339D01*
X102165Y165668D02*
X241339D01*
X102165Y165314D02*
X241339D01*
X102165Y164959D02*
X241339D01*
X102165Y164605D02*
X241339D01*
X102165Y164251D02*
X241339D01*
X102165Y163896D02*
X241339D01*
X102165Y163542D02*
X241339D01*
X102165Y163188D02*
X241339D01*
X102165Y162833D02*
X241339D01*
X102165Y162479D02*
X241339D01*
X102165Y162125D02*
X241339D01*
X102165Y161770D02*
X241339D01*
X102165Y161416D02*
X241339D01*
X102165Y161062D02*
X241339D01*
X102165Y160707D02*
X241339D01*
X102165Y160353D02*
X241339D01*
X102165Y159999D02*
X241339D01*
X102165Y159644D02*
X241339D01*
X102165Y159290D02*
X241339D01*
X102165Y158936D02*
X241339D01*
X102165Y158581D02*
X241339D01*
X102165Y158227D02*
X241339D01*
X102165Y157873D02*
X241339D01*
X102165Y157518D02*
X241339D01*
X102165Y157164D02*
X241339D01*
X102165Y156810D02*
X241339D01*
X102165Y156455D02*
X241339D01*
X102165Y156101D02*
X241339D01*
X102165Y155747D02*
X241339D01*
X102165Y155392D02*
X241339D01*
X102165Y155038D02*
X241339D01*
X102165Y154684D02*
X241339D01*
X102165Y154329D02*
X241339D01*
X102165Y153975D02*
X241339D01*
X102165Y153621D02*
X241339D01*
X102165Y153266D02*
X241339D01*
X102165Y152912D02*
X241339D01*
X102165Y152558D02*
X241339D01*
X102165Y152203D02*
X241339D01*
X102165Y151849D02*
X241339D01*
X102165Y151495D02*
X241339D01*
X102165Y151140D02*
X241339D01*
X160152Y150786D02*
X241339D01*
X161838Y150432D02*
X241339D01*
X162530Y150077D02*
X241339D01*
X163027Y149723D02*
X241339D01*
X163415Y149369D02*
X241339D01*
X163728Y149014D02*
X241339D01*
X163986Y148660D02*
X241339D01*
X164198Y148306D02*
X241339D01*
X164370Y147951D02*
X241339D01*
X164508Y147597D02*
X241339D01*
X164614Y147243D02*
X241339D01*
X164691Y146888D02*
X241339D01*
X164740Y146534D02*
X241339D01*
X164762Y146180D02*
X241339D01*
X164758Y145825D02*
X241339D01*
X164727Y145471D02*
X241339D01*
X164668Y145117D02*
X241339D01*
X164581Y144762D02*
X241339D01*
X164464Y144408D02*
X241339D01*
X164315Y144054D02*
X241339D01*
X164130Y143699D02*
X241339D01*
X163904Y143345D02*
X241339D01*
X163629Y142991D02*
X241339D01*
X163292Y142636D02*
X241339D01*
X162872Y142282D02*
X241339D01*
X162324Y141928D02*
X241339D01*
X161511Y141573D02*
X241339D01*
X102165Y141219D02*
X241339D01*
X102165Y140865D02*
X241339D01*
X102165Y140510D02*
X241339D01*
X102165Y140156D02*
X241339D01*
X102165Y139802D02*
X241339D01*
X102165Y139448D02*
X241339D01*
X102165Y139093D02*
X241339D01*
X102165Y138739D02*
X241339D01*
X102165Y138385D02*
X241339D01*
X102165Y138030D02*
X241339D01*
X102165Y137676D02*
X241339D01*
X102165Y137322D02*
X241339D01*
X102165Y136967D02*
X241339D01*
X110348Y136613D02*
X241339D01*
X112035Y136259D02*
X241339D01*
X112727Y135904D02*
X241339D01*
X113224Y135550D02*
X241339D01*
X113611Y135196D02*
X241339D01*
X113925Y134841D02*
X241339D01*
X114183Y134487D02*
X241339D01*
X114394Y134133D02*
X241339D01*
X114567Y133778D02*
X241339D01*
X114705Y133424D02*
X241339D01*
X114811Y133070D02*
X241339D01*
X114888Y132715D02*
X241339D01*
X114937Y132361D02*
X241339D01*
X114959Y132007D02*
X241339D01*
X114955Y131652D02*
X241339D01*
X114923Y131298D02*
X241339D01*
X114865Y130944D02*
X241339D01*
X114778Y130589D02*
X241339D01*
X114661Y130235D02*
X241339D01*
X114512Y129881D02*
X241339D01*
X114327Y129526D02*
X241339D01*
X114101Y129172D02*
X241339D01*
X102165Y187282D02*
X241282D01*
X113825Y128818D02*
X241252D01*
X154881Y190471D02*
X241154D01*
X102165Y187636D02*
X241070D01*
X159870Y120668D02*
X241057D01*
X154587Y190117D02*
X240977D01*
X122820Y110747D02*
X240934D01*
X102165Y187991D02*
X240917D01*
X154226Y189762D02*
X240855D01*
X102165Y188345D02*
X240816D01*
X160833Y118542D02*
X240815D01*
X153770Y189408D02*
X240780D01*
X152146Y188699D02*
X240761D01*
X153159Y189054D02*
X240749D01*
X113489Y128463D02*
X240707D01*
X159556Y121022D02*
X240559D01*
X123057Y111101D02*
X240465D01*
X160882Y118188D02*
X240373D01*
X113069Y128109D02*
X240288D01*
X159168Y121377D02*
X240171D01*
X123271Y111455D02*
X240095D01*
X160904Y117833D02*
X240021D01*
X112521Y127755D02*
X239952D01*
X158672Y121731D02*
X239856D01*
X123462Y111810D02*
X239795D01*
X160900Y117479D02*
X239734D01*
X111707Y127400D02*
X239677D01*
X157979Y122085D02*
X239598D01*
X123633Y112164D02*
X239548D01*
X160868Y117125D02*
X239498D01*
X102165Y127046D02*
X239451D01*
X156293Y122440D02*
X239387D01*
X123785Y112518D02*
X239345D01*
X160810Y116770D02*
X239304D01*
X102165Y126692D02*
X239266D01*
X120785Y122794D02*
X239214D01*
X123918Y112873D02*
X239180D01*
X160723Y116416D02*
X239147D01*
X102165Y126337D02*
X239117D01*
X120249Y123148D02*
X239076D01*
X157652Y113227D02*
X239049D01*
X160606Y116062D02*
X239024D01*
X102165Y125983D02*
X239001D01*
X119606Y123503D02*
X238969D01*
X158466Y113581D02*
X238950D01*
X160457Y115707D02*
X238931D01*
X102165Y125629D02*
X238914D01*
X118792Y123857D02*
X238892D01*
X159014Y113936D02*
X238879D01*
X160272Y115353D02*
X238866D01*
X102165Y125274D02*
X238856D01*
X117590Y124211D02*
X238843D01*
X159434Y114290D02*
X238835D01*
X160045Y114999D02*
X238829D01*
X102165Y124920D02*
X238825D01*
X102165Y124566D02*
X238820D01*
X159770Y114644D02*
X238819D01*
X102165Y245038D02*
X236984D01*
X228661Y360550D02*
X236929D01*
X102165Y271259D02*
X236712D01*
X229000Y351337D02*
X236591D01*
X102165Y270904D02*
X236056D01*
X102165Y245392D02*
X236053D01*
X155525Y265944D02*
X235827D01*
X155655Y265589D02*
X235827D01*
X155707Y265235D02*
X235827D01*
X155709Y264881D02*
X235827D01*
X155709Y264526D02*
X235827D01*
X155709Y264172D02*
X235827D01*
X155709Y263818D02*
X235827D01*
X155709Y263463D02*
X235827D01*
X155709Y263109D02*
X235827D01*
X155709Y262755D02*
X235827D01*
X155709Y262400D02*
X235827D01*
X155709Y262046D02*
X235827D01*
X155709Y261692D02*
X235827D01*
X155709Y261337D02*
X235827D01*
X155709Y260983D02*
X235827D01*
X155709Y260629D02*
X235827D01*
X155709Y260274D02*
X235827D01*
X155709Y259920D02*
X235827D01*
X155709Y259566D02*
X235827D01*
X155708Y259211D02*
X235827D01*
X155664Y258857D02*
X235827D01*
X155542Y258503D02*
X235827D01*
X155323Y258148D02*
X235827D01*
X154944Y257794D02*
X235827D01*
X102165Y257440D02*
X235827D01*
X102165Y257085D02*
X235827D01*
X102165Y256731D02*
X235827D01*
X102165Y256377D02*
X235827D01*
X102165Y256022D02*
X235827D01*
X102165Y255668D02*
X235827D01*
X102165Y255314D02*
X235827D01*
X102165Y254959D02*
X235827D01*
X102165Y254605D02*
X235827D01*
X102165Y254251D02*
X235827D01*
X102165Y253896D02*
X235827D01*
X229774Y360196D02*
X235816D01*
X155293Y266298D02*
X235800D01*
X229931Y351692D02*
X235659D01*
X102165Y270550D02*
X235646D01*
X102165Y253542D02*
X235575D01*
X228232Y226259D02*
X235548D01*
X154888Y266652D02*
X235476D01*
X102165Y245747D02*
X235464D01*
X228371Y235117D02*
X235408D01*
X102165Y270196D02*
X235355D01*
X102165Y267007D02*
X235231D01*
X230409Y359841D02*
X235182D01*
X102165Y269841D02*
X235143D01*
X102165Y253188D02*
X235108D01*
X230520Y352046D02*
X235071D01*
X102165Y267361D02*
X235053D01*
X102165Y246101D02*
X235021D01*
X102165Y269487D02*
X234991D01*
X102165Y267715D02*
X234930D01*
X102165Y269133D02*
X234891D01*
X102165Y268070D02*
X234855D01*
X102165Y268778D02*
X234836D01*
X102165Y268424D02*
X234824D01*
X102165Y252833D02*
X234738D01*
X230877Y359487D02*
X234714D01*
X102165Y246455D02*
X234669D01*
X229119Y226613D02*
X234661D01*
X230963Y352400D02*
X234628D01*
X229197Y234762D02*
X234582D01*
X102165Y252479D02*
X234438D01*
X102165Y246810D02*
X234381D01*
X231246Y359133D02*
X234345D01*
X231315Y352755D02*
X234275D01*
X102165Y252125D02*
X234192D01*
X102165Y247164D02*
X234145D01*
X229689Y226967D02*
X234090D01*
X231546Y358778D02*
X234045D01*
X229746Y234408D02*
X234034D01*
X102165Y251770D02*
X233989D01*
X231603Y353109D02*
X233987D01*
X102165Y247518D02*
X233951D01*
X102165Y251416D02*
X233825D01*
X231793Y358424D02*
X233798D01*
X102165Y247873D02*
X233794D01*
X231839Y353463D02*
X233751D01*
X102165Y251062D02*
X233694D01*
X102165Y248227D02*
X233670D01*
X230119Y227322D02*
X233660D01*
X230164Y234054D02*
X233616D01*
X231995Y358070D02*
X233596D01*
X102165Y250707D02*
X233595D01*
X102165Y248581D02*
X233577D01*
X232033Y353818D02*
X233557D01*
X102165Y250353D02*
X233524D01*
X102165Y248936D02*
X233512D01*
X102165Y249999D02*
X233481D01*
X102165Y249290D02*
X233475D01*
X102165Y249644D02*
X233465D01*
X232159Y357715D02*
X233431D01*
X232190Y354172D02*
X233400D01*
X230462Y227676D02*
X233318D01*
X232290Y357361D02*
X233301D01*
X230498Y233699D02*
X233282D01*
X232314Y354526D02*
X233277D01*
X232390Y357007D02*
X233201D01*
X232407Y354881D02*
X233183D01*
X232460Y356652D02*
X233130D01*
X232472Y355235D02*
X233119D01*
X232503Y356298D02*
X233087D01*
X232509Y355589D02*
X233081D01*
X232520Y355944D02*
X233071D01*
X230740Y228030D02*
X233039D01*
X230770Y233345D02*
X233010D01*
X230968Y228385D02*
X232811D01*
X230992Y232991D02*
X232787D01*
X231154Y228739D02*
X232625D01*
X231174Y232636D02*
X232606D01*
X231303Y229093D02*
X232476D01*
X231319Y232282D02*
X232461D01*
X231419Y229448D02*
X232360D01*
X231431Y231928D02*
X232349D01*
X231505Y229802D02*
X232275D01*
X231513Y231573D02*
X232267D01*
X231561Y230156D02*
X232218D01*
X231566Y231219D02*
X232213D01*
X231590Y230510D02*
X232189D01*
X231592Y230865D02*
X232188D01*
X124381Y360550D02*
X226929D01*
X117385Y351337D02*
X226591D01*
X124402Y360196D02*
X225816D01*
X102165Y226259D02*
X225705D01*
X118678Y351692D02*
X225659D01*
X102165Y235117D02*
X225566D01*
X124409Y359841D02*
X225182D01*
X119521Y352046D02*
X225071D01*
X102165Y226613D02*
X224818D01*
X102165Y234762D02*
X224740D01*
X124402Y359487D02*
X224714D01*
X120179Y352400D02*
X224628D01*
X124380Y359133D02*
X224345D01*
X120726Y352755D02*
X224275D01*
X102165Y226967D02*
X224248D01*
X102165Y234408D02*
X224191D01*
X124344Y358778D02*
X224045D01*
X121196Y353109D02*
X223987D01*
X102165Y227322D02*
X223818D01*
X124293Y358424D02*
X223798D01*
X102165Y234054D02*
X223773D01*
X121607Y353463D02*
X223751D01*
X200767Y225550D02*
X223599D01*
X124226Y358070D02*
X223596D01*
X121971Y353818D02*
X223557D01*
X102165Y227676D02*
X223475D01*
X102165Y233699D02*
X223439D01*
X124144Y357715D02*
X223431D01*
X122295Y354172D02*
X223400D01*
X201006Y220235D02*
X223360D01*
X124046Y357361D02*
X223301D01*
X122586Y354526D02*
X223277D01*
X123932Y357007D02*
X223201D01*
X102165Y228030D02*
X223197D01*
X122847Y354881D02*
X223183D01*
X102165Y233345D02*
X223167D01*
X123801Y356652D02*
X223130D01*
X123082Y355235D02*
X223119D01*
X123651Y356298D02*
X223087D01*
X123293Y355589D02*
X223081D01*
X123482Y355944D02*
X223071D01*
X102165Y228385D02*
X222969D01*
X102165Y232991D02*
X222945D01*
X102165Y228739D02*
X222783D01*
X102165Y232636D02*
X222763D01*
X102165Y229093D02*
X222634D01*
X102165Y232282D02*
X222618D01*
X102165Y229448D02*
X222518D01*
X102165Y231928D02*
X222506D01*
X102165Y229802D02*
X222432D01*
X102165Y231573D02*
X222424D01*
X102165Y230156D02*
X222376D01*
X102165Y231219D02*
X222371D01*
X102165Y230510D02*
X222347D01*
X102165Y230865D02*
X222345D01*
X102165Y225550D02*
X198446D01*
X102165Y220235D02*
X198206D01*
X102165Y225196D02*
X197833D01*
X102165Y220589D02*
X197689D01*
X102165Y224841D02*
X197440D01*
X102165Y220944D02*
X197339D01*
X102165Y224487D02*
X197159D01*
X102165Y221298D02*
X197085D01*
X102165Y224133D02*
X196954D01*
X102165Y221652D02*
X196901D01*
X102165Y223778D02*
X196808D01*
X102165Y222007D02*
X196772D01*
X102165Y223424D02*
X196713D01*
X102165Y222361D02*
X196692D01*
X102165Y223070D02*
X196663D01*
X102165Y222715D02*
X196656D01*
X165729Y178778D02*
X170098D01*
X166084Y167794D02*
X169743D01*
X166612Y178424D02*
X169215D01*
X166814Y168148D02*
X169013D01*
X167167Y178070D02*
X168660D01*
X167314Y168503D02*
X168513D01*
X167582Y177715D02*
X168245D01*
X167697Y168857D02*
X168130D01*
X159036Y178778D02*
X163405D01*
X159391Y167794D02*
X163050D01*
X159919Y178424D02*
X162522D01*
X160121Y168148D02*
X162320D01*
X160474Y178070D02*
X161967D01*
X160621Y168503D02*
X161820D01*
X160889Y177715D02*
X161552D01*
X161004Y168857D02*
X161437D01*
X149281Y150786D02*
X159927D01*
X150094Y141573D02*
X158568D01*
X150277Y150432D02*
X158241D01*
X150532Y141928D02*
X157755D01*
X150631Y150077D02*
X157548D01*
X150779Y142282D02*
X157206D01*
X150837Y149723D02*
X157052D01*
X150920Y142636D02*
X156787D01*
X152343Y178778D02*
X156712D01*
X150949Y149369D02*
X156664D01*
X150980Y142991D02*
X156450D01*
X152698Y167794D02*
X156357D01*
X150984Y149014D02*
X156350D01*
X150984Y143345D02*
X156175D01*
X150984Y148660D02*
X156093D01*
X149203Y122440D02*
X156069D01*
X150984Y143699D02*
X155949D01*
X150984Y148306D02*
X155881D01*
X153226Y178424D02*
X155829D01*
X150984Y144054D02*
X155763D01*
X150984Y147951D02*
X155709D01*
X153428Y168148D02*
X155627D01*
X150984Y144408D02*
X155614D01*
X150984Y147597D02*
X155571D01*
X150984Y144762D02*
X155497D01*
X150984Y147243D02*
X155465D01*
X150984Y145117D02*
X155411D01*
X150984Y146888D02*
X155388D01*
X150984Y145471D02*
X155352D01*
X150984Y146534D02*
X155338D01*
X150984Y145825D02*
X155321D01*
X150984Y146180D02*
X155316D01*
X153781Y178070D02*
X155274D01*
X153928Y168503D02*
X155127D01*
X154196Y177715D02*
X154859D01*
X154311Y168857D02*
X154744D01*
X150015Y113227D02*
X154710D01*
X150199Y122085D02*
X154383D01*
X150453Y113581D02*
X153896D01*
X150552Y121731D02*
X153690D01*
X150700Y113936D02*
X153348D01*
X150758Y121377D02*
X153194D01*
X150841Y114290D02*
X152929D01*
X150870Y121022D02*
X152806D01*
X150902Y114644D02*
X152592D01*
X150906Y120668D02*
X152492D01*
X150906Y114999D02*
X152317D01*
X150906Y120314D02*
X152235D01*
X150906Y115353D02*
X152090D01*
X150906Y119959D02*
X152023D01*
X150906Y115707D02*
X151905D01*
X150906Y119605D02*
X151851D01*
X150906Y116062D02*
X151756D01*
X150906Y119251D02*
X151713D01*
X150906Y116416D02*
X151639D01*
X150906Y118896D02*
X151606D01*
X150906Y116770D02*
X151552D01*
X150906Y118542D02*
X151529D01*
X150906Y117125D02*
X151494D01*
X150906Y118188D02*
X151480D01*
X150906Y117479D02*
X151463D01*
X150906Y117833D02*
X151458D01*
X112146Y188699D02*
X150058D01*
X112158Y197912D02*
X150047D01*
X147780Y178778D02*
X150019D01*
X147994Y167794D02*
X149664D01*
X148294Y178424D02*
X149136D01*
X113159Y189054D02*
X149046D01*
X113164Y197558D02*
X149040D01*
X148401Y168148D02*
X148934D01*
X113770Y189408D02*
X148434D01*
X113774Y197203D02*
X148430D01*
X114226Y189762D02*
X147979D01*
X114229Y196849D02*
X147976D01*
X114587Y190117D02*
X147618D01*
X114589Y196495D02*
X147615D01*
X114881Y190471D02*
X147324D01*
X114883Y196140D02*
X147322D01*
X115123Y190825D02*
X147082D01*
X115124Y195786D02*
X147081D01*
X138798Y266652D02*
X147080D01*
X138897Y257794D02*
X147025D01*
X115321Y191180D02*
X146884D01*
X115322Y195432D02*
X146883D01*
X115481Y191534D02*
X146723D01*
X115483Y195077D02*
X146722D01*
X139564Y266298D02*
X146676D01*
X139627Y258148D02*
X146646D01*
X115609Y191888D02*
X146596D01*
X115610Y194723D02*
X146595D01*
X115705Y192243D02*
X146499D01*
X115706Y194369D02*
X146499D01*
X140093Y265944D02*
X146444D01*
X115773Y192597D02*
X146432D01*
X115774Y194014D02*
X146431D01*
X140140Y258503D02*
X146426D01*
X115813Y192951D02*
X146391D01*
X115814Y193660D02*
X146391D01*
X115827Y193306D02*
X146378D01*
X140501Y265589D02*
X146313D01*
X140538Y258857D02*
X146304D01*
X140829Y265235D02*
X146262D01*
X140860Y259211D02*
X146260D01*
X141098Y264881D02*
X146260D01*
X141319Y264526D02*
X146260D01*
X141500Y264172D02*
X146260D01*
X141645Y263818D02*
X146260D01*
X141758Y263463D02*
X146260D01*
X141842Y263109D02*
X146260D01*
X141897Y262755D02*
X146260D01*
X141925Y262400D02*
X146260D01*
X141926Y262046D02*
X146260D01*
X141901Y261692D02*
X146260D01*
X141849Y261337D02*
X146260D01*
X141768Y260983D02*
X146260D01*
X141658Y260629D02*
X146260D01*
X141517Y260274D02*
X146260D01*
X141340Y259920D02*
X146260D01*
X141123Y259566D02*
X146260D01*
X102165Y150786D02*
X143238D01*
X121247Y122440D02*
X143160D01*
X134828Y291810D02*
X143124D01*
X135191Y301022D02*
X142762D01*
X102165Y141573D02*
X142425D01*
X124034Y113227D02*
X142347D01*
X102165Y150432D02*
X142242D01*
X121652Y122085D02*
X142164D01*
X135950Y292164D02*
X142003D01*
X102165Y141928D02*
X141988D01*
X124134Y113581D02*
X141909D01*
X102165Y150077D02*
X141889D01*
X136118Y300668D02*
X141835D01*
X122011Y121731D02*
X141810D01*
X102165Y142282D02*
X141741D01*
X102165Y149723D02*
X141683D01*
X124218Y113936D02*
X141662D01*
X122331Y121377D02*
X141604D01*
X102165Y142636D02*
X141600D01*
X102165Y149369D02*
X141571D01*
X102165Y142991D02*
X141539D01*
X102165Y149014D02*
X141535D01*
X102165Y148660D02*
X141535D01*
X102165Y148306D02*
X141535D01*
X102165Y147951D02*
X141535D01*
X102165Y147597D02*
X141535D01*
X102165Y147243D02*
X141535D01*
X102165Y146888D02*
X141535D01*
X102165Y146534D02*
X141535D01*
X102165Y146180D02*
X141535D01*
X102165Y145825D02*
X141535D01*
X102165Y145471D02*
X141535D01*
X102165Y145117D02*
X141535D01*
X102165Y144762D02*
X141535D01*
X102165Y144408D02*
X141535D01*
X102165Y144054D02*
X141535D01*
X102165Y143699D02*
X141535D01*
X102165Y143345D02*
X141535D01*
X124286Y114290D02*
X141521D01*
X122618Y121022D02*
X141492D01*
X124339Y114644D02*
X141461D01*
X122876Y120668D02*
X141457D01*
X123108Y120314D02*
X141457D01*
X123317Y119959D02*
X141457D01*
X123503Y119605D02*
X141457D01*
X123670Y119251D02*
X141457D01*
X123817Y118896D02*
X141457D01*
X123946Y118542D02*
X141457D01*
X124059Y118188D02*
X141457D01*
X124155Y117833D02*
X141457D01*
X124235Y117479D02*
X141457D01*
X124299Y117125D02*
X141457D01*
X124349Y116770D02*
X141457D01*
X124384Y116416D02*
X141457D01*
X124404Y116062D02*
X141457D01*
X124409Y115707D02*
X141457D01*
X124400Y115353D02*
X141457D01*
X124377Y114999D02*
X141457D01*
X136586Y292518D02*
X141367D01*
X136705Y300314D02*
X141248D01*
X102165Y178778D02*
X141196D01*
X102165Y167794D02*
X140982D01*
X137055Y292873D02*
X140898D01*
X137147Y299959D02*
X140806D01*
X102165Y178424D02*
X140682D01*
X102165Y168148D02*
X140576D01*
X137425Y293227D02*
X140528D01*
X137499Y299605D02*
X140454D01*
X102165Y178070D02*
X140406D01*
X102165Y168503D02*
X140343D01*
X113684Y177715D02*
X140245D01*
X137725Y293581D02*
X140228D01*
X113997Y168857D02*
X140212D01*
X114494Y177361D02*
X140168D01*
X137786Y299251D02*
X140167D01*
X114691Y169211D02*
X140159D01*
X115041Y177007D02*
X140157D01*
X115460Y176652D02*
X140157D01*
X115796Y176298D02*
X140157D01*
X116071Y175944D02*
X140157D01*
X116297Y175589D02*
X140157D01*
X116482Y175235D02*
X140157D01*
X116631Y174881D02*
X140157D01*
X116747Y174526D02*
X140157D01*
X116834Y174172D02*
X140157D01*
X116892Y173818D02*
X140157D01*
X116923Y173463D02*
X140157D01*
X116928Y173109D02*
X140157D01*
X116905Y172755D02*
X140157D01*
X116856Y172400D02*
X140157D01*
X116779Y172046D02*
X140157D01*
X116672Y171692D02*
X140157D01*
X116534Y171337D02*
X140157D01*
X116361Y170983D02*
X140157D01*
X116150Y170629D02*
X140157D01*
X115892Y170274D02*
X140157D01*
X115577Y169920D02*
X140157D01*
X115189Y169566D02*
X140157D01*
X137972Y293936D02*
X139981D01*
X138022Y298896D02*
X139931D01*
X138175Y294290D02*
X139778D01*
X138216Y298542D02*
X139737D01*
X138339Y294644D02*
X139613D01*
X138372Y298188D02*
X139580D01*
X138470Y294999D02*
X139483D01*
X138496Y297833D02*
X139457D01*
X138570Y295353D02*
X139383D01*
X138589Y297479D02*
X139364D01*
X138641Y295707D02*
X139312D01*
X138653Y297125D02*
X139299D01*
X138684Y296062D02*
X139268D01*
X138690Y296770D02*
X139262D01*
X138701Y296416D02*
X139252D01*
X102165Y266652D02*
X135611D01*
X102165Y257794D02*
X135512D01*
X102165Y266298D02*
X134845D01*
X102165Y258148D02*
X134783D01*
X102165Y265944D02*
X134317D01*
X102165Y258503D02*
X134270D01*
X102165Y265589D02*
X133908D01*
X102165Y258857D02*
X133871D01*
X102165Y265235D02*
X133580D01*
X102165Y259211D02*
X133550D01*
X102165Y264881D02*
X133311D01*
X102165Y259566D02*
X133286D01*
X102165Y291810D02*
X133124D01*
X102165Y264526D02*
X133090D01*
X102165Y259920D02*
X133070D01*
X102165Y264172D02*
X132909D01*
X102165Y260274D02*
X132893D01*
X102165Y263818D02*
X132764D01*
X102165Y301022D02*
X132762D01*
X102165Y260629D02*
X132751D01*
X102165Y263463D02*
X132651D01*
X102165Y260983D02*
X132641D01*
X102165Y263109D02*
X132568D01*
X102165Y261337D02*
X132561D01*
X102165Y262755D02*
X132512D01*
X102165Y261692D02*
X132508D01*
X102165Y262400D02*
X132484D01*
X102165Y262046D02*
X132483D01*
X102165Y292164D02*
X132003D01*
X102165Y300668D02*
X131835D01*
X102165Y292518D02*
X131367D01*
X102165Y300314D02*
X131248D01*
X102165Y292873D02*
X130898D01*
X102165Y299959D02*
X130806D01*
X102165Y293227D02*
X130528D01*
X102165Y299605D02*
X130454D01*
X102165Y293581D02*
X130228D01*
X102165Y299251D02*
X130167D01*
X102165Y293936D02*
X129981D01*
X102165Y298896D02*
X129931D01*
X102165Y294290D02*
X129778D01*
X102165Y298542D02*
X129737D01*
X102165Y294644D02*
X129613D01*
X102165Y298188D02*
X129580D01*
X102165Y294999D02*
X129483D01*
X102165Y297833D02*
X129457D01*
X102165Y295353D02*
X129383D01*
X102165Y297479D02*
X129364D01*
X102165Y295707D02*
X129312D01*
X102165Y297125D02*
X129299D01*
X102165Y296062D02*
X129268D01*
X102165Y296770D02*
X129262D01*
X102165Y296416D02*
X129252D01*
X102165Y107203D02*
X114330D01*
X102165Y351337D02*
X114111D01*
X102165Y368345D02*
X114097D01*
X102165Y124211D02*
X113906D01*
X102165Y107558D02*
X112930D01*
X102165Y351692D02*
X112818D01*
X102165Y367991D02*
X112811D01*
X102165Y123857D02*
X112704D01*
X102165Y107912D02*
X112058D01*
X102165Y352046D02*
X111975D01*
X102165Y367636D02*
X111970D01*
X102165Y123503D02*
X111890D01*
X102165Y108266D02*
X111384D01*
X102165Y352400D02*
X111317D01*
X102165Y367282D02*
X111313D01*
X102165Y123148D02*
X111247D01*
X102165Y108621D02*
X110826D01*
X102165Y352755D02*
X110770D01*
X102165Y366928D02*
X110766D01*
X102165Y177715D02*
X110725D01*
X102165Y122794D02*
X110711D01*
X102165Y168857D02*
X110413D01*
X102165Y108975D02*
X110349D01*
X102165Y353109D02*
X110300D01*
X102165Y366573D02*
X110297D01*
X102165Y122440D02*
X110249D01*
X102165Y136613D02*
X110124D01*
X102165Y188699D02*
X110058D01*
X102165Y197912D02*
X110047D01*
X102165Y109329D02*
X109932D01*
X102165Y177361D02*
X109915D01*
X102165Y353463D02*
X109889D01*
X102165Y366219D02*
X109886D01*
X102165Y122085D02*
X109844D01*
X102165Y169211D02*
X109718D01*
X102165Y109684D02*
X109564D01*
X102165Y353818D02*
X109525D01*
X102165Y365865D02*
X109523D01*
X102165Y121731D02*
X109485D01*
X102165Y177007D02*
X109368D01*
X102165Y110038D02*
X109235D01*
X102165Y169566D02*
X109221D01*
X102165Y354172D02*
X109201D01*
X102165Y365510D02*
X109199D01*
X102165Y121377D02*
X109165D01*
X102165Y189054D02*
X109046D01*
X102165Y197558D02*
X109040D01*
X102165Y176652D02*
X108949D01*
X102165Y110392D02*
X108941D01*
X102165Y354526D02*
X108910D01*
X102165Y365156D02*
X108908D01*
X102165Y121022D02*
X108878D01*
X102165Y169920D02*
X108832D01*
X102165Y127400D02*
X108765D01*
X102165Y110747D02*
X108676D01*
X102165Y354881D02*
X108649D01*
X102165Y364802D02*
X108647D01*
X102165Y120668D02*
X108620D01*
X102165Y176298D02*
X108613D01*
X102165Y170274D02*
X108518D01*
X102165Y111101D02*
X108439D01*
X102165Y136259D02*
X108438D01*
X102165Y189408D02*
X108434D01*
X102165Y197203D02*
X108430D01*
X102165Y355235D02*
X108414D01*
X102165Y364448D02*
X108412D01*
X102165Y120314D02*
X108388D01*
X102165Y175944D02*
X108338D01*
X102165Y170629D02*
X108260D01*
X102165Y111455D02*
X108225D01*
X102165Y355589D02*
X108203D01*
X102165Y364093D02*
X108201D01*
X102165Y119959D02*
X108179D01*
X102165Y175589D02*
X108112D01*
X102165Y170983D02*
X108048D01*
X102165Y111810D02*
X108034D01*
X102165Y355944D02*
X108014D01*
X102165Y363739D02*
X108012D01*
X102165Y119605D02*
X107993D01*
X102165Y189762D02*
X107979D01*
X102165Y196849D02*
X107976D01*
X102165Y127755D02*
X107951D01*
X102165Y175235D02*
X107928D01*
X102165Y171337D02*
X107875D01*
X102165Y112164D02*
X107863D01*
X102165Y356298D02*
X107845D01*
X102165Y363385D02*
X107844D01*
X102165Y119251D02*
X107826D01*
X102165Y174881D02*
X107779D01*
X102165Y135904D02*
X107745D01*
X102165Y171692D02*
X107737D01*
X102165Y112518D02*
X107711D01*
X102165Y356652D02*
X107696D01*
X102165Y363030D02*
X107695D01*
X102165Y118896D02*
X107679D01*
X102165Y174526D02*
X107662D01*
X102165Y172046D02*
X107631D01*
X102165Y190117D02*
X107618D01*
X102165Y196495D02*
X107615D01*
X102165Y112873D02*
X107578D01*
X102165Y174172D02*
X107575D01*
X102165Y357007D02*
X107564D01*
X102165Y362676D02*
X107563D01*
X102165Y172400D02*
X107553D01*
X102165Y118542D02*
X107550D01*
X102165Y173818D02*
X107517D01*
X102165Y172755D02*
X107504D01*
X102165Y173463D02*
X107486D01*
X102165Y173109D02*
X107482D01*
X102165Y113227D02*
X107462D01*
X102165Y357361D02*
X107450D01*
X102165Y362322D02*
X107449D01*
X102165Y118188D02*
X107437D01*
X102165Y128109D02*
X107403D01*
X102165Y113581D02*
X107362D01*
X102165Y357715D02*
X107352D01*
X102165Y361967D02*
X107351D01*
X102165Y117833D02*
X107341D01*
X102165Y190471D02*
X107324D01*
X102165Y196140D02*
X107322D01*
X102165Y113936D02*
X107278D01*
X102165Y358070D02*
X107270D01*
X102165Y361613D02*
X107269D01*
X102165Y117479D02*
X107261D01*
X102165Y135550D02*
X107249D01*
X102165Y114290D02*
X107210D01*
X102165Y358424D02*
X107204D01*
X102165Y361259D02*
X107203D01*
X102165Y117125D02*
X107197D01*
X102165Y114644D02*
X107157D01*
X102165Y358778D02*
X107152D01*
X102165Y360904D02*
X107152D01*
X102165Y116770D02*
X107147D01*
X102165Y114999D02*
X107119D01*
X102165Y359133D02*
X107116D01*
X102165Y360550D02*
X107116D01*
X102165Y116416D02*
X107112D01*
X102165Y115353D02*
X107096D01*
X102165Y359487D02*
X107094D01*
X102165Y360196D02*
X107094D01*
X102165Y116062D02*
X107092D01*
X102165Y115707D02*
X107087D01*
X102165Y359841D02*
X107087D01*
X102165Y190825D02*
X107082D01*
X102165Y195786D02*
X107081D01*
X102165Y128463D02*
X106984D01*
X102165Y191180D02*
X106884D01*
X102165Y195432D02*
X106883D01*
X102165Y135196D02*
X106861D01*
X102165Y191534D02*
X106723D01*
X102165Y195077D02*
X106722D01*
X102165Y128818D02*
X106647D01*
X102165Y191888D02*
X106596D01*
X102165Y194723D02*
X106595D01*
X102165Y134841D02*
X106547D01*
X102165Y192243D02*
X106499D01*
X102165Y194369D02*
X106499D01*
X102165Y192597D02*
X106432D01*
X102165Y194014D02*
X106431D01*
X102165Y192951D02*
X106391D01*
X102165Y193660D02*
X106391D01*
X102165Y193306D02*
X106378D01*
X102165Y129172D02*
X106372D01*
X102165Y134487D02*
X106290D01*
X102165Y129526D02*
X106145D01*
X102165Y134133D02*
X106078D01*
X102165Y129881D02*
X105960D01*
X102165Y133778D02*
X105906D01*
X102165Y130235D02*
X105811D01*
X102165Y133424D02*
X105768D01*
X102165Y130589D02*
X105694D01*
X102165Y133070D02*
X105661D01*
X102165Y130944D02*
X105608D01*
X102165Y132715D02*
X105584D01*
X102165Y131298D02*
X105549D01*
X102165Y132361D02*
X105535D01*
X102165Y131652D02*
X105518D01*
X102165Y132007D02*
X105513D01*
X100000Y100000D02*
X375591D01*
Y375591*
X100000*
Y100000*
G54D34*
X360309Y245675D02*
X359056Y246928D01*
X360309Y252356D02*
X359056Y251104D01*
X353628Y252356D02*
X354881Y251104D01*
X353628Y245675D02*
X354881Y246928D01*
X133864Y258864D02*
X135117Y260117D01*
X140545Y258864D02*
X139293Y260117D01*
X140545Y265545D02*
X139293Y264293D01*
X133864Y265545D02*
X135117Y264293D01*
X113577Y135230D02*
X112324Y133978D01*
X106896Y135230D02*
X108148Y133978D01*
X106896Y128549D02*
X108148Y129802D01*
X113577Y128549D02*
X112324Y129802D01*
X240203Y111344D02*
X241455Y112597D01*
X246884Y111344D02*
X245631Y112597D01*
X246884Y118026D02*
X245631Y116773D01*
X240203Y118026D02*
X241455Y116773D01*
X114443Y196648D02*
X113190Y195395D01*
X107762Y196648D02*
X109014Y195395D01*
X107762Y189966D02*
X109014Y191219D01*
X114443Y189966D02*
X113190Y191219D01*
X224455Y352565D02*
X225707Y353818D01*
X231136Y352565D02*
X229883Y353818D01*
X231136Y359246D02*
X229883Y357993D01*
X224455Y359246D02*
X225707Y357993D01*
X163380Y149404D02*
X162127Y148151D01*
X156699Y149404D02*
X157951Y148151D01*
X156699Y142722D02*
X157951Y143975D01*
X163380Y142722D02*
X162127Y143975D01*
X240082Y233980D02*
X238829Y232727D01*
X233540Y233980D02*
X234793Y232727D01*
X233540Y227438D02*
X234793Y228690D01*
X240082Y227438D02*
X238829Y228690D01*
X154812Y177669D02*
X156064Y176416D01*
X160936Y177669D02*
X159684Y176416D01*
X160936Y168788D02*
X159684Y170041D01*
X154812Y168788D02*
X156064Y170041D01*
X159522Y121057D02*
X158269Y119804D01*
X152840Y121057D02*
X154093Y119804D01*
X152840Y114376D02*
X154093Y115629D01*
X159522Y114376D02*
X158269Y115629D01*
X137317Y299797D02*
X136064Y298545D01*
X130636Y299797D02*
X131888Y298545D01*
X130636Y293116D02*
X131888Y294369D01*
X137317Y293116D02*
X136064Y294369D01*
X360309Y195675D02*
X359056Y196928D01*
X360309Y202356D02*
X359056Y201104D01*
X353628Y202356D02*
X354881Y201104D01*
X353628Y195675D02*
X354881Y196928D01*
X168198Y177669D02*
X169450Y176416D01*
X174322Y177669D02*
X173069Y176416D01*
X174322Y168788D02*
X173069Y170041D01*
X168198Y168788D02*
X169450Y170041D01*
G74*
X0Y0D02*
M02*
