*
*
G04 PADS 9.4.1 Build Number: 494907 generated Gerber (RS-274-X) file*
G04 PC Version=2.1*
*
%IN "ATMEGA8-KSC.pcb"*%
*
%MOIN*%
*
%FSLAX35Y35*%
*
*
*
*
G04 PC Standard Apertures*
*
*
G04 Thermal Relief Aperture macro.*
%AMTER*
1,1,$1,0,0*
1,0,$1-$2,0,0*
21,0,$3,$4,0,0,45*
21,0,$3,$4,0,0,135*
%
*
*
G04 Annular Aperture macro.*
%AMANN*
1,1,$1,0,0*
1,0,$2,0,0*
%
*
*
G04 Odd Aperture macro.*
%AMODD*
1,1,$1,0,0*
1,0,$1-0.005,0,0*
%
*
*
G04 PC Custom Aperture Macros*
*
*
*
*
*
*
G04 PC Aperture Table*
*
%ADD010C,0.001*%
%ADD012R,0.05906X0.05906*%
%ADD013C,0.05906*%
%ADD014C,0.05709*%
%ADD017R,0.04724X0.04724*%
%ADD018C,0.04724*%
%ADD020R,0.05118X0.07874*%
%ADD021O,0.05118X0.07874*%
%ADD027C,0.1378*%
%ADD033C,0.00394*%
*
*
*
*
G04 PC Circuitry*
G04 Layer Name ATMEGA8-KSC.pcb - circuitry*
%LPD*%
*
*
G04 PC Custom Flashes*
G04 Layer Name ATMEGA8-KSC.pcb - flashes*
%LPD*%
*
*
G04 PC Circuitry*
G04 Layer Name ATMEGA8-KSC.pcb - circuitry*
%LPD*%
*
G54D10*
G54D12*
G01X146260Y146063D03*
X150984Y262205D03*
X263543Y124685D03*
X146181Y117717D03*
X247795Y355906D03*
X346969Y249016D03*
G54D13*
X160039Y146063D03*
X137205Y262205D03*
X111102Y193307D03*
X151102D03*
X133976Y296457D03*
X143976D03*
X263543Y114685D03*
X253543Y124685D03*
Y114685D03*
X243543Y124685D03*
Y114685D03*
X156181Y117717D03*
X237795Y355906D03*
X227795D03*
X303346Y207283D03*
X349606Y282283D03*
X326772Y229134D03*
X268504Y310236D03*
X359843Y166732D03*
X326772Y219291D03*
Y209055D03*
X359449Y179134D03*
X326772Y198819D03*
X348819Y179134D03*
X112205Y173228D03*
X298425Y272835D03*
X299606Y169291D03*
X265748Y247638D03*
X238189Y249606D03*
X250394Y248819D03*
X110236Y131890D03*
X364173Y265748D03*
X350394Y294488D03*
X356969Y249016D03*
X346969Y239016D03*
X356969D03*
X346969Y229016D03*
X356969D03*
X346969Y219016D03*
X356969D03*
X346969Y209016D03*
X356969D03*
X346969Y199016D03*
X356969D03*
G54D14*
X226969Y230709D03*
X236811D03*
G54D17*
X274016Y227441D03*
G54D18*
Y217441D03*
G54D20*
X144488Y173228D03*
G54D21*
X151181D03*
X157874D03*
X164567D03*
X171260D03*
G54D27*
X115748Y115748D03*
Y359843D03*
X359843D03*
Y115748D03*
G54D33*
X100000Y100000D02*
X375591D01*
Y375591*
X100000*
Y100000*
X0Y0D02*
M02*
