*
*
G04 PADS 9.4.1 Build Number: 494907 generated Gerber (RS-274-X) file*
G04 PC Version=2.1*
*
%IN "ATMEGA8-KSC.pcb"*%
*
%MOIN*%
*
%FSLAX35Y35*%
*
*
*
*
G04 PC Standard Apertures*
*
*
G04 Thermal Relief Aperture macro.*
%AMTER*
1,1,$1,0,0*
1,0,$1-$2,0,0*
21,0,$3,$4,0,0,45*
21,0,$3,$4,0,0,135*
%
*
*
G04 Annular Aperture macro.*
%AMANN*
1,1,$1,0,0*
1,0,$2,0,0*
%
*
*
G04 Odd Aperture macro.*
%AMODD*
1,1,$1,0,0*
1,0,$1-0.005,0,0*
%
*
*
G04 PC Custom Aperture Macros*
*
*
*
*
*
*
G04 PC Aperture Table*
*
%ADD010C,0.001*%
%ADD033C,0.00394*%
%ADD038C,0.01*%
*
*
*
*
G04 PC Circuitry*
G04 Layer Name ATMEGA8-KSC.pcb - circuitry*
%LPD*%
*
*
G04 PC Custom Flashes*
G04 Layer Name ATMEGA8-KSC.pcb - flashes*
%LPD*%
*
*
G04 PC Circuitry*
G04 Layer Name ATMEGA8-KSC.pcb - circuitry*
%LPD*%
*
G54D10*
G54D33*
G01X100000Y100000D02*
X375591D01*
Y375591*
X100000*
Y100000*
G54D38*
X142260Y142063D02*
X150260D01*
Y150063*
X142260*
Y142063*
X146260Y146063D02*
Y150063D01*
X156039Y142063D02*
X164039D01*
Y150063*
X156039*
Y142063*
X160039Y146063D02*
Y150063D01*
X146984Y258205D02*
X154984D01*
Y266205*
X146984*
Y258205*
X150984Y262205D02*
Y266205D01*
X133205Y258205D02*
X141205D01*
Y266205*
X133205*
Y258205*
X137205Y262205D02*
Y266205D01*
X222969Y230709D02*
X230969D01*
X226969Y226709D02*
Y234709D01*
X229878Y235990D02*
X228969Y232709D01*
X229878Y235990D02*
X230787Y232709D01*
X229309Y233802D02*
X230446D01*
X232811Y230709D02*
X240811D01*
X236811Y226709D02*
Y234709D01*
X239720Y235990D02*
X238811Y232709D01*
X239720Y235990D02*
X240629Y232709D01*
X239152Y233802D02*
X240288D01*
X107102Y189307D02*
X115102D01*
Y197307*
X107102*
Y189307*
X111102Y193307D02*
Y197307D01*
X147102Y189307D02*
X155102D01*
Y197307*
X147102*
Y189307*
X151102Y193307D02*
Y197307D01*
X129976Y292457D02*
X137976Y300457D01*
Y292457*
X129976Y300457*
Y292457*
X139976D02*
X147976Y300457D01*
Y292457*
X139976Y300457*
Y292457*
X259543Y120685D02*
X267543D01*
Y128685*
X259543*
Y120685*
X263543Y124685D02*
Y128685D01*
X259543Y110685D02*
X267543D01*
Y118685*
X259543*
Y110685*
X263543Y114685D02*
Y118685D01*
X249543Y120685D02*
X257543D01*
Y128685*
X249543*
Y120685*
X253543Y124685D02*
Y128685D01*
X249543Y110685D02*
X257543D01*
Y118685*
X249543*
Y110685*
X253543Y114685D02*
Y118685D01*
X239543Y120685D02*
X247543D01*
Y128685*
X239543*
Y120685*
X243543Y124685D02*
Y128685D01*
X239543Y110685D02*
X247543D01*
Y118685*
X239543*
Y110685*
X243543Y114685D02*
Y118685D01*
X142181Y113717D02*
X150181D01*
Y121717*
X142181*
Y113717*
X146181Y117717D02*
Y121717D01*
X152181Y113717D02*
X160181D01*
Y121717*
X152181*
Y113717*
X156181Y117717D02*
Y121717D01*
X243795Y351906D02*
X251795D01*
Y359906*
X243795*
Y351906*
X247795Y355906D02*
Y359906D01*
X233795Y351906D02*
X241795D01*
Y359906*
X233795*
Y351906*
X237795Y355906D02*
Y359906D01*
X223795Y351906D02*
X231795D01*
Y359906*
X223795*
Y351906*
X227795Y355906D02*
Y359906D01*
X270016Y223441D02*
X278016D01*
X270016Y231441*
X278016*
X270016Y223441*
Y213441D02*
X278016D01*
X270016Y221441*
X278016*
X270016Y213441*
X299346Y203283D02*
X307346D01*
Y211283*
X299346*
Y203283*
X303346Y207283D02*
Y211283D01*
X345606Y278283D02*
X353606D01*
Y286283*
X345606*
Y278283*
X349606Y282283D02*
Y286283D01*
X322772Y225134D02*
X330772D01*
Y233134*
X322772*
Y225134*
X326772Y229134D02*
Y233134D01*
X264504Y306236D02*
X272504D01*
Y314236*
X264504*
Y306236*
X268504Y310236D02*
Y314236D01*
X355843Y162732D02*
X363843D01*
Y170732*
X355843*
Y162732*
X359843Y166732D02*
Y170732D01*
X322772Y215291D02*
X330772D01*
Y223291*
X322772*
Y215291*
X326772Y219291D02*
Y223291D01*
X322772Y205055D02*
X330772D01*
Y213055*
X322772*
Y205055*
X326772Y209055D02*
Y213055D01*
X355449Y175134D02*
X363449D01*
Y183134*
X355449*
Y175134*
X359449Y179134D02*
Y183134D01*
X322772Y194819D02*
X330772D01*
Y202819*
X322772*
Y194819*
X326772Y198819D02*
Y202819D01*
X344819Y175134D02*
X352819D01*
Y183134*
X344819*
Y175134*
X348819Y179134D02*
Y183134D01*
X108205Y169228D02*
X116205D01*
Y177228*
X108205*
Y169228*
X112205Y173228D02*
Y177228D01*
X294425Y268835D02*
X302425D01*
Y276835*
X294425*
Y268835*
X298425Y272835D02*
Y276835D01*
X295606Y165291D02*
X303606D01*
Y173291*
X295606*
Y165291*
X299606Y169291D02*
Y173291D01*
X261748Y243638D02*
X269748D01*
Y251638*
X261748*
Y243638*
X265748Y247638D02*
Y251638D01*
X234189Y245606D02*
X242189D01*
Y253606*
X234189*
Y245606*
X238189Y249606D02*
Y253606D01*
X246394Y244819D02*
X254394D01*
Y252819*
X246394*
Y244819*
X250394Y248819D02*
Y252819D01*
X106236Y127890D02*
X114236D01*
Y135890*
X106236*
Y127890*
X110236Y131890D02*
Y135890D01*
X360173Y261748D02*
X368173D01*
Y269748*
X360173*
Y261748*
X364173Y265748D02*
Y269748D01*
X346394Y290488D02*
X354394D01*
Y298488*
X346394*
Y290488*
X350394Y294488D02*
Y298488D01*
X140488Y169228D02*
X148488D01*
Y177228*
X140488*
Y169228*
X144488Y173228D02*
Y177228D01*
X147181Y169228D02*
X155181D01*
Y177228*
X147181*
Y169228*
X151181Y173228D02*
Y177228D01*
X153874Y169228D02*
X161874D01*
Y177228*
X153874*
Y169228*
X157874Y173228D02*
Y177228D01*
X160567Y169228D02*
X168567D01*
Y177228*
X160567*
Y169228*
X164567Y173228D02*
Y177228D01*
X167260Y169228D02*
X175260D01*
Y177228*
X167260*
Y169228*
X171260Y173228D02*
Y177228D01*
X342969Y245016D02*
X350969D01*
Y253016*
X342969*
Y245016*
X346969Y249016D02*
Y253016D01*
X352969Y245016D02*
X360969D01*
Y253016*
X352969*
Y245016*
X356969Y249016D02*
Y253016D01*
X342969Y235016D02*
X350969D01*
Y243016*
X342969*
Y235016*
X346969Y239016D02*
Y243016D01*
X352969Y235016D02*
X360969D01*
Y243016*
X352969*
Y235016*
X356969Y239016D02*
Y243016D01*
X342969Y225016D02*
X350969D01*
Y233016*
X342969*
Y225016*
X346969Y229016D02*
Y233016D01*
X352969Y225016D02*
X360969D01*
Y233016*
X352969*
Y225016*
X356969Y229016D02*
Y233016D01*
X342969Y215016D02*
X350969D01*
Y223016*
X342969*
Y215016*
X346969Y219016D02*
Y223016D01*
X352969Y215016D02*
X360969D01*
Y223016*
X352969*
Y215016*
X356969Y219016D02*
Y223016D01*
X342969Y205016D02*
X350969D01*
Y213016*
X342969*
Y205016*
X346969Y209016D02*
Y213016D01*
X352969Y205016D02*
X360969D01*
Y213016*
X352969*
Y205016*
X356969Y209016D02*
Y213016D01*
X342969Y195016D02*
X350969D01*
Y203016*
X342969*
Y195016*
X346969Y199016D02*
Y203016D01*
X352969Y195016D02*
X360969D01*
Y203016*
X352969*
Y195016*
X356969Y199016D02*
Y203016D01*
X111748Y111748D02*
X119748Y119748D01*
X111748D02*
X119748Y111748D01*
X111748Y355843D02*
X119748Y363843D01*
X111748D02*
X119748Y355843D01*
X355843D02*
X363843Y363843D01*
X355843D02*
X363843Y355843D01*
X355843Y111748D02*
X363843Y119748D01*
X355843D02*
X363843Y111748D01*
X99750Y103750D02*
X107750D01*
X103750Y99750D02*
Y107750D01*
X127588Y103750D02*
X135588D01*
X131588Y99750D02*
Y107750D01*
X155427Y103750D02*
X163427D01*
X159427Y99750D02*
Y107750D01*
X183266Y103750D02*
X191266D01*
X187266Y99750D02*
Y107750D01*
X211105Y103750D02*
X219105D01*
X215105Y99750D02*
Y107750D01*
X238944Y103750D02*
X246944D01*
X242944Y99750D02*
Y107750D01*
X169347Y117669D02*
X177347D01*
X173347Y113669D02*
Y121669D01*
X197186Y117669D02*
X205186D01*
X201186Y113669D02*
Y121669D01*
X211508Y117252D02*
X219508D01*
X215508Y113252D02*
Y121252D01*
X225024Y117669D02*
X233024D01*
X229024Y113669D02*
Y121669D01*
X99750Y131588D02*
X107750D01*
X103750Y127588D02*
Y135588D01*
X155427Y131588D02*
X163427D01*
X159427Y127588D02*
Y135588D01*
X183266Y131588D02*
X191266D01*
X187266Y127588D02*
Y135588D01*
X113669Y145508D02*
X121669D01*
X117669Y141508D02*
Y149508D01*
X169347Y145508D02*
X177347D01*
X173347Y141508D02*
Y149508D01*
X190551Y143244D02*
X194551Y147244D01*
X190551Y151244*
X186551Y147244*
X190551Y143244*
Y147244D02*
Y151244D01*
X197186Y145508D02*
X205186D01*
X201186Y141508D02*
Y149508D01*
X99750Y159427D02*
X107750D01*
X103750Y155427D02*
Y163427D01*
X155427Y159427D02*
X163427D01*
X159427Y155427D02*
Y163427D01*
X183266Y159427D02*
X191266D01*
X187266Y155427D02*
Y163427D01*
X211105Y159427D02*
X219105D01*
X215105Y155427D02*
Y163427D01*
X266783Y159427D02*
X274783D01*
X270783Y155427D02*
Y163427D01*
X190157Y166122D02*
X194157Y170122D01*
X190157Y174122*
X186157Y170122*
X190157Y166122*
Y170122D02*
Y174122D01*
X225024Y173347D02*
X233024D01*
X229024Y169347D02*
Y177347D01*
X259780Y177559D02*
X267780D01*
X263780Y173559D02*
Y181559D01*
X254268Y175591D02*
X262268D01*
X258268Y171591D02*
Y179591D01*
X294622Y103750D02*
X302622D01*
X298622Y99750D02*
Y107750D01*
X338573Y134634D02*
X346573D01*
X342573Y130634D02*
Y138634D01*
X325842Y117986D02*
X333842D01*
X329842Y113986D02*
Y121986D01*
X350299Y131588D02*
X358299D01*
X354299Y127588D02*
Y135588D01*
X350299Y103750D02*
X358299D01*
X354299Y99750D02*
Y107750D01*
X336380Y117669D02*
X344380D01*
X340380Y113669D02*
Y121669D01*
X322460Y131588D02*
X330460D01*
X326460Y127588D02*
Y135588D01*
X322460Y103750D02*
X330460D01*
X326460Y99750D02*
Y107750D01*
X308541Y117669D02*
X316541D01*
X312541Y113669D02*
Y121669D01*
X113822Y212734D02*
X121822D01*
X117822Y208734D02*
Y216734D01*
X127588Y215105D02*
X135588D01*
X131588Y211105D02*
Y219105D01*
X113669Y201186D02*
X121669D01*
X117669Y197186D02*
Y205186D01*
X99750Y215105D02*
X107750D01*
X103750Y211105D02*
Y219105D01*
X99750Y187266D02*
X107750D01*
X103750Y183266D02*
Y191266D01*
X211105Y215105D02*
X219105D01*
X215105Y211105D02*
Y219105D01*
X197186Y201186D02*
X205186D01*
X201186Y197186D02*
Y205186D01*
X181933Y195606D02*
X185933Y199606D01*
X181933Y203606*
X177933Y199606*
X181933Y195606*
Y199606D02*
Y203606D01*
X208268Y190882D02*
X212268Y194882D01*
X208268Y198882*
X204268Y194882*
X208268Y190882*
Y194882D02*
Y198882D01*
X207874Y197181D02*
X211874Y201181D01*
X207874Y205181*
X203874Y201181*
X207874Y197181*
Y201181D02*
Y205181D01*
X239701Y188976D02*
X247701D01*
X243701Y184976D02*
Y192976D01*
X280059Y164258D02*
X288059D01*
X284059Y160258D02*
Y168258D01*
X227290Y184470D02*
X235290D01*
X231290Y180470D02*
Y188470D01*
X294622Y159427D02*
X302622D01*
X298622Y155427D02*
Y163427D01*
X280702Y145508D02*
X288702D01*
X284702Y141508D02*
Y149508D01*
X259780Y188583D02*
X267780D01*
X263780Y184583D02*
Y192583D01*
X285827Y173165D02*
X289827Y177165D01*
X285827Y181165*
X281827Y177165*
X285827Y173165*
Y177165D02*
Y181165D01*
X244094Y194031D02*
X248094Y198031D01*
X244094Y202031*
X240094Y198031*
X244094Y194031*
Y198031D02*
Y202031D01*
X240551Y200331D02*
X244551Y204331D01*
X240551Y208331*
X236551Y204331*
X240551Y200331*
Y204331D02*
Y208331D01*
X264173Y197181D02*
X268173Y201181D01*
X264173Y205181*
X260173Y201181*
X264173Y197181*
Y201181D02*
Y205181D01*
X250331Y208661D02*
X258331D01*
X254331Y204661D02*
Y212661D01*
X283752Y210630D02*
X291752D01*
X287752Y206630D02*
Y214630D01*
X287339Y207480D02*
X295339D01*
X291339Y203480D02*
Y211480D01*
X274346Y202362D02*
X282346D01*
X278346Y198362D02*
Y206362D01*
X240882Y203937D02*
X248882D01*
X244882Y199937D02*
Y207937D01*
X338573Y158138D02*
X346573D01*
X342573Y154138D02*
Y162138D01*
X327556Y145407D02*
X335556D01*
X331556Y141407D02*
Y149407D01*
X364219Y145508D02*
X372219D01*
X368219Y141508D02*
Y149508D01*
X350299Y159427D02*
X358299D01*
X354299Y155427D02*
Y163427D01*
X336380Y173347D02*
X344380D01*
X340380Y169347D02*
Y177347D01*
X336380Y145508D02*
X344380D01*
X340380Y141508D02*
Y149508D01*
X322460Y187266D02*
X330460D01*
X326460Y183266D02*
Y191266D01*
X322460Y159427D02*
X330460D01*
X326460Y155427D02*
Y163427D01*
X114311Y274186D02*
X122311D01*
X118311Y270186D02*
Y278186D01*
X114556Y247255D02*
X122556D01*
X118556Y243255D02*
Y251255D01*
X127588Y242944D02*
X135588D01*
X131588Y238944D02*
Y246944D01*
X113669Y284702D02*
X121669D01*
X117669Y280702D02*
Y288702D01*
X113669Y256863D02*
X121669D01*
X117669Y252863D02*
Y260863D01*
X113669Y229024D02*
X121669D01*
X117669Y225024D02*
Y233024D01*
X99750Y298622D02*
X107750D01*
X103750Y294622D02*
Y302622D01*
X99750Y270783D02*
X107750D01*
X103750Y266783D02*
Y274783D01*
X99750Y242944D02*
X107750D01*
X103750Y238944D02*
Y246944D01*
X177966Y296955D02*
X185966D01*
X181966Y292955D02*
Y300955D01*
X211105Y298622D02*
X219105D01*
X215105Y294622D02*
Y302622D01*
X211105Y270783D02*
X219105D01*
X215105Y266783D02*
Y274783D01*
X211105Y242944D02*
X219105D01*
X215105Y238944D02*
Y246944D01*
X197186Y284702D02*
X205186D01*
X201186Y280702D02*
Y288702D01*
X197186Y256863D02*
X205186D01*
X201186Y252863D02*
Y260863D01*
X197186Y229024D02*
X205186D01*
X201186Y225024D02*
Y233024D01*
X183266Y298622D02*
X191266D01*
X187266Y294622D02*
Y302622D01*
X183266Y270783D02*
X191266D01*
X187266Y266783D02*
Y274783D01*
X183266Y242944D02*
X191266D01*
X187266Y238944D02*
Y246944D01*
X169347Y284702D02*
X177347D01*
X173347Y280702D02*
Y288702D01*
X169347Y256863D02*
X177347D01*
X173347Y252863D02*
Y260863D01*
X155427Y298622D02*
X163427D01*
X159427Y294622D02*
Y302622D01*
X179921Y249543D02*
X183921Y253543D01*
X179921Y257543*
X175921Y253543*
X179921Y249543*
Y253543D02*
Y257543D01*
X195606Y222835D02*
X203606D01*
X199606Y218835D02*
Y226835D01*
X280702Y256863D02*
X288702D01*
X284702Y252863D02*
Y260863D01*
X280702Y229024D02*
X288702D01*
X284702Y225024D02*
Y233024D01*
X252863Y284702D02*
X260863D01*
X256863Y280702D02*
Y288702D01*
X225024Y284702D02*
X233024D01*
X229024Y280702D02*
Y288702D01*
X225024Y256863D02*
X233024D01*
X229024Y252863D02*
Y260863D01*
X285433Y268441D02*
X289433Y272441D01*
X285433Y276441*
X281433Y272441*
X285433Y268441*
Y272441D02*
Y276441D01*
X243776Y268898D02*
X251776D01*
X247776Y264898D02*
Y272898D01*
X233776Y268504D02*
X241776D01*
X237776Y264504D02*
Y272504D01*
X285039Y231433D02*
X289039Y235433D01*
X285039Y239433*
X281039Y235433*
X285039Y231433*
Y235433D02*
Y239433D01*
X253480Y275197D02*
X261480D01*
X257480Y271197D02*
Y279197D01*
X268441Y277559D02*
X276441D01*
X272441Y273559D02*
Y281559D01*
X274346Y289370D02*
X282346D01*
X278346Y285370D02*
Y293370D01*
X220760Y222835D02*
X228760D01*
X224760Y218835D02*
Y226835D01*
X257461Y277559D02*
X265461D01*
X261461Y273559D02*
Y281559D01*
X364219Y229024D02*
X372219D01*
X368219Y225024D02*
Y233024D01*
X350299Y270783D02*
X358299D01*
X354299Y266783D02*
Y274783D01*
X322460Y298622D02*
X330460D01*
X326460Y294622D02*
Y302622D01*
X322460Y270783D02*
X330460D01*
X326460Y266783D02*
Y274783D01*
X322460Y242944D02*
X330460D01*
X326460Y238944D02*
Y246944D01*
X341732Y285764D02*
X345732Y289764D01*
X341732Y293764*
X337732Y289764*
X341732Y285764*
Y289764D02*
Y293764D01*
X313280Y263780D02*
X321280D01*
X317280Y259780D02*
Y267780D01*
X111373Y301607D02*
X119373D01*
X115373Y297607D02*
Y305607D01*
X127588Y354299D02*
X135588D01*
X131588Y350299D02*
Y358299D01*
X127588Y326460D02*
X135588D01*
X131588Y322460D02*
Y330460D01*
X113669Y340380D02*
X121669D01*
X117669Y336380D02*
Y344380D01*
X113669Y312541D02*
X121669D01*
X117669Y308541D02*
Y316541D01*
X99750Y354299D02*
X107750D01*
X103750Y350299D02*
Y358299D01*
X99750Y326460D02*
X107750D01*
X103750Y322460D02*
Y330460D01*
X138060Y348369D02*
X146060D01*
X142060Y344369D02*
Y352369D01*
X148342Y341514D02*
X156342D01*
X152342Y337514D02*
Y345514D01*
X159604Y351307D02*
X167604D01*
X163604Y347307D02*
Y355307D01*
X178456Y342983D02*
X186456D01*
X182456Y338983D02*
Y346983D01*
X204897Y348614D02*
X212897D01*
X208897Y344614D02*
Y352614D01*
X164991Y325110D02*
X172991D01*
X168991Y321110D02*
Y329110D01*
X177722Y328538D02*
X185722D01*
X181722Y324538D02*
Y332538D01*
X211105Y354299D02*
X219105D01*
X215105Y350299D02*
Y358299D01*
X211105Y326460D02*
X219105D01*
X215105Y322460D02*
Y330460D01*
X197186Y368219D02*
X205186D01*
X201186Y364219D02*
Y372219D01*
X197186Y340380D02*
X205186D01*
X201186Y336380D02*
Y344380D01*
X197186Y312541D02*
X205186D01*
X201186Y308541D02*
Y316541D01*
X183266Y354299D02*
X191266D01*
X187266Y350299D02*
Y358299D01*
X183266Y326460D02*
X191266D01*
X187266Y322460D02*
Y330460D01*
X169347Y368219D02*
X177347D01*
X173347Y364219D02*
Y372219D01*
X169347Y340380D02*
X177347D01*
X173347Y336380D02*
Y344380D01*
X169347Y312541D02*
X177347D01*
X173347Y308541D02*
Y316541D01*
X155427Y354299D02*
X163427D01*
X159427Y350299D02*
Y358299D01*
X155427Y326460D02*
X163427D01*
X159427Y322460D02*
Y330460D01*
X141508Y368219D02*
X149508D01*
X145508Y364219D02*
Y372219D01*
X141508Y340380D02*
X149508D01*
X145508Y336380D02*
Y344380D01*
X141508Y312541D02*
X149508D01*
X145508Y308541D02*
Y316541D01*
X295973Y337596D02*
X303973D01*
X299973Y333596D02*
Y341596D01*
X294622Y354299D02*
X302622D01*
X298622Y350299D02*
Y358299D01*
X294622Y326460D02*
X302622D01*
X298622Y322460D02*
Y330460D01*
X280702Y368219D02*
X288702D01*
X284702Y364219D02*
Y372219D01*
X280702Y340380D02*
X288702D01*
X284702Y336380D02*
Y344380D01*
X280702Y312541D02*
X288702D01*
X284702Y308541D02*
Y316541D01*
X266783Y354299D02*
X274783D01*
X270783Y350299D02*
Y358299D01*
X266783Y326460D02*
X274783D01*
X270783Y322460D02*
Y330460D01*
X252863Y368219D02*
X260863D01*
X256863Y364219D02*
Y372219D01*
X252863Y340380D02*
X260863D01*
X256863Y336380D02*
Y344380D01*
X252863Y312541D02*
X260863D01*
X256863Y308541D02*
Y316541D01*
X225024Y368219D02*
X233024D01*
X229024Y364219D02*
Y372219D01*
X225024Y340380D02*
X233024D01*
X229024Y336380D02*
Y344380D01*
X225024Y312541D02*
X233024D01*
X229024Y308541D02*
Y316541D01*
X261461Y302693D02*
X265461Y306693D01*
X261461Y310693*
X257461Y306693*
X261461Y302693*
Y306693D02*
Y310693D01*
X252776Y304661D02*
X256776Y308661D01*
X252776Y312661*
X248776Y308661*
X252776Y304661*
Y308661D02*
Y312661D01*
X326087Y322907D02*
X334087D01*
X330087Y318907D02*
Y326907D01*
X327066Y335148D02*
X335066D01*
X331066Y331148D02*
Y339148D01*
X349835Y342493D02*
X357835D01*
X353835Y338493D02*
Y346493D01*
X356201Y316052D02*
X364201D01*
X360201Y312052D02*
Y320052D01*
X306746Y325355D02*
X314746D01*
X310746Y321355D02*
Y329355D01*
X308215Y354245D02*
X316215D01*
X312215Y350245D02*
Y358245D01*
X364219Y340380D02*
X372219D01*
X368219Y336380D02*
Y344380D01*
X364219Y312541D02*
X372219D01*
X368219Y308541D02*
Y316541D01*
X350299Y326460D02*
X358299D01*
X354299Y322460D02*
Y330460D01*
X336380Y368219D02*
X344380D01*
X340380Y364219D02*
Y372219D01*
X336380Y340380D02*
X344380D01*
X340380Y336380D02*
Y344380D01*
X336380Y312541D02*
X344380D01*
X340380Y308541D02*
Y316541D01*
X322460Y354299D02*
X330460D01*
X326460Y350299D02*
Y358299D01*
X322460Y326460D02*
X330460D01*
X326460Y322460D02*
Y330460D01*
X308541Y368219D02*
X316541D01*
X312541Y364219D02*
Y372219D01*
X308541Y340380D02*
X316541D01*
X312541Y336380D02*
Y344380D01*
X308541Y312541D02*
X316541D01*
X312541Y308541D02*
Y316541D01*
X317323Y302693D02*
X321323Y306693D01*
X317323Y310693*
X313323Y306693*
X317323Y302693*
Y306693D02*
Y310693D01*
X454331Y292000D02*
X712331D01*
X454331Y268000D02*
X712331D01*
X454331Y244000D02*
X712331D01*
X454331Y220000D02*
X712331D01*
X454331Y196000D02*
X712331D01*
X454331Y172000D02*
X712331D01*
X454331Y148000D02*
X712331D01*
X454331Y124000D02*
X712331D01*
X454331Y100000D02*
X712331D01*
X454331Y292000D02*
Y100000D01*
X538331Y292000D02*
Y100000D01*
X574331Y292000D02*
Y100000D01*
X610331Y292000D02*
Y100000D01*
X664331Y292000D02*
Y100000D01*
X712331Y292000D02*
Y100000D01*
X489831Y280750D02*
X489285Y281500D01*
X488467Y281875*
X487376*
X486558Y281500*
X486013Y280750*
Y280000*
X486285Y279250*
X486558Y278875*
X487103Y278500*
X488740Y277750*
X489285Y277375*
X489558Y277000*
X489831Y276250*
Y275125*
X489285Y274375*
X488467Y274000*
X487376*
X486558Y274375*
X486013Y275125*
X492285Y281875D02*
Y274000D01*
X498558Y281875D02*
X494740Y274000D01*
Y281875D02*
X498558D01*
X494740Y274000D02*
X498558D01*
X501013Y281875D02*
Y274000D01*
Y281875D02*
X504558D01*
X501013Y278125D02*
X503194D01*
X501013Y274000D02*
X504558D01*
X548194Y281875D02*
X547649Y281500D01*
X547103Y280750*
X546831Y280000*
X546558Y278875*
Y277000*
X546831Y275875*
X547103Y275125*
X547649Y274375*
X548194Y274000*
X549285*
X549831Y274375*
X550376Y275125*
X550649Y275875*
X550922Y277000*
Y278875*
X550649Y280000*
X550376Y280750*
X549831Y281500*
X549285Y281875*
X548194*
X549013Y275500D02*
X550649Y273250D01*
X555285Y281875D02*
Y274000D01*
X553376Y281875D02*
X557194D01*
X559649D02*
X561831Y278125D01*
Y274000*
X564013Y281875D02*
X561831Y278125D01*
X586376Y280750D02*
X585831Y281500D01*
X585013Y281875*
X583922*
X583103Y281500*
X582558Y280750*
Y280000*
X582831Y279250*
X583103Y278875*
X583649Y278500*
X585285Y277750*
X585831Y277375*
X586103Y277000*
X586376Y276250*
Y275125*
X585831Y274375*
X585013Y274000*
X583922*
X583103Y274375*
X582558Y275125*
X588831Y281875D02*
X591013Y278125D01*
Y274000*
X593194Y281875D02*
X591013Y278125D01*
X595649Y281875D02*
Y274000D01*
Y281875D02*
X597831Y274000D01*
X600013Y281875D02*
X597831Y274000D01*
X600013Y281875D02*
Y274000D01*
X621831Y281875D02*
Y274000D01*
Y281875D02*
X624285D01*
X625103Y281500*
X625376Y281125*
X625649Y280375*
Y279250*
X625376Y278500*
X625103Y278125*
X624285Y277750*
X621831*
X628103Y281875D02*
Y274000D01*
X631376*
X636013Y281875D02*
X633831Y274000D01*
X636013Y281875D02*
X638194Y274000D01*
X634649Y276625D02*
X637376D01*
X642558Y281875D02*
Y274000D01*
X640649Y281875D02*
X644467D01*
X646922D02*
Y274000D01*
Y281875D02*
X650467D01*
X646922Y278125D02*
X649103D01*
X646922Y274000D02*
X650467D01*
X652922Y281875D02*
Y274000D01*
Y281875D02*
X654831D01*
X655649Y281500*
X656194Y280750*
X656467Y280000*
X656740Y278875*
Y277000*
X656467Y275875*
X656194Y275125*
X655649Y274375*
X654831Y274000*
X652922*
X681013Y281875D02*
Y274000D01*
X679103Y281875D02*
X682922D01*
X687013D02*
X686467Y281500D01*
X685922Y280750*
X685649Y280000*
X685376Y278875*
Y277000*
X685649Y275875*
X685922Y275125*
X686467Y274375*
X687013Y274000*
X688103*
X688649Y274375*
X689194Y275125*
X689467Y275875*
X689740Y277000*
Y278875*
X689467Y280000*
X689194Y280750*
X688649Y281500*
X688103Y281875*
X687013*
X692194D02*
Y274000D01*
X695467*
X461967Y257875D02*
X461149Y257500D01*
X460603Y256375*
X460331Y254500*
Y253375*
X460603Y251500*
X461149Y250375*
X461967Y250000*
X462513*
X463331Y250375*
X463876Y251500*
X464149Y253375*
Y254500*
X463876Y256375*
X463331Y257500*
X462513Y257875*
X461967*
X466876Y250750D02*
X466603Y250375D01*
X466876Y250000*
X467149Y250375*
X466876Y250750*
X470149Y257875D02*
X473149D01*
X471513Y254875*
X472331*
X472876Y254500*
X473149Y254125*
X473422Y253000*
Y252250*
X473149Y251125*
X472603Y250375*
X471785Y250000*
X470967*
X470149Y250375*
X469876Y250750*
X469603Y251500*
X548467Y256375D02*
X549013Y256750D01*
X549831Y257875*
Y250000*
X555558Y256750D02*
X555285Y257500D01*
X554467Y257875*
X553922*
X553103Y257500*
X552558Y256375*
X552285Y254500*
Y252625*
X552558Y251125*
X553103Y250375*
X553922Y250000*
X554194*
X555013Y250375*
X555558Y251125*
X555831Y252250*
Y252625*
X555558Y253750*
X555013Y254500*
X554194Y254875*
X553922*
X553103Y254500*
X552558Y253750*
X552285Y252625*
X559922Y257875D02*
X559103Y257500D01*
X558558Y256375*
X558285Y254500*
Y253375*
X558558Y251500*
X559103Y250375*
X559922Y250000*
X560467*
X561285Y250375*
X561831Y251500*
X562103Y253375*
Y254500*
X561831Y256375*
X561285Y257500*
X560467Y257875*
X559922*
X586331Y256000D02*
X598331D01*
X592331Y250000D02*
Y262000D01*
X618967Y257875D02*
X621149Y254125D01*
Y250000*
X623331Y257875D02*
X621149Y254125D01*
X625785Y257875D02*
Y250000D01*
Y257875D02*
X629331D01*
X625785Y254125D02*
X627967D01*
X625785Y250000D02*
X629331D01*
X635603Y256750D02*
X635058Y257500D01*
X634240Y257875*
X633149*
X632331Y257500*
X631785Y256750*
Y256000*
X632058Y255250*
X632331Y254875*
X632876Y254500*
X634513Y253750*
X635058Y253375*
X635331Y253000*
X635603Y252250*
Y251125*
X635058Y250375*
X634240Y250000*
X633149*
X632331Y250375*
X631785Y251125*
X672149Y256750D02*
Y250000D01*
X669694Y253375D02*
X674603D01*
X681967Y259375D02*
X677058Y247375D01*
X684422Y253375D02*
X689331D01*
X693422Y257875D02*
X692603Y257500D01*
X692058Y256375*
X691785Y254500*
Y253375*
X692058Y251500*
X692603Y250375*
X693422Y250000*
X693967*
X694785Y250375*
X695331Y251500*
X695603Y253375*
Y254500*
X695331Y256375*
X694785Y257500*
X693967Y257875*
X693422*
X698331Y250750D02*
X698058Y250375D01*
X698331Y250000*
X698603Y250375*
X698331Y250750*
X702694Y257875D02*
X701876Y257500D01*
X701331Y256375*
X701058Y254500*
Y253375*
X701331Y251500*
X701876Y250375*
X702694Y250000*
X703240*
X704058Y250375*
X704603Y251500*
X704876Y253375*
Y254500*
X704603Y256375*
X704058Y257500*
X703240Y257875*
X702694*
X460876Y233875D02*
X463876D01*
X462240Y230875*
X463058*
X463603Y230500*
X463876Y230125*
X464149Y229000*
Y228250*
X463876Y227125*
X463331Y226375*
X462513Y226000*
X461694*
X460876Y226375*
X460603Y226750*
X460331Y227500*
X466876Y226750D02*
X466603Y226375D01*
X466876Y226000*
X467149Y226375*
X466876Y226750*
X473149Y233875D02*
X470422D01*
X470149Y230500*
X470422Y230875*
X471240Y231250*
X472058*
X472876Y230875*
X473422Y230125*
X473694Y229000*
X473422Y228250*
X473149Y227125*
X472603Y226375*
X471785Y226000*
X470967*
X470149Y226375*
X469876Y226750*
X469603Y227500*
X555967Y233875D02*
X553240Y228625D01*
X557331*
X555967Y233875D02*
Y226000D01*
X586331D02*
X598331Y238000D01*
X586331D02*
X598331Y226000D01*
X621967Y233875D02*
Y226000D01*
Y233875D02*
X625785Y226000D01*
Y233875D02*
Y226000D01*
X629876Y233875D02*
X629331Y233500D01*
X628785Y232750*
X628513Y232000*
X628240Y230875*
Y229000*
X628513Y227875*
X628785Y227125*
X629331Y226375*
X629876Y226000*
X630967*
X631513Y226375*
X632058Y227125*
X632331Y227875*
X632603Y229000*
Y230875*
X632331Y232000*
X632058Y232750*
X631513Y233500*
X630967Y233875*
X629876*
X672149Y232750D02*
Y226000D01*
X669694Y229375D02*
X674603D01*
X681967Y235375D02*
X677058Y223375D01*
X684422Y229375D02*
X689331D01*
X693422Y233875D02*
X692603Y233500D01*
X692058Y232375*
X691785Y230500*
Y229375*
X692058Y227500*
X692603Y226375*
X693422Y226000*
X693967*
X694785Y226375*
X695331Y227500*
X695603Y229375*
Y230500*
X695331Y232375*
X694785Y233500*
X693967Y233875*
X693422*
X698331Y226750D02*
X698058Y226375D01*
X698331Y226000*
X698603Y226375*
X698331Y226750*
X702694Y233875D02*
X701876Y233500D01*
X701331Y232375*
X701058Y230500*
Y229375*
X701331Y227500*
X701876Y226375*
X702694Y226000*
X703240*
X704058Y226375*
X704603Y227500*
X704876Y229375*
Y230500*
X704603Y232375*
X704058Y233500*
X703240Y233875*
X702694*
X460331Y208375D02*
X460876Y208750D01*
X461694Y209875*
Y202000*
X553649Y209875D02*
X550922D01*
X550649Y206500*
X550922Y206875*
X551740Y207250*
X552558*
X553376Y206875*
X553922Y206125*
X554194Y205000*
X553922Y204250*
X553649Y203125*
X553103Y202375*
X552285Y202000*
X551467*
X550649Y202375*
X550376Y202750*
X550103Y203500*
X557194Y209875D02*
X560194D01*
X558558Y206875*
X559376*
X559922Y206500*
X560194Y206125*
X560467Y205000*
Y204250*
X560194Y203125*
X559649Y202375*
X558831Y202000*
X558013*
X557194Y202375*
X556922Y202750*
X556649Y203500*
X586331Y202000D02*
X598331D01*
Y214000*
X586331*
Y202000*
X592331Y208000D02*
Y214000D01*
X618967Y209875D02*
X621149Y206125D01*
Y202000*
X623331Y209875D02*
X621149Y206125D01*
X625785Y209875D02*
Y202000D01*
Y209875D02*
X629331D01*
X625785Y206125D02*
X627967D01*
X625785Y202000D02*
X629331D01*
X635603Y208750D02*
X635058Y209500D01*
X634240Y209875*
X633149*
X632331Y209500*
X631785Y208750*
Y208000*
X632058Y207250*
X632331Y206875*
X632876Y206500*
X634513Y205750*
X635058Y205375*
X635331Y205000*
X635603Y204250*
Y203125*
X635058Y202375*
X634240Y202000*
X633149*
X632331Y202375*
X631785Y203125*
X672149Y208750D02*
Y202000D01*
X669694Y205375D02*
X674603D01*
X681967Y211375D02*
X677058Y199375D01*
X684422Y205375D02*
X689331D01*
X693422Y209875D02*
X692603Y209500D01*
X692058Y208375*
X691785Y206500*
Y205375*
X692058Y203500*
X692603Y202375*
X693422Y202000*
X693967*
X694785Y202375*
X695331Y203500*
X695603Y205375*
Y206500*
X695331Y208375*
X694785Y209500*
X693967Y209875*
X693422*
X698331Y202750D02*
X698058Y202375D01*
X698331Y202000*
X698603Y202375*
X698331Y202750*
X702694Y209875D02*
X701876Y209500D01*
X701331Y208375*
X701058Y206500*
Y205375*
X701331Y203500*
X701876Y202375*
X702694Y202000*
X703240*
X704058Y202375*
X704603Y203500*
X704876Y205375*
Y206500*
X704603Y208375*
X704058Y209500*
X703240Y209875*
X702694*
X461967Y185875D02*
X461149Y185500D01*
X460603Y184375*
X460331Y182500*
Y181375*
X460603Y179500*
X461149Y178375*
X461967Y178000*
X462513*
X463331Y178375*
X463876Y179500*
X464149Y181375*
Y182500*
X463876Y184375*
X463331Y185500*
X462513Y185875*
X461967*
X466876Y178750D02*
X466603Y178375D01*
X466876Y178000*
X467149Y178375*
X466876Y178750*
X473149Y185875D02*
X470422D01*
X470149Y182500*
X470422Y182875*
X471240Y183250*
X472058*
X472876Y182875*
X473422Y182125*
X473694Y181000*
X473422Y180250*
X473149Y179125*
X472603Y178375*
X471785Y178000*
X470967*
X470149Y178375*
X469876Y178750*
X469603Y179500*
X551603Y184375D02*
X552149Y184750D01*
X552967Y185875*
Y178000*
X558694Y184750D02*
X558422Y185500D01*
X557603Y185875*
X557058*
X556240Y185500*
X555694Y184375*
X555422Y182500*
Y180625*
X555694Y179125*
X556240Y178375*
X557058Y178000*
X557331*
X558149Y178375*
X558694Y179125*
X558967Y180250*
Y180625*
X558694Y181750*
X558149Y182500*
X557331Y182875*
X557058*
X556240Y182500*
X555694Y181750*
X555422Y180625*
X592331Y178000D02*
X598331Y184000D01*
X592331Y190000*
X586331Y184000*
X592331Y178000*
Y184000D02*
Y190000D01*
X618967Y185875D02*
X621149Y182125D01*
Y178000*
X623331Y185875D02*
X621149Y182125D01*
X625785Y185875D02*
Y178000D01*
Y185875D02*
X629331D01*
X625785Y182125D02*
X627967D01*
X625785Y178000D02*
X629331D01*
X635603Y184750D02*
X635058Y185500D01*
X634240Y185875*
X633149*
X632331Y185500*
X631785Y184750*
Y184000*
X632058Y183250*
X632331Y182875*
X632876Y182500*
X634513Y181750*
X635058Y181375*
X635331Y181000*
X635603Y180250*
Y179125*
X635058Y178375*
X634240Y178000*
X633149*
X632331Y178375*
X631785Y179125*
X672149Y184750D02*
Y178000D01*
X669694Y181375D02*
X674603D01*
X681967Y187375D02*
X677058Y175375D01*
X684422Y181375D02*
X689331D01*
X693422Y185875D02*
X692603Y185500D01*
X692058Y184375*
X691785Y182500*
Y181375*
X692058Y179500*
X692603Y178375*
X693422Y178000*
X693967*
X694785Y178375*
X695331Y179500*
X695603Y181375*
Y182500*
X695331Y184375*
X694785Y185500*
X693967Y185875*
X693422*
X698331Y178750D02*
X698058Y178375D01*
X698331Y178000*
X698603Y178375*
X698331Y178750*
X702694Y185875D02*
X701876Y185500D01*
X701331Y184375*
X701058Y182500*
Y181375*
X701331Y179500*
X701876Y178375*
X702694Y178000*
X703240*
X704058Y178375*
X704603Y179500*
X704876Y181375*
Y182500*
X704603Y184375*
X704058Y185500*
X703240Y185875*
X702694*
X461967Y161875D02*
X461149Y161500D01*
X460603Y160375*
X460331Y158500*
Y157375*
X460603Y155500*
X461149Y154375*
X461967Y154000*
X462513*
X463331Y154375*
X463876Y155500*
X464149Y157375*
Y158500*
X463876Y160375*
X463331Y161500*
X462513Y161875*
X461967*
X466876Y154750D02*
X466603Y154375D01*
X466876Y154000*
X467149Y154375*
X466876Y154750*
X473422Y161875D02*
X470694Y154000D01*
X469603Y161875D02*
X473422D01*
X553649Y160000D02*
Y160375D01*
X553922Y161125*
X554194Y161500*
X554740Y161875*
X555831*
X556376Y161500*
X556649Y161125*
X556922Y160375*
Y159625*
X556649Y158875*
X556103Y157750*
X553376Y154000*
X557194*
X586331D02*
X598331D01*
X586331Y166000*
X598331*
X586331Y154000*
X618967Y161875D02*
X621149Y158125D01*
Y154000*
X623331Y161875D02*
X621149Y158125D01*
X625785Y161875D02*
Y154000D01*
Y161875D02*
X629331D01*
X625785Y158125D02*
X627967D01*
X625785Y154000D02*
X629331D01*
X635603Y160750D02*
X635058Y161500D01*
X634240Y161875*
X633149*
X632331Y161500*
X631785Y160750*
Y160000*
X632058Y159250*
X632331Y158875*
X632876Y158500*
X634513Y157750*
X635058Y157375*
X635331Y157000*
X635603Y156250*
Y155125*
X635058Y154375*
X634240Y154000*
X633149*
X632331Y154375*
X631785Y155125*
X672149Y160750D02*
Y154000D01*
X669694Y157375D02*
X674603D01*
X681967Y163375D02*
X677058Y151375D01*
X684422Y157375D02*
X689331D01*
X693422Y161875D02*
X692603Y161500D01*
X692058Y160375*
X691785Y158500*
Y157375*
X692058Y155500*
X692603Y154375*
X693422Y154000*
X693967*
X694785Y154375*
X695331Y155500*
X695603Y157375*
Y158500*
X695331Y160375*
X694785Y161500*
X693967Y161875*
X693422*
X698331Y154750D02*
X698058Y154375D01*
X698331Y154000*
X698603Y154375*
X698331Y154750*
X702694Y161875D02*
X701876Y161500D01*
X701331Y160375*
X701058Y158500*
Y157375*
X701331Y155500*
X701876Y154375*
X702694Y154000*
X703240*
X704058Y154375*
X704603Y155500*
X704876Y157375*
Y158500*
X704603Y160375*
X704058Y161500*
X703240Y161875*
X702694*
X461967Y137875D02*
X461149Y137500D01*
X460603Y136375*
X460331Y134500*
Y133375*
X460603Y131500*
X461149Y130375*
X461967Y130000*
X462513*
X463331Y130375*
X463876Y131500*
X464149Y133375*
Y134500*
X463876Y136375*
X463331Y137500*
X462513Y137875*
X461967*
X466876Y130750D02*
X466603Y130375D01*
X466876Y130000*
X467149Y130375*
X466876Y130750*
X470967Y137875D02*
X470149Y137500D01*
X469876Y136750*
Y136000*
X470149Y135250*
X470694Y134875*
X471785Y134500*
X472603Y134125*
X473149Y133375*
X473422Y132625*
Y131500*
X473149Y130750*
X472876Y130375*
X472058Y130000*
X470967*
X470149Y130375*
X469876Y130750*
X469603Y131500*
Y132625*
X469876Y133375*
X470422Y134125*
X471240Y134500*
X472331Y134875*
X472876Y135250*
X473149Y136000*
Y136750*
X472876Y137500*
X472058Y137875*
X470967*
X553649Y136000D02*
Y136375D01*
X553922Y137125*
X554194Y137500*
X554740Y137875*
X555831*
X556376Y137500*
X556649Y137125*
X556922Y136375*
Y135625*
X556649Y134875*
X556103Y133750*
X553376Y130000*
X557194*
X586331D02*
X598331Y142000D01*
Y130000*
X586331Y142000*
Y130000*
X618967Y137875D02*
X621149Y134125D01*
Y130000*
X623331Y137875D02*
X621149Y134125D01*
X625785Y137875D02*
Y130000D01*
Y137875D02*
X629331D01*
X625785Y134125D02*
X627967D01*
X625785Y130000D02*
X629331D01*
X635603Y136750D02*
X635058Y137500D01*
X634240Y137875*
X633149*
X632331Y137500*
X631785Y136750*
Y136000*
X632058Y135250*
X632331Y134875*
X632876Y134500*
X634513Y133750*
X635058Y133375*
X635331Y133000*
X635603Y132250*
Y131125*
X635058Y130375*
X634240Y130000*
X633149*
X632331Y130375*
X631785Y131125*
X672149Y136750D02*
Y130000D01*
X669694Y133375D02*
X674603D01*
X681967Y139375D02*
X677058Y127375D01*
X684422Y133375D02*
X689331D01*
X693422Y137875D02*
X692603Y137500D01*
X692058Y136375*
X691785Y134500*
Y133375*
X692058Y131500*
X692603Y130375*
X693422Y130000*
X693967*
X694785Y130375*
X695331Y131500*
X695603Y133375*
Y134500*
X695331Y136375*
X694785Y137500*
X693967Y137875*
X693422*
X698331Y130750D02*
X698058Y130375D01*
X698331Y130000*
X698603Y130375*
X698331Y130750*
X702694Y137875D02*
X701876Y137500D01*
X701331Y136375*
X701058Y134500*
Y133375*
X701331Y131500*
X701876Y130375*
X702694Y130000*
X703240*
X704058Y130375*
X704603Y131500*
X704876Y133375*
Y134500*
X704603Y136375*
X704058Y137500*
X703240Y137875*
X702694*
X461967Y113875D02*
X461149Y113500D01*
X460603Y112375*
X460331Y110500*
Y109375*
X460603Y107500*
X461149Y106375*
X461967Y106000*
X462513*
X463331Y106375*
X463876Y107500*
X464149Y109375*
Y110500*
X463876Y112375*
X463331Y113500*
X462513Y113875*
X461967*
X466876Y106750D02*
X466603Y106375D01*
X466876Y106000*
X467149Y106375*
X466876Y106750*
X473422Y113875D02*
X470694Y106000D01*
X469603Y113875D02*
X473422D01*
X479422D02*
X476694D01*
X476422Y110500*
X476694Y110875*
X477513Y111250*
X478331*
X479149Y110875*
X479694Y110125*
X479967Y109000*
X479694Y108250*
X479422Y107125*
X478876Y106375*
X478058Y106000*
X477240*
X476422Y106375*
X476149Y106750*
X475876Y107500*
X553649Y112000D02*
Y112375D01*
X553922Y113125*
X554194Y113500*
X554740Y113875*
X555831*
X556376Y113500*
X556649Y113125*
X556922Y112375*
Y111625*
X556649Y110875*
X556103Y109750*
X553376Y106000*
X557194*
X586331Y112000D02*
X598331D01*
X592331Y106000D02*
Y118000D01*
X597076Y121300D02*
X595331Y115000D01*
X597076Y121300D02*
X598822Y115000D01*
X595985Y117100D02*
X598167D01*
X618967Y113875D02*
X621149Y110125D01*
Y106000*
X623331Y113875D02*
X621149Y110125D01*
X625785Y113875D02*
Y106000D01*
Y113875D02*
X629331D01*
X625785Y110125D02*
X627967D01*
X625785Y106000D02*
X629331D01*
X635603Y112750D02*
X635058Y113500D01*
X634240Y113875*
X633149*
X632331Y113500*
X631785Y112750*
Y112000*
X632058Y111250*
X632331Y110875*
X632876Y110500*
X634513Y109750*
X635058Y109375*
X635331Y109000*
X635603Y108250*
Y107125*
X635058Y106375*
X634240Y106000*
X633149*
X632331Y106375*
X631785Y107125*
X672149Y112750D02*
Y106000D01*
X669694Y109375D02*
X674603D01*
X681967Y115375D02*
X677058Y103375D01*
X684422Y109375D02*
X689331D01*
X693422Y113875D02*
X692603Y113500D01*
X692058Y112375*
X691785Y110500*
Y109375*
X692058Y107500*
X692603Y106375*
X693422Y106000*
X693967*
X694785Y106375*
X695331Y107500*
X695603Y109375*
Y110500*
X695331Y112375*
X694785Y113500*
X693967Y113875*
X693422*
X698331Y106750D02*
X698058Y106375D01*
X698331Y106000*
X698603Y106375*
X698331Y106750*
X702694Y113875D02*
X701876Y113500D01*
X701331Y112375*
X701058Y110500*
Y109375*
X701331Y107500*
X701876Y106375*
X702694Y106000*
X703240*
X704058Y106375*
X704603Y107500*
X704876Y109375*
Y110500*
X704603Y112375*
X704058Y113500*
X703240Y113875*
X702694*
X0Y0D02*
M02*
