%
T1C.01181F095S3
X010375Y010375
X010375Y013159
X011767Y014551
X010375Y015943
X010375Y018727
X011767Y020119
X011782Y021273
X010375Y021511
X011767Y022902
X010375Y024294
X011856Y024725
X011767Y025686
X010375Y027078
X011831Y027419
X011767Y02847
X010375Y029862
X011537Y030161
X011767Y031254
X010375Y032646
X011767Y034038
X010375Y03543
X014551Y036822
X017335Y036822
X013159Y03543
X015943Y03543
X01636Y035131
X014206Y034837
X015234Y034151
X014551Y034038
X017335Y034038
X013159Y032646
X015943Y032646
X016899Y032511
X014551Y031254
X017335Y031254
X015943Y029862
X017335Y02847
X017335Y025686
X013159Y024294
X013159Y021511
X015943Y015943
X017335Y014551
X015943Y013159
X017335Y011767
X013159Y010375
X015943Y010375
X018727Y010375
X020119Y011767
X018727Y013159
X020119Y014551
X018727Y015943
X020119Y020119
X019961Y022283
X020119Y022902
X018727Y024294
X020119Y025686
X018727Y027078
X020119Y02847
X018197Y029695
X018727Y029862
X020119Y031254
X018727Y032646
X018172Y032854
X020119Y034038
X018246Y034298
X018727Y03543
X020119Y036822
X021511Y03543
X02089Y034861
X021511Y032646
X021511Y029862
X021511Y027078
X021511Y024294
X022476Y022283
X021511Y021511
X021511Y015943
X021551Y011725
X021511Y010375
X024294Y010375
X022902Y011767
X022902Y017335
X023129Y018447
X02437Y018898
X024488Y020394
X022902Y025686
X023778Y02685
X024778Y02689
X022902Y02847
X022902Y031254
X022902Y034038
X022902Y036822
X025686Y036822
X027078Y03543
X025686Y034038
X027078Y032646
X025686Y031254
X027835Y028937
X025686Y02847
X026146Y027756
X027244Y027756
X025748Y02752
X025433Y020866
X027835Y020236
X026378Y018858
X026378Y017756
X025827Y017559
X027078Y015943
X029862Y010375
X02847Y014551
X029862Y015943
X028406Y016426
X029134Y020748
X028775Y021063
X02847Y022902
X02847Y025686
X02847Y031254
X029862Y032646
X029997Y03376
X02847Y034038
X029862Y03543
X02847Y036822
X031254Y036822
X032646Y03543
X031221Y035424
X031254Y034038
X032646Y032646
X031075Y032535
X031254Y031254
X032646Y029862
X032646Y027078
X031728Y026378
X032646Y024294
X032646Y018727
X032646Y015943
X032646Y013159
X031254Y011767
X032646Y010375
X034038Y011767
X032984Y011799
X034257Y013463
X033156Y014541
X034038Y014551
X034257Y015814
X034038Y017335
X034038Y031254
X033009Y032291
X033107Y033515
X034038Y034038
X034038Y036822
X035384Y034249
X036822Y034038
X03543Y032646
X03602Y031605
X036822Y031254
X03543Y027078
X036822Y022902
X03543Y015943
X036822Y014551
X03543Y013159
X03543Y010375
T2C.01969F095S3
X019055Y014724
X019016Y017012
X018193Y019961
X017992Y025354
X025278Y030866
X026146Y030669
X024055Y020433
X020787Y020118
X026417Y020118
X024409Y019803
X020827Y019488
X028583Y017717
X028504Y023543
X028543Y027244
X034173Y028976
X031732Y030669
T3C.02756F197S55
X027402Y021744
X027402Y022744
T4C.02953F197S55
X022697Y023071
X023681Y023071
T5C.0315F197S55
X013398Y029646
X014398Y029646
T6C.03937F197S55
X014618Y011772
X011024Y013189
X014626Y014606
X01122Y017323
X014449Y017323
X015118Y017323
X01111Y019331
X01511Y019331
X01372Y02622
X015098Y02622
X02278Y035591
X015787Y017323
X016457Y017323
X017126Y017323
X016004Y014606
X015618Y011772
X024354Y011469
X025354Y011469
X026354Y011469
X025354Y012469
X024354Y012469
X026354Y012469
X026575Y024764
X025039Y024882
X023819Y024961
X02685Y031024
X02478Y035591
X02378Y035591
X029843Y027283
X032677Y022913
X032677Y021929
X032677Y020906
X030335Y020728
X032677Y019882
X029961Y016929
X035984Y016673
X034882Y017913
X035945Y017913
X034697Y019902
X035697Y019902
X034697Y020902
X035697Y020902
X035697Y021902
X034697Y021902
X035697Y022902
X034697Y022902
X035697Y023902
X034697Y023902
X035697Y024902
X034697Y024902
X036417Y026575
X034961Y028228
X035039Y029449
T7C.1378F035S794
X011575Y011575
X011575Y035984
X035984Y035984
X035984Y011575
M30
