*
*
G04 PADS 9.4.1 Build Number: 494907 generated Gerber (RS-274-X) file*
G04 PC Version=2.1*
*
%IN "ATMEGA8-KSC.pcb"*%
*
%MOIN*%
*
%FSLAX35Y35*%
*
*
*
*
G04 PC Standard Apertures*
*
*
G04 Thermal Relief Aperture macro.*
%AMTER*
1,1,$1,0,0*
1,0,$1-$2,0,0*
21,0,$3,$4,0,0,45*
21,0,$3,$4,0,0,135*
%
*
*
G04 Annular Aperture macro.*
%AMANN*
1,1,$1,0,0*
1,0,$2,0,0*
%
*
*
G04 Odd Aperture macro.*
%AMODD*
1,1,$1,0,0*
1,0,$1-0.005,0,0*
%
*
*
G04 PC Custom Aperture Macros*
*
*
*
*
*
*
G04 PC Aperture Table*
*
%ADD010C,0.001*%
%ADD033C,0.00394*%
%ADD038C,0.01*%
*
*
*
*
G04 PC Circuitry*
G04 Layer Name ATMEGA8-KSC.pcb - circuitry*
%LPD*%
*
*
G04 PC Custom Flashes*
G04 Layer Name ATMEGA8-KSC.pcb - flashes*
%LPD*%
*
*
G04 PC Circuitry*
G04 Layer Name ATMEGA8-KSC.pcb - circuitry*
%LPD*%
*
G54D10*
G54D33*
G01X100000Y100000D02*
X375591D01*
Y375591*
X100000*
Y100000*
G54D38*
X190898Y362468D02*
X192717Y355906D01*
X190898Y362468D02*
X189080Y355906D01*
X192035Y358093D02*
X189762D01*
X185444Y362468D02*
Y355906D01*
X187035Y362468D02*
X183853D01*
X181807D02*
Y355906D01*
Y362468D02*
X179989Y355906D01*
X178171Y362468D02*
X179989Y355906D01*
X178171Y362468D02*
Y355906D01*
X176126Y362468D02*
Y355906D01*
Y362468D02*
X173171D01*
X176126Y359343D02*
X174307D01*
X176126Y355906D02*
X173171D01*
X167717Y360906D02*
X167944Y361531D01*
X168398Y362156*
X168853Y362468*
X169762*
X170217Y362156*
X170671Y361531*
X170898Y360906*
X171126Y359968*
Y358406*
X170898Y357468*
X170671Y356843*
X170217Y356218*
X169762Y355906*
X168853*
X168398Y356218*
X167944Y356843*
X167717Y357468*
Y358406*
X168853D02*
X167717D01*
X163853Y362468D02*
X165671Y355906D01*
X163853Y362468D02*
X162035Y355906D01*
X164989Y358093D02*
X162717D01*
X158853Y362468D02*
X159535Y362156D01*
X159762Y361531*
Y360906*
X159535Y360281*
X159080Y359968*
X158171Y359656*
X157489Y359343*
X157035Y358718*
X156807Y358093*
Y357156*
X157035Y356531*
X157262Y356218*
X157944Y355906*
X158853*
X159535Y356218*
X159762Y356531*
X159989Y357156*
Y358093*
X159762Y358718*
X159307Y359343*
X158626Y359656*
X157717Y359968*
X157262Y360281*
X157035Y360906*
Y361531*
X157262Y362156*
X157944Y362468*
X158853*
X192883Y347520D02*
Y347832D01*
X192656Y348457*
X192428Y348770*
X191974Y349082*
X191065*
X190610Y348770*
X190383Y348457*
X190156Y347832*
Y347207*
X190383Y346582*
X190838Y345645*
X193110Y342520*
X189928*
X186519Y349082D02*
X187201Y348770D01*
X187656Y347832*
X187883Y346270*
Y345332*
X187656Y343770*
X187201Y342832*
X186519Y342520*
X186065*
X185383Y342832*
X184928Y343770*
X184701Y345332*
Y346270*
X184928Y347832*
X185383Y348770*
X186065Y349082*
X186519*
X182428Y347520D02*
Y347832D01*
X182201Y348457*
X181974Y348770*
X181519Y349082*
X180610*
X180156Y348770*
X179928Y348457*
X179701Y347832*
Y347207*
X179928Y346582*
X180383Y345645*
X182656Y342520*
X179474*
X175156Y349082D02*
X177428Y344707D01*
X174019*
X175156Y349082D02*
Y342520D01*
X171747Y343145D02*
X171974Y342832D01*
X171747Y342520*
X171519Y342832*
X171747Y343145*
X166747Y348145D02*
X166974Y348770D01*
X167656Y349082*
X168110*
X168792Y348770*
X169247Y347832*
X169474Y346270*
Y344707*
X169247Y343457*
X168792Y342832*
X168110Y342520*
X167883*
X167201Y342832*
X166747Y343457*
X166519Y344395*
Y344707*
X166747Y345645*
X167201Y346270*
X167883Y346582*
X168110*
X168792Y346270*
X169247Y345645*
X169474Y344707*
X164247Y343145D02*
X164474Y342832D01*
X164247Y342520*
X164019Y342832*
X164247Y343145*
X161747Y347520D02*
Y347832D01*
X161519Y348457*
X161292Y348770*
X160838Y349082*
X159928*
X159474Y348770*
X159247Y348457*
X159019Y347832*
Y347207*
X159247Y346582*
X159701Y345645*
X161974Y342520*
X158792*
X155610Y349082D02*
X156292Y348770D01*
X156519Y348145*
Y347520*
X156292Y346895*
X155838Y346582*
X154928Y346270*
X154247Y345957*
X153792Y345332*
X153565Y344707*
Y343770*
X153792Y343145*
X154019Y342832*
X154701Y342520*
X155610*
X156292Y342832*
X156519Y343145*
X156747Y343770*
Y344707*
X156519Y345332*
X156065Y345957*
X155383Y346270*
X154474Y346582*
X154019Y346895*
X153792Y347520*
Y348145*
X154019Y348770*
X154701Y349082*
X155610*
X189535Y334365D02*
X189989Y334990D01*
X190671Y335303*
X191580*
X192262Y334990*
X192717Y334365*
Y333740*
X192489Y333115*
X192262Y332803*
X191807Y332490*
X190444Y331865*
X189989Y331553*
X189762Y331240*
X189535Y330615*
Y329678*
X189989Y329053*
X190671Y328740*
X191580*
X192262Y329053*
X192717Y329678*
X187489Y331240D02*
X184762D01*
Y331865*
X184989Y332490*
X185217Y332803*
X185671Y333115*
X186353*
X186807Y332803*
X187262Y332178*
X187489Y331240*
Y330615*
X187262Y329678*
X186807Y329053*
X186353Y328740*
X185671*
X185217Y329053*
X184762Y329678*
X181580Y333115D02*
X182035Y332803D01*
X182489Y332178*
X182717Y331240*
Y330615*
X182489Y329678*
X182035Y329053*
X181580Y328740*
X180898*
X180444Y329053*
X179989Y329678*
X179762Y330615*
Y331240*
X179989Y332178*
X180444Y332803*
X180898Y333115*
X181580*
X177717Y335303D02*
Y328740D01*
X175444Y333115D02*
X177717Y329990D01*
X176807Y331240D02*
X175217Y328740D01*
X170444Y332178D02*
X170898Y332803D01*
X171353Y333115*
X172035*
X172489Y332803*
X172944Y332178*
X173171Y331240*
Y330615*
X172944Y329678*
X172489Y329053*
X172035Y328740*
X171353*
X170898Y329053*
X170444Y329678*
X168398Y335303D02*
Y328740D01*
Y331865D02*
X167717Y332803D01*
X167262Y333115*
X166580*
X166126Y332803*
X165898Y331865*
Y328740*
X161126Y333115D02*
Y328740D01*
Y332178D02*
X161580Y332803D01*
X162035Y333115*
X162717*
X163171Y332803*
X163626Y332178*
X163853Y331240*
Y330615*
X163626Y329678*
X163171Y329053*
X162717Y328740*
X162035*
X161580Y329053*
X161126Y329678*
X159080Y333115D02*
Y328740D01*
Y331865D02*
X158398Y332803D01*
X157944Y333115*
X157262*
X156807Y332803*
X156580Y331865*
Y328740*
X149307Y335303D02*
Y328740D01*
X146126Y335303D02*
X149307Y330928D01*
X148171Y332490D02*
X146126Y328740D01*
X141353Y333115D02*
Y328740D01*
Y332178D02*
X141807Y332803D01*
X142262Y333115*
X142944*
X143398Y332803*
X143853Y332178*
X144080Y331240*
Y330615*
X143853Y329678*
X143398Y329053*
X142944Y328740*
X142262*
X141807Y329053*
X141353Y329678*
X139307Y333115D02*
Y328740D01*
Y331865D02*
X138626Y332803D01*
X138171Y333115*
X137489*
X137035Y332803*
X136807Y331865*
Y328740*
X132035Y333115D02*
Y328115D01*
X132262Y327178*
X132489Y326865*
X132944Y326553*
X133626*
X134080Y326865*
X132035Y332178D02*
X132489Y332803D01*
X132944Y333115*
X133626*
X134080Y332803*
X134535Y332178*
X134762Y331240*
Y330615*
X134535Y329678*
X134080Y329053*
X133626Y328740*
X132944*
X132489Y329053*
X132035Y329678*
X0Y0D02*
M02*
