*
*
G04 PADS 9.4.1 Build Number: 494907 generated Gerber (RS-274-X) file*
G04 PC Version=2.1*
*
%IN "ATMEGA8-KSC.pcb"*%
*
%MOIN*%
*
%FSLAX35Y35*%
*
*
*
*
G04 PC Standard Apertures*
*
*
G04 Thermal Relief Aperture macro.*
%AMTER*
1,1,$1,0,0*
1,0,$1-$2,0,0*
21,0,$3,$4,0,0,45*
21,0,$3,$4,0,0,135*
%
*
*
G04 Annular Aperture macro.*
%AMANN*
1,1,$1,0,0*
1,0,$2,0,0*
%
*
*
G04 Odd Aperture macro.*
%AMODD*
1,1,$1,0,0*
1,0,$1-0.005,0,0*
%
*
*
G04 PC Custom Aperture Macros*
*
*
*
*
*
*
G04 PC Aperture Table*
*
%ADD010C,0.001*%
%ADD033C,0.00394*%
%ADD035C,0.005*%
%ADD036C,0.00591*%
%ADD037C,0.00472*%
*
*
*
*
G04 PC Circuitry*
G04 Layer Name ATMEGA8-KSC.pcb - circuitry*
%LPD*%
*
*
G04 PC Custom Flashes*
G04 Layer Name ATMEGA8-KSC.pcb - flashes*
%LPD*%
*
*
G04 PC Circuitry*
G04 Layer Name ATMEGA8-KSC.pcb - circuitry*
%LPD*%
*
G54D10*
G54D33*
G01X227654Y203681D02*
X215654D01*
Y198681*
X227654*
Y203681*
X222654Y200181D02*
X220654D01*
X222654Y202181D02*
X220654D01*
X249512Y223484D02*
X261512D01*
Y228484*
X249512*
Y223484*
X254512Y226984D02*
X256512D01*
X254512Y224984D02*
X256512D01*
X227654Y197382D02*
X215654D01*
Y192382*
X227654*
Y197382*
X222654Y193882D02*
X220654D01*
X222654Y195882D02*
X220654D01*
X283327Y194189D02*
Y182189D01*
X288327*
Y194189*
X283327*
X286827Y189189D02*
Y187189D01*
X284827Y189189D02*
Y187189D01*
X168898Y146063D02*
G75*
G03X168898I-15748J0D01*
G01X153150Y161811D02*
Y130315D01*
X159350Y160335D02*
X153327Y154311D01*
X162028Y158839D02*
X153504Y150315D01*
X164020Y146063D02*
G03X164020I-3981J0D01*
G01X163957Y156909D02*
X153209Y146161D01*
X165945Y154921D02*
X161220Y150197D01*
X167146Y152185D02*
X163386Y148425D01*
X160866Y142087D02*
X153307Y134528D01*
X157717Y142677D02*
X153228Y138189D01*
X155827Y144961D02*
X153366Y142500D01*
X168583Y145591D02*
X153425Y130433D01*
X156693Y161417D02*
X153346Y158071D01*
X168504Y149606D02*
X163976Y145079D01*
X168110Y141339D02*
X158268Y131496D01*
X148228Y152559D02*
X144291D01*
X146260Y150591D02*
Y154528D01*
X159843Y262205D02*
G03X159843I-15749J0D01*
G01X144094Y246457D02*
Y277953D01*
X137894Y247933D02*
X143917Y253957D01*
X135217Y249429D02*
X143740Y257953D01*
X141186Y262205D02*
G03X141186I-3981J0D01*
G01X133287Y251358D02*
X144035Y262106D01*
X131299Y253346D02*
X136024Y258071D01*
X130098Y256083D02*
X133858Y259843D01*
X136378Y266181D02*
X143937Y273740D01*
X139528Y265591D02*
X144016Y270079D01*
X141417Y263307D02*
X143878Y265768D01*
X128661Y262677D02*
X143819Y277835D01*
X140551Y246850D02*
X143898Y250197D01*
X128740Y258661D02*
X133268Y263189D01*
X129134Y266929D02*
X138976Y276772D01*
X149016Y255906D02*
X152953D01*
X150984Y257874D02*
Y253937D01*
X244291Y230709D02*
G03X244291I-12401J0D01*
G01X241457Y238622D02*
Y222835D01*
X242677Y236969D02*
X241417Y235709D01*
X243386Y235394D02*
X241457Y233465D01*
X243740D02*
X241024Y230748D01*
X244252Y231969D02*
X241614Y229331D01*
X241496Y226890D02*
X244016Y229409D01*
X241634Y225098D02*
X243563Y227028D01*
X219331Y243937D02*
X224055D01*
X221811Y246457D02*
Y241772D01*
X193169Y179622D02*
Y167622D01*
X198169*
Y179622*
X193169*
X196669Y174622D02*
Y172622D01*
X194669Y174622D02*
Y172622D01*
X197776Y137701D02*
Y149701D01*
X192776*
Y137701*
X197776*
X194276Y142701D02*
Y144701D01*
X196276Y142701D02*
Y144701D01*
X282933Y287102D02*
Y275102D01*
X287933*
Y287102*
X282933*
X286433Y282102D02*
Y280102D01*
X284433Y282102D02*
Y280102D01*
X120866Y198622D02*
X141339D01*
Y187992*
X120866*
Y198622*
Y193307D02*
X115354D01*
X141339D02*
X146850D01*
X137008Y198425D02*
Y188189D01*
X137795Y198425D02*
Y188583D01*
X136220Y198425D02*
Y188189D01*
X150000Y296457D02*
G03X150000I-11024J0D01*
G01X149370Y299921D02*
Y293110D01*
X137795Y284646D02*
X140157Y282677D01*
X137795Y280709*
Y284646*
X140157D02*
Y280709D01*
Y282677D02*
X141339D01*
X137795D02*
X136614D01*
X273543Y104685D02*
X233543D01*
Y134685*
X273543*
Y104685*
X277165Y123437D02*
X276897Y123253D01*
X276494Y122699*
Y126575*
X229885Y113017D02*
X230020Y112648D01*
X230422Y112463*
X230691*
X231093Y112648*
X231362Y113201*
X231496Y114124*
Y115047*
X231362Y115785*
X231093Y116154*
X230691Y116339*
X230557*
X230154Y116154*
X229885Y115785*
X229751Y115231*
Y115047*
X229885Y114493*
X230154Y114124*
X230557Y113939*
X230691*
X231093Y114124*
X231362Y114493*
X231496Y115047*
X229751Y122699D02*
X231093D01*
X231228Y124360*
X231093Y124176*
X230691Y123991*
X230288*
X229885Y124176*
X229617Y124545*
X229483Y125098*
X229617Y125468*
X229751Y126021*
X230020Y126390*
X230422Y126575*
X230825*
X231228Y126390*
X231362Y126206*
X231496Y125837*
X277031Y113386D02*
Y113201D01*
X276897Y112832*
X276763Y112648*
X276494Y112463*
X275957*
X275689Y112648*
X275555Y112832*
X275421Y113201*
Y113570*
X275555Y113939*
X275823Y114493*
X277165Y116339*
X275286*
X136181Y127717D02*
X166181D01*
Y107717*
X136181*
Y127717*
X257795Y345906D02*
X217795D01*
Y365906*
X257795*
Y345906*
X298228Y188189D02*
X303543D01*
Y196063*
X298228*
X294488Y188189D02*
X289370D01*
Y196063*
X294685*
X158661Y242323D02*
X162795D01*
X170669Y234449D02*
G03X162795Y242323I-7874J-0D01*
G01X170669Y234449D02*
Y210433D01*
X162795Y202559D02*
G03X170669Y210433I0J7874D01*
G01X162795Y202559D02*
X158661D01*
X142913D02*
X138780D01*
X130906Y210433D02*
G03X138780Y202559I7874J0D01*
G01X130906Y210433D02*
Y234055D01*
X138780Y241929D02*
G03X130906Y234055I-0J-7874D01*
G01X138780Y241929D02*
X142913D01*
X162110Y192382D02*
X174110D01*
Y197382*
X162110*
Y192382*
X168110Y197382D02*
Y196382D01*
X167110Y195882*
X169110Y194882*
X167110Y193882*
X168110Y193382*
Y192382*
X307780Y270335D02*
X319780D01*
Y275335*
X307780*
Y270335*
X313780Y275335D02*
Y274335D01*
X312780Y273835*
X314780Y272835*
X312780Y271835*
X313780Y271335*
Y270335*
X249512Y229390D02*
X261512D01*
Y234390*
X249512*
Y229390*
X255512Y234390D02*
Y233390D01*
X254512Y232890*
X256512Y231890*
X254512Y230890*
X255512Y230390*
Y229390*
X281634Y275102D02*
Y287102D01*
X276634*
Y275102*
X281634*
X276634Y281102D02*
X277634D01*
X278134Y280102*
X279134Y282102*
X280134Y280102*
X280634Y281102*
X281634*
X270961Y295807D02*
X258961D01*
Y290807*
X270961*
Y295807*
X264961Y290807D02*
Y291807D01*
X265961Y292307*
X263961Y293307*
X265961Y294307*
X264961Y294807*
Y295807*
X282539Y226866D02*
Y214866D01*
X287539*
Y226866*
X282539*
X287539Y220866D02*
X286539D01*
X286039Y221866*
X285039Y219866*
X284039Y221866*
X283539Y220866*
X282539*
X321516Y292220D02*
Y280220D01*
X326516*
Y292220*
X321516*
X326516Y286220D02*
X325516D01*
X325016Y287220*
X324016Y285220*
X323016Y287220*
X322516Y286220*
X321516*
X280846Y291244D02*
Y303244D01*
X275846*
Y291244*
X280846*
X275846Y297244D02*
X276846D01*
X277346Y296244*
X278346Y298244*
X279346Y296244*
X279846Y297244*
X280846*
X339071Y292264D02*
X327071D01*
Y287264*
X339071*
Y292264*
X333071Y287264D02*
Y288264D01*
X334071Y288764*
X332071Y289764*
X334071Y290764*
X333071Y291264*
Y292264*
X258961Y298287D02*
X270961D01*
Y303287*
X258961*
Y298287*
X264961Y303287D02*
Y302287D01*
X263961Y301787*
X265961Y300787*
X263961Y299787*
X264961Y299287*
Y298287*
X162110Y185295D02*
X174110D01*
Y190295*
X162110*
Y185295*
X168110Y190295D02*
Y189295D01*
X167110Y188795*
X169110Y187795*
X167110Y186795*
X168110Y186295*
Y185295*
X184346Y221398D02*
X172346D01*
Y216398*
X184346*
Y221398*
X178346Y216398D02*
Y217398D01*
X179346Y217898*
X177346Y218898*
X179346Y219898*
X178346Y220398*
Y221398*
X141638Y279783D02*
X153638D01*
Y284783*
X141638*
Y279783*
X147638Y284783D02*
Y283783D01*
X146638Y283283*
X148638Y282283*
X146638Y281283*
X147638Y280783*
Y279783*
X191433Y215492D02*
X179433D01*
Y210492*
X191433*
Y215492*
X185433Y210492D02*
Y211492D01*
X186433Y211992*
X184433Y212992*
X186433Y213992*
X185433Y214492*
Y215492*
X227260Y212736D02*
X215260D01*
Y207736*
X227260*
Y212736*
X221260Y207736D02*
Y208736D01*
X222260Y209236*
X220260Y210236*
X222260Y211236*
X221260Y211736*
Y212736*
X179433Y203012D02*
X191433D01*
Y208012*
X179433*
Y203012*
X185433Y208012D02*
Y207012D01*
X184433Y206512*
X186433Y205512*
X184433Y204512*
X185433Y204012*
Y203012*
X276283Y195531D02*
X288283D01*
Y200531*
X276283*
Y195531*
X282283Y200531D02*
Y199531D01*
X281283Y199031*
X283283Y198031*
X281283Y197031*
X282283Y196531*
Y195531*
X250094Y328484D02*
X238094D01*
Y323484*
X250094*
Y328484*
X244094Y323484D02*
Y324484D01*
X245094Y324984*
X243094Y325984*
X245094Y326984*
X244094Y327484*
Y328484*
X277165Y227441D02*
X279016D01*
Y217441*
X277165*
X270866Y227441D02*
X269016D01*
Y217441*
X270866*
X186220Y226181D02*
X182480D01*
Y250197*
X186220*
X193701D02*
X197441D01*
Y226181*
X194094*
X307677Y207283D02*
G03X307677I-4331J0D01*
G01X353937Y282283D02*
G03X353937I-4331J0D01*
G01X331102Y229134D02*
G03X331102I-4330J0D01*
G01X272835Y310236D02*
G03X272835I-4331J0D01*
G01X364173Y166732D02*
G03X364173I-4330J0D01*
G01X331102Y219291D02*
G03X331102I-4330J0D01*
G01Y209055D02*
G03X331102I-4330J0D01*
G01X363780Y179134D02*
G03X363780I-4331J0D01*
G01X331102Y198819D02*
G03X331102I-4330J0D01*
G01X353150Y179134D02*
G03X353150I-4331J0D01*
G01X116535Y173228D02*
G03X116535I-4330J0D01*
G01X302756Y272835D02*
G03X302756I-4331J0D01*
G01X303937Y169291D02*
G03X303937I-4331J0D01*
G01X270079Y247638D02*
G03X270079I-4331J0D01*
G01X242520Y249606D02*
G03X242520I-4331J0D01*
G01X254724Y248819D02*
G03X254724I-4330J0D01*
G01X114567Y131890D02*
G03X114567I-4331J0D01*
G01X368504Y265748D02*
G03X368504I-4331J0D01*
G01X354724Y294488D02*
G03X354724I-4330J0D01*
G01X137795Y166339D02*
X177953D01*
Y183661*
X137795*
Y166339*
Y178543D02*
X177953D01*
X138189Y179134D02*
X177559D01*
X137992Y182874D02*
X177756D01*
Y182283D02*
X137992D01*
Y181693D02*
X177559D01*
X177756Y181102D02*
X137992D01*
Y180512D02*
X177756D01*
Y179921D02*
X137992D01*
X266535Y213386D02*
X238976D01*
Y185827*
X266535*
Y213386*
X244999Y209291D02*
G03X244999I-1810J0D01*
G01X231969Y210669D02*
X230984Y211654D01*
Y209685*
X231969Y210669*
X229961Y198189D02*
X232008D01*
X244882Y179055D02*
Y174567D01*
X260630Y179252D02*
Y177323D01*
X273228Y198110D02*
X277362D01*
X263858Y219961D02*
Y221811D01*
X248031Y219961D02*
Y224567D01*
X254921Y294685D02*
X235630D01*
Y288976*
X237835*
Y285039*
X235630*
Y279331*
X254921*
Y294685*
X237697Y271319D02*
X236555Y270177D01*
X238957*
X237756Y271378*
X237697*
Y271319*
X366969Y259016D02*
Y189016D01*
X336969*
Y259016*
X366969*
X297835Y301772D02*
Y282480D01*
X303543*
Y284685*
X307480*
Y282480*
X313189*
Y301772*
X297835*
X321201Y284547D02*
X322343Y283406D01*
Y285807*
X321142Y284606*
Y284547*
X321201*
X216142Y183858D02*
X221260D01*
Y133465*
X216142*
X206693Y183858D02*
X201575D01*
Y133465*
X206693*
X218504Y171259D02*
G03X216142Y175590I-5170J-10D01*
G01X218504Y171260D02*
Y146063D01*
X216139Y141731D02*
G03X218504Y146059I-2714J4293D01*
G01X206696Y175592D02*
G03X204331Y171264I2713J-4293D01*
G01Y171260D02*
Y146063D01*
Y146059D02*
G03X206696Y141731I5078J-35D01*
G01X211417Y165748D02*
Y162598D01*
Y151575D02*
Y154724D01*
X216535Y162598D02*
X206299D01*
X216535Y154724D02*
X206299D01*
X216535Y161024D02*
Y156299D01*
X206299*
Y161024*
X216535*
X100000Y100000D02*
X375591D01*
Y375591*
X100000*
Y100000*
G54D35*
X234820Y186982D02*
X234479Y186826D01*
X234366Y186513*
Y186201*
X234479Y185888*
X234707Y185732*
X235161Y185576*
X235502Y185420*
X235729Y185107*
X235843Y184795*
Y184326*
X235729Y184013*
X235616Y183857*
X235275Y183701*
X234820*
X234479Y183857*
X234366Y184013*
X234252Y184326*
Y184795*
X234366Y185107*
X234593Y185420*
X234934Y185576*
X235388Y185732*
X235616Y185888*
X235729Y186201*
Y186513*
X235616Y186826*
X235275Y186982*
X234820*
X240060Y182581D02*
X239946Y182112D01*
X239719Y181800*
X239378Y181644*
X239264*
X238924Y181800*
X238696Y182112*
X238583Y182581*
Y182737*
X238696Y183206*
X238924Y183519*
X239264Y183675*
X239378*
X239719Y183519*
X239946Y183206*
X240060Y182581*
Y181800*
X239946Y181019*
X239719Y180550*
X239378Y180394*
X239151*
X238810Y180550*
X238696Y180862*
X266102Y183050D02*
X266330Y183206D01*
X266671Y183675*
Y180394*
X269057Y183206D02*
X268943Y183519D01*
X268602Y183675*
X268375*
X268034Y183519*
X267807Y183050*
X267693Y182269*
Y181487*
X267807Y180862*
X268034Y180550*
X268375Y180394*
X268489*
X268830Y180550*
X269057Y180862*
X269171Y181331*
Y181487*
X269057Y181956*
X268830Y182269*
X268489Y182425*
X268375*
X268034Y182269*
X267807Y181956*
X267693Y181487*
X268740Y186672D02*
X268967Y186828D01*
X269308Y187297*
Y184016*
X271922Y187297D02*
X270786Y184016D01*
X270331Y187297D02*
X271922D01*
X268696Y214823D02*
Y214979D01*
X268810Y215292*
X268924Y215448*
X269151Y215604*
X269605*
X269833Y215448*
X269946Y215292*
X270060Y214979*
Y214667*
X269946Y214354*
X269719Y213885*
X268583Y212323*
X270174*
X272333Y215604D02*
X271196Y213417D01*
X272901*
X272333Y215604D02*
Y212323D01*
X266059Y219154D02*
Y219310D01*
X266172Y219622*
X266286Y219779*
X266513Y219935*
X266968*
X267195Y219779*
X267309Y219622*
X267422Y219310*
Y218997*
X267309Y218685*
X267081Y218216*
X265945Y216654*
X267536*
X270036Y219935D02*
X268899D01*
X268786Y218529*
X268899Y218685*
X269240Y218841*
X269581*
X269922Y218685*
X270149Y218372*
X270263Y217904*
X270149Y217591*
X270036Y217122*
X269809Y216810*
X269468Y216654*
X269127*
X268786Y216810*
X268672Y216966*
X268559Y217279*
X236448Y219384D02*
X237698D01*
X237016Y218134*
X237357*
X237584Y217977*
X237698Y217821*
X237811Y217352*
Y217040*
X237698Y216571*
X237470Y216259*
X237130Y216102*
X236789*
X236448Y216259*
X236334Y216415*
X236220Y216727*
X238948Y218602D02*
Y218759D01*
X239061Y219071*
X239175Y219227*
X239402Y219384*
X239857*
X240084Y219227*
X240198Y219071*
X240311Y218759*
Y218446*
X240198Y218134*
X239970Y217665*
X238834Y216102*
X240425*
G54D36*
X348019Y263386D02*
X348204Y263117D01*
X348757Y262715*
X344882*
X359043Y186614D02*
X359227Y186346D01*
X359781Y185943*
X355906*
X358858Y184601D02*
X359043D01*
X359412Y184467*
X359596Y184332*
X359596D02*
X359781Y184064D01*
Y183527*
X359596Y183259*
X359412Y183125*
X359043Y182990*
X358674*
X358305Y183125*
X357751Y183393*
X355906Y184735*
Y182856*
X349200Y186614D02*
X349385Y186346D01*
X349938Y185943*
X346063*
X349200Y184735D02*
X349385Y184467D01*
X349938Y184064*
X346063*
X358465Y263252D02*
X358649D01*
X359018Y263117*
X359203Y262983*
X359387Y262715*
Y262178*
X359203Y261909*
X359018Y261775*
X358649Y261641*
X358280*
X357911Y261775*
X357357Y262044*
X355512Y263386*
Y261507*
G54D37*
X212634Y201969D02*
X212527Y202264D01*
X212312Y202559*
X212097Y202707*
X211668*
X211453Y202559*
X211238Y202264*
X211131Y201969*
X211024Y201526*
Y200787*
X211131Y200344*
X211238Y200049*
X211453Y199754*
X211668Y199606*
X212097*
X212312Y199754*
X212527Y200049*
X212634Y200344*
X213601Y202116D02*
X213815Y202264D01*
X214137Y202707*
Y199606*
X264209Y227165D02*
X264102Y227461D01*
X263887Y227756*
X263672Y227904*
X263243*
X263028Y227756*
X262813Y227461*
X262706Y227165*
X262598Y226722*
Y225984*
X262706Y225541*
X262813Y225246*
X263028Y224951*
X263243Y224803*
X263672*
X263887Y224951*
X264102Y225246*
X264209Y225541*
X265175Y227313D02*
X265390Y227461D01*
X265712Y227904*
Y224803*
X267323Y227904D02*
X267001Y227756D01*
X266786Y227313*
X266679Y226575*
Y226132*
X266786Y225394*
X267001Y224951*
X267323Y224803*
X267538*
X267860Y224951*
X268074Y225394*
X268182Y226132*
Y226575*
X268074Y227313*
X267860Y227756*
X267538Y227904*
X267323*
X212241Y195669D02*
X212133Y195965D01*
X211918Y196260*
X211704Y196407*
X211274*
X211059Y196260*
X210845Y195965*
X210737Y195669*
X210630Y195226*
Y194488*
X210737Y194045*
X210845Y193750*
X211059Y193455*
X211274Y193307*
X211704*
X211918Y193455*
X212133Y193750*
X212241Y194045*
X213314Y195669D02*
Y195817D01*
X213422Y196112*
X213529Y196260*
X213744Y196407*
X214173*
X214388Y196260*
X214495Y196112*
X214603Y195817*
Y195522*
X214495Y195226*
X214281Y194783*
X213207Y193307*
X214710*
X279331Y187241D02*
X279035Y187133D01*
X278740Y186918*
X278593Y186704*
Y186274*
X278740Y186059*
X279035Y185845*
X279331Y185737*
X279774Y185630*
X280512*
X280955Y185737*
X281250Y185845*
X281545Y186059*
X281693Y186274*
Y186704*
X281545Y186918*
X281250Y187133*
X280955Y187241*
X278593Y188422D02*
Y189603D01*
X279774Y188958*
Y189281*
X279921Y189495*
X280069Y189603*
X280512Y189710*
X280807*
X281250Y189603*
X281545Y189388*
X281693Y189066*
Y188744*
X281545Y188422*
X281398Y188314*
X281102Y188207*
X169721Y156693D02*
X169613Y156988D01*
X169399Y157283*
X169184Y157431*
X168754*
X168540Y157283*
X168325Y156988*
X168218Y156693*
X168110Y156250*
Y155512*
X168218Y155069*
X168325Y154774*
X168540Y154478*
X168754Y154331*
X169184*
X169399Y154478*
X169613Y154774*
X169721Y155069*
X171761Y157431D02*
X170687Y155364D01*
X172298*
X171761Y157431D02*
Y154331D01*
X124052Y262795D02*
X123944Y263091D01*
X123729Y263386*
X123515Y263533*
X123085*
X122870Y263386*
X122656Y263091*
X122548Y262795*
X122441Y262352*
Y261614*
X122548Y261171*
X122656Y260876*
X122870Y260581*
X123085Y260433*
X123515*
X123729Y260581*
X123944Y260876*
X124052Y261171*
X126414Y263533D02*
X125340D01*
X125233Y262205*
X125340Y262352*
X125662Y262500*
X125984*
X126306Y262352*
X126521Y262057*
X126628Y261614*
X126521Y261319*
X126414Y260876*
X126199Y260581*
X125877Y260433*
X125555*
X125233Y260581*
X125125Y260728*
X125018Y261024*
X215981Y234449D02*
X215873Y234744D01*
X215659Y235039*
X215444Y235187*
X215014*
X214800Y235039*
X214585Y234744*
X214477Y234449*
X214370Y234006*
Y233268*
X214477Y232825*
X214585Y232530*
X214800Y232234*
X215014Y232087*
X215444*
X215659Y232234*
X215873Y232530*
X215981Y232825*
X218236Y234744D02*
X218128Y235039D01*
X217806Y235187*
X217591*
X217269Y235039*
X217054Y234596*
X216947Y233858*
Y233120*
X217054Y232530*
X217269Y232234*
X217591Y232087*
X217699*
X218021Y232234*
X218236Y232530*
X218343Y232972*
Y233120*
X218236Y233563*
X218021Y233858*
X217699Y234006*
X217591*
X217269Y233858*
X217054Y233563*
X216947Y233120*
X189370Y175429D02*
X189075Y175322D01*
X188780Y175107*
X188632Y174893*
Y174463*
X188780Y174248*
X189075Y174034*
X189370Y173926*
X189813Y173819*
X190551*
X190994Y173926*
X191289Y174034*
X191585Y174248*
X191732Y174463*
Y174893*
X191585Y175107*
X191289Y175322*
X190994Y175429*
X188632Y177899D02*
X191732Y176825D01*
X188632Y176396D02*
Y177899D01*
X189173Y141965D02*
X188878Y141858D01*
X188583Y141643*
X188435Y141428*
Y140999*
X188583Y140784*
X188878Y140569*
X189173Y140462*
X189616Y140354*
X190354*
X190797Y140462*
X191093Y140569*
X191388Y140784*
X191535Y140999*
Y141428*
X191388Y141643*
X191093Y141858*
X190797Y141965*
X188435Y143468D02*
X188583Y143146D01*
X188878Y143039*
X189173*
X189469Y143146*
X189616Y143361*
X189764Y143790*
X189911Y144112*
X190207Y144327*
X190502Y144435*
X190502D02*
X190945D01*
X190945D02*
X191240Y144327D01*
X191388Y144220*
X191535Y143898*
Y143468*
X191388Y143146*
X191240Y143039*
X190945Y142931*
X190502*
X190207Y143039*
X189911Y143253*
X189764Y143576*
X189616Y144005*
X189469Y144220*
X189173Y144327*
X188878*
X188583Y144220*
X188435Y143898*
Y143468*
X284878Y291142D02*
X284771Y291437D01*
X284556Y291732*
X284341Y291880*
X283912*
X283697Y291732*
X283482Y291437*
X283375Y291142*
X283268Y290699*
Y289961*
X283375Y289518*
X283482Y289222*
X283697Y288927*
X283912Y288780*
X284341*
X284556Y288927*
X284771Y289222*
X284878Y289518*
X287241Y290846D02*
X287133Y290404D01*
X286918Y290108*
X286596Y289961*
X286489*
X286167Y290108*
X285952Y290404*
X285845Y290846*
Y290994*
X285952Y291437*
X286167Y291732*
X286489Y291880*
X286596*
X286918Y291732*
X287133Y291437*
X287241Y290846*
Y290108*
X287133Y289370*
X286918Y288927*
X286596Y288780*
X286382*
X286059Y288927*
X285952Y289222*
X127165Y203297D02*
Y200197D01*
Y203297D02*
X127917D01*
X128239Y203150*
X128454Y202854*
X128561Y202559*
X128669Y202116*
Y201378*
X128561Y200935*
X128454Y200640*
X128239Y200344*
X127917Y200197*
X127165*
X129635Y202707D02*
X129850Y202854D01*
X130172Y203297*
Y200197*
X137598Y312352D02*
Y309252D01*
Y312352D02*
X138350D01*
X138672Y312205*
X138887Y311909*
X138994Y311614*
X139102Y311171*
Y310433*
X138994Y309990*
X138887Y309695*
X138672Y309400*
X138350Y309252*
X137598*
X140175Y311614D02*
Y311762D01*
X140283Y312057*
X140390Y312205*
X140605Y312352*
X141034*
X141249Y312205*
X141356Y312057*
X141464Y311762*
Y311467*
X141356Y311171*
X141142Y310728*
X140068Y309252*
X141571*
X247924Y139715D02*
Y137352D01*
X247817Y136909*
X247709Y136762*
X247495Y136614*
X247280*
X247065Y136762*
X246958Y136909*
X246850Y137352*
Y137648*
X248890Y139124D02*
X249105Y139272D01*
X249427Y139715*
Y136614*
X151271Y106053D02*
Y103691D01*
X151163Y103248*
X151056Y103100*
X150841Y102953*
X150626*
X150412Y103100*
X150304Y103248*
X150197Y103691*
Y103986*
X152344Y105315D02*
Y105463D01*
X152452Y105758*
X152559Y105906*
X152774Y106053*
X153203*
X153418Y105906*
X153525Y105758*
X153633Y105463*
Y105167*
X153525Y104872*
X153311Y104429*
X152237Y102953*
X153740*
X237885Y371211D02*
Y368848D01*
X237777Y368406*
X237670Y368258*
X237455Y368110*
X237241*
X237026Y368258*
X236918Y368406*
X236811Y368848*
Y369144*
X239066Y371211D02*
X240247D01*
X239603Y370030*
X239925*
X240140Y369882*
X240247Y369734*
X240354Y369291*
Y368996*
X240247Y368553*
X240032Y368258*
X239710Y368110*
X239388*
X239066Y368258*
X238958Y368406*
X238851Y368701*
X295079Y201132D02*
Y198031D01*
X296367*
X297334Y200541D02*
X297548Y200689D01*
X297870Y201132*
Y198031*
X123622Y228297D02*
Y225197D01*
X124911*
X125984Y227559D02*
Y227707D01*
X126092Y228002*
X126199Y228150*
X126414Y228297*
X126843*
X127058Y228150*
X127165Y228002*
X127273Y227707*
Y227411*
X127165Y227116*
X126951Y226673*
X125877Y225197*
X127380*
X157087Y196407D02*
Y193307D01*
Y196407D02*
X158053D01*
X158375Y196260*
X158482Y196112*
X158590Y195817*
Y195522*
X158482Y195226*
X158375Y195079*
X158053Y194931*
X157087*
X157838D02*
X158590Y193307D01*
X159556Y195817D02*
X159771Y195965D01*
X160093Y196407*
Y193307*
X311417Y279478D02*
Y276378D01*
Y279478D02*
X312384D01*
X312706Y279331*
X312813Y279183*
X312921Y278888*
Y278593*
X312813Y278297*
X312706Y278150*
X312384Y278002*
X311417*
X312169D02*
X312921Y276378D01*
X313887Y278888D02*
X314102Y279035D01*
X314424Y279478*
Y276378*
X316034Y279478D02*
X315712Y279331D01*
X315497Y278888*
X315390Y278150*
Y277707*
X315497Y276969*
X315712Y276526*
X316034Y276378*
X316249*
X316571Y276526*
X316786Y276969*
X316893Y277707*
Y278150*
X316786Y278888*
X316571Y279331*
X316249Y279478*
X316034*
X253346Y238533D02*
Y235433D01*
Y238533D02*
X254313D01*
X254635Y238386*
X254742Y238238*
X254850Y237943*
Y237648*
X254742Y237352*
X254635Y237205*
X254313Y237057*
X253346*
X254098D02*
X254850Y235433D01*
X255816Y237943D02*
X256031Y238091D01*
X256353Y238533*
Y235433*
X257319Y237943D02*
X257534Y238091D01*
X257856Y238533*
Y235433*
X272490Y279528D02*
X275591D01*
X272490D02*
Y280494D01*
X272638Y280816*
X272785Y280923*
X273081Y281031*
X273376*
X273671Y280923*
X273819Y280816*
X273967Y280494*
Y279528*
Y280279D02*
X275591Y281031D01*
X273081Y281997D02*
X272933Y282212D01*
X272490Y282534*
X275591*
X273228Y283608D02*
X273081D01*
X272785Y283715*
X272638Y283822*
X272490Y284037*
Y284467*
X272638Y284681*
X272785Y284789*
X273081Y284896*
X273376*
X273671Y284789*
X274114Y284574*
X275591Y283500*
Y285004*
X265354Y290108D02*
Y287008D01*
Y290108D02*
X266321D01*
X266643Y289961*
X266750Y289813*
X266858Y289518*
Y289222*
X266750Y288927*
X266643Y288780*
X266321Y288632*
X265354*
X266106D02*
X266858Y287008D01*
X267824Y289518D02*
X268039Y289665D01*
X268361Y290108*
Y287008*
X269542Y290108D02*
X270723D01*
X270079Y288927*
X270401*
X270616Y288780*
X270723Y288632*
X270830Y288189*
Y287894*
X270723Y287451*
X270508Y287156*
X270186Y287008*
X269864*
X269542Y287156*
X269435Y287303*
X269435D02*
X269327Y287598D01*
X288632Y218307D02*
X291732D01*
X288632D02*
Y219273D01*
X288780Y219596*
X288927Y219703*
X289222Y219810*
X289518*
X289813Y219703*
X289961Y219596*
X290108Y219273*
Y218307*
Y219059D02*
X291732Y219810D01*
X289222Y220777D02*
X289075Y220991D01*
X288632Y221314*
X291732*
X288632Y223354D02*
X290699Y222280D01*
Y223890*
X288632Y223354D02*
X291732D01*
X327608Y280512D02*
X330709D01*
X327608D02*
Y281478D01*
X327756Y281800*
X327904Y281908*
X328199Y282015*
X328494*
X328789Y281908*
X328937Y281800*
X329085Y281478*
Y280512*
Y281263D02*
X330709Y282015D01*
X328199Y282981D02*
X328051Y283196D01*
X327608Y283518*
X330709*
X327608Y285880D02*
Y284807D01*
X328937Y284699*
X328789Y284807*
X328642Y285129*
Y285451*
X328789Y285773*
X329085Y285988*
X329528Y286095*
X329823Y285988*
X330266Y285880*
X330561Y285666*
X330709Y285344*
Y285021*
X330561Y284699*
X330413Y284592*
X330118Y284485*
X275591Y307431D02*
Y304331D01*
Y307431D02*
X276557D01*
X276879Y307283*
X276986Y307136*
X277094Y306841*
Y306545*
X276986Y306250*
X276879Y306102*
X276557Y305955*
X275591*
X276342D02*
X277094Y304331D01*
X278060Y306841D02*
X278275Y306988D01*
X278597Y307431*
Y304331*
X280852Y306988D02*
X280744Y307283D01*
X280422Y307431*
X280208*
X279885Y307283*
X279671Y306841*
X279563Y306102*
Y305364*
X279671Y304774*
X279885Y304478*
X280208Y304331*
X280315*
X280637Y304478*
X280852Y304774*
X280959Y305217*
Y305364*
X280852Y305807*
X280637Y306102*
X280315Y306250*
X280208*
X279885Y306102*
X279671Y305807*
X279563Y305364*
X330512Y296604D02*
Y293504D01*
Y296604D02*
X331478D01*
X331800Y296457*
X331908Y296309*
X332015Y296014*
Y295719*
X332015D02*
X331908Y295423D01*
X331800Y295276*
X331478Y295128*
X330512*
X331263D02*
X332015Y293504D01*
X332981Y296014D02*
X333196Y296161D01*
X333518Y296604*
Y293504*
X335988Y296604D02*
X334914Y293504D01*
X334485Y296604D02*
X335988D01*
X254577Y298622D02*
X257677D01*
X254577D02*
Y299588D01*
X254724Y299911*
X254872Y300018*
X255167Y300125*
X255463*
X255758Y300018*
X255906Y299911*
X256053Y299588*
Y298622*
Y299374D02*
X257677Y300125D01*
X255167Y301092D02*
X255020Y301306D01*
X254577Y301628*
X257677*
X254577Y303132D02*
X254724Y302810D01*
X255020Y302702*
X255315*
X255610Y302810*
X255758Y303024*
X255906Y303454*
X256053Y303776*
X256348Y303991*
X256644Y304098*
X257087*
X257382Y303991*
X257530Y303883*
X257677Y303561*
Y303132*
X257530Y302810*
X257382Y302702*
X257087Y302595*
X256644*
X256348Y302702*
X256053Y302917*
X255906Y303239*
X255758Y303669*
X255610Y303883*
X255315Y303991*
X255020*
X254724Y303883*
X254577Y303561*
Y303132*
X157087Y189321D02*
Y186220D01*
Y189321D02*
X158053D01*
X158375Y189173*
X158482Y189026*
X158590Y188730*
Y188435*
X158482Y188140*
X158375Y187992*
X158053Y187844*
X157087*
X157838D02*
X158590Y186220D01*
X159664Y188583D02*
Y188730D01*
X159771Y189026*
X159878Y189173*
X160093Y189321*
X160523*
X160737Y189173*
X160845Y189026*
X160952Y188730*
Y188435*
X160845Y188140*
X160630Y187697*
X159556Y186220*
X161059*
X172835Y225541D02*
Y222441D01*
Y225541D02*
X173801D01*
X174123Y225394*
X174230Y225246*
X174338Y224951*
Y224656*
X174230Y224360*
X174123Y224213*
X173801Y224065*
X172835*
X173586D02*
X174338Y222441D01*
X175519Y225541D02*
X176700D01*
X176056Y224360*
X176378*
X176593Y224213*
X176700Y224065*
X176807Y223622*
Y223327*
X176700Y222884*
X176485Y222589*
X176163Y222441*
X175841*
X175519Y222589*
X175412Y222736*
X175304Y223031*
X155512Y283809D02*
Y280709D01*
Y283809D02*
X156478D01*
X156800Y283661*
X156908Y283514*
X157015Y283219*
Y282923*
X156908Y282628*
X156800Y282480*
X156478Y282333*
X155512*
X156263D02*
X157015Y280709D01*
X159055Y283809D02*
X157981Y281742D01*
X159592*
X159055Y283809D02*
Y280709D01*
X173622Y214518D02*
Y211417D01*
Y214518D02*
X174588D01*
X174911Y214370*
X175018Y214222*
X175125Y213927*
Y213632*
X175018Y213337*
X174911Y213189*
X174588Y213041*
X173622*
X174374D02*
X175125Y211417D01*
X177487Y214518D02*
X176414D01*
X176306Y213189*
X176414Y213337*
X176736Y213484*
X177058*
X177380Y213337*
X177595Y213041*
X177702Y212598*
X177595Y212303*
X177487Y211860*
X177273Y211565*
X176951Y211417*
X176628*
X176306Y211565*
X176199Y211713*
X176092Y212008*
X210236Y212156D02*
Y209055D01*
Y212156D02*
X211203D01*
X211525Y212008*
X211632Y211860*
X211739Y211565*
Y211270*
X211632Y210974*
X211525Y210827*
X211203Y210679*
X210236*
X210988D02*
X211739Y209055D01*
X213994Y211713D02*
X213887Y212008D01*
X213565Y212156*
X213350*
X213028Y212008*
X212813Y211565*
X212706Y210827*
Y210089*
X212813Y209498*
X213028Y209203*
X213350Y209055*
X213457*
X213780Y209203*
X213994Y209498*
X214102Y209941*
Y210089*
X213994Y210531*
X213780Y210827*
X213457Y210974*
X213350*
X213028Y210827*
X212813Y210531*
X212706Y210089*
X192913Y206644D02*
Y203543D01*
Y206644D02*
X193880D01*
X194202Y206496*
X194309Y206348*
X194417Y206053*
Y205758*
X194309Y205463*
X194202Y205315*
X193880Y205167*
X192913*
X193665D02*
X194417Y203543D01*
X196886Y206644D02*
X195812Y203543D01*
X195383Y206644D02*
X196886D01*
X283858Y205069D02*
Y201969D01*
Y205069D02*
X284825D01*
X285147Y204921*
X285254Y204774*
X285361Y204478*
Y204183*
X285254Y203888*
X285147Y203740*
X284825Y203593*
X283858*
X284610D02*
X285361Y201969D01*
X286865Y205069D02*
X286543Y204921D01*
X286435Y204626*
Y204331*
X286543Y204035*
X286757Y203888*
X287187Y203740*
X287509Y203593*
X287724Y203297*
X287831Y203002*
Y202559*
X287724Y202264*
X287616Y202116*
X287294Y201969*
X286865*
X286543Y202116*
X286435Y202264*
X286328Y202559*
Y203002*
X286435Y203297*
X286650Y203593*
X286972Y203740*
X287402Y203888*
X287616Y204035*
X287724Y204331*
Y204626*
X287616Y204921*
X287294Y205069*
X286865*
X242126Y332825D02*
Y329724D01*
Y332825D02*
X243092D01*
X243414Y332677*
X243522Y332530*
X243629Y332234*
Y331939*
X243522Y331644*
X243414Y331496*
X243092Y331348*
X242126*
X242878D02*
X243629Y329724D01*
X245991Y331791D02*
X245884Y331348D01*
X245669Y331053*
X245347Y330906*
X245240*
X244918Y331053*
X244703Y331348*
X244596Y331791*
Y331939*
X244703Y332382*
X244918Y332677*
X245240Y332825*
X245347*
X245669Y332677*
X245884Y332382*
X245991Y331791*
Y331053*
X245884Y330315*
X245669Y329872*
X245347Y329724*
X245132*
X244810Y329872*
X244703Y330167*
X270866Y234203D02*
Y231102D01*
Y234203D02*
X271832D01*
X271832D02*
X272155Y234055D01*
X272262Y233907*
X272369Y233612*
Y233317*
X272262Y233022*
X272155Y232874*
X271832Y232726*
X271832D02*
X270866D01*
X271618D02*
X272369Y231102D01*
X274087Y234203D02*
Y231102D01*
X273336Y234203D02*
X274839D01*
X275805Y233612D02*
X276020Y233760D01*
X276342Y234203*
Y231102*
X178051Y239298D02*
X177756Y239084D01*
X177608Y238762*
Y238332*
X177756Y238010*
X178051Y237795*
X178346*
X178642Y237903*
X178789Y238010*
X178937Y238225*
X179232Y238869*
X179380Y239084*
X179528Y239191*
X179823Y239298*
X180266*
X180561Y239084*
X180709Y238762*
Y238332*
X180561Y238010*
X180266Y237795*
X177608Y240265D02*
X180709Y240802D01*
X177608Y241339D02*
X180709Y240802D01*
X177608Y241339D02*
X180709Y241875D01*
X177608Y242412D02*
X180709Y241875D01*
X178199Y243379D02*
X178051Y243593D01*
X177608Y243916*
X180709*
X301342Y215699D02*
Y212598D01*
X300591Y215699D02*
X302094D01*
X303060D02*
Y212598D01*
Y215699D02*
X304026D01*
X304349Y215551*
X304456Y215404*
X304563Y215108*
Y214665*
X304456Y214370*
X304349Y214222*
X304026Y214075*
X303060*
X305530Y215108D02*
X305744Y215256D01*
X306067Y215699*
Y212598*
X355870Y284596D02*
Y281496D01*
X355118Y284596D02*
X356621D01*
X357588D02*
Y281496D01*
Y284596D02*
X358554D01*
X358876Y284449*
X358984Y284301*
X359091Y284006*
Y283563*
X358984Y283268*
X358876Y283120*
X358554Y282972*
X357588*
X360057Y284006D02*
X360272Y284154D01*
X360594Y284596*
Y281496*
X362205Y284596D02*
X361883Y284449D01*
X361668Y284006*
X361560Y283268*
Y282825*
X361668Y282087*
X361883Y281644*
X362205Y281496*
X362419*
X362742Y281644*
X362956Y282087*
X363064Y282825*
Y283268*
X362956Y284006*
X362742Y284449*
X362419Y284596*
X362205*
X323389Y237943D02*
Y234843D01*
X322638Y237943D02*
X324141D01*
X325107D02*
Y234843D01*
Y237943D02*
X326074D01*
X326396Y237795*
X326503Y237648*
X326611Y237352*
Y236909*
X326503Y236614*
X326396Y236467*
X326074Y236319*
X325107*
X327577Y237352D02*
X327792Y237500D01*
X328114Y237943*
Y234843*
X329080Y237352D02*
X329295Y237500D01*
X329617Y237943*
Y234843*
X265319Y318652D02*
Y315551D01*
X264567Y318652D02*
X266070D01*
X267037D02*
Y315551D01*
Y318652D02*
X268003D01*
X268325Y318504*
X268432Y318356*
X268540Y318061*
Y317618*
X268432Y317323*
X268325Y317175*
X268003Y317028*
X267037*
X269506Y318061D02*
X269721Y318209D01*
X270043Y318652*
Y315551*
X271117Y317913D02*
Y318061D01*
X271224Y318356*
X271331Y318504*
X271546Y318652*
X271976*
X272190Y318504*
X272298Y318356*
X272405Y318061*
Y317766*
X272298Y317470*
X272083Y317028*
X271009Y315551*
X272513*
X357051Y161368D02*
Y158268D01*
X356299Y161368D02*
X357802D01*
X358769D02*
Y158268D01*
Y161368D02*
X359735D01*
X360057Y161220*
X360165Y161073*
X360272Y160778*
Y160335*
X360165Y160039*
X360057Y159892*
X359735Y159744*
X358769*
X361238Y160778D02*
X361453Y160925D01*
X361775Y161368*
Y158268*
X363815Y161368D02*
X362742Y159301D01*
X364352*
X363815Y161368D02*
Y158268D01*
X318159Y214925D02*
X321260D01*
X318159Y214173D02*
Y215676D01*
Y216643D02*
X321260D01*
X318159D02*
Y217609D01*
X318307Y217931*
X318455Y218039*
X318750Y218146*
X319193*
X319488Y218039*
X319636Y217931*
X319783Y217609*
Y216643*
X318750Y219112D02*
X318602Y219327D01*
X318159Y219649*
X321260*
X318159Y222011D02*
Y220938D01*
X319488Y220830*
X319341Y220938*
X319193Y221260*
Y221582*
X319341Y221904*
X319636Y222119*
X320079Y222226*
X320374Y222119*
X320817Y222011*
X321112Y221797*
X321260Y221475*
Y221152*
X321112Y220830*
X320965Y220723*
X320669Y220616*
X318356Y205476D02*
X321457D01*
X318356Y204724D02*
Y206228D01*
Y207194D02*
X321457D01*
X318356D02*
Y208160D01*
X318504Y208482*
X318652Y208590*
X318947Y208697*
X319390*
X319685Y208590*
X319833Y208482*
X319980Y208160*
Y207194*
X318947Y209664D02*
X318799Y209878D01*
X318356Y210200*
X321457*
X318799Y212455D02*
X318504Y212348D01*
X318356Y212026*
Y211811*
X318504Y211489*
X318947Y211274*
X319685Y211167*
X320423*
X321014Y211274*
X321309Y211489*
X321457Y211811*
Y211918*
X321309Y212241*
X321014Y212455*
X320571Y212563*
X320423*
X319980Y212455*
X319685Y212241*
X319537Y211918*
Y211811*
X319685Y211489*
X319980Y211274*
X320423Y211167*
X356657Y174360D02*
Y171260D01*
X355906Y174360D02*
X357409D01*
X358375D02*
Y171260D01*
Y174360D02*
X359341D01*
X359664Y174213*
X359771Y174065*
X359878Y173770*
Y173327*
X359771Y173031*
X359664Y172884*
X359341Y172736*
X358375*
X360845Y173770D02*
X361059Y173917D01*
X361382Y174360*
Y171260*
X363851Y174360D02*
X362777Y171260D01*
X362348Y174360D02*
X363851D01*
X323586Y193258D02*
Y190157D01*
X322835Y193258D02*
X324338D01*
X325304D02*
Y190157D01*
Y193258D02*
X326271D01*
X326593Y193110*
X326700Y192963*
X326807Y192667*
Y192224*
X326700Y191929*
X326593Y191781*
X326271Y191634*
X325304*
X327774Y192667D02*
X327989Y192815D01*
X328311Y193258*
Y190157*
X329814Y193258D02*
X329492Y193110D01*
X329384Y192815*
Y192520*
X329492Y192224*
X329707Y192077*
X330136Y191929*
X330458Y191781*
X330673Y191486*
X330780Y191191*
Y190748*
X330673Y190453*
X330565Y190305*
X330565D02*
X330243Y190157D01*
X329814*
X329492Y190305*
X329384Y190453*
X329277Y190748*
Y191191*
X329384Y191486*
X329599Y191781*
X329921Y191929*
X330351Y192077*
X330565Y192224*
X330565D02*
X330673Y192520D01*
Y192815*
X330565Y193110*
X330565D02*
X330243Y193258D01*
X329814*
X345634Y173573D02*
Y170472D01*
X344882Y173573D02*
X346385D01*
X347351D02*
Y170472D01*
Y173573D02*
X348318D01*
X348640Y173425*
X348747Y173278*
X348855Y172982*
Y172539*
X348747Y172244*
X348640Y172096*
X348318Y171949*
X347351*
X349821Y172982D02*
X350036Y173130D01*
X350358Y173573*
Y170472*
X352720Y172539D02*
X352613Y172096D01*
X352398Y171801*
X352076Y171654*
X351969*
X351646Y171801*
X351432Y172096*
X351324Y172539*
Y172687*
X351432Y173130*
X351646Y173425*
X351969Y173573*
X352076*
X352398Y173425*
X352613Y173130*
X352720Y172539*
Y171801*
X352613Y171063*
X352398Y170620*
X352076Y170472*
X351861*
X351539Y170620*
X351432Y170915*
X105801Y182225D02*
Y179125D01*
X105050Y182225D02*
X106553D01*
X107519D02*
Y179125D01*
Y182225D02*
X108486D01*
X108808Y182077*
X108915Y181930*
X109023Y181635*
Y181192*
X108915Y180896*
X108808Y180749*
X108486Y180601*
X107519*
X110096Y181487D02*
Y181635D01*
X110204Y181930*
X110311Y182077*
X110526Y182225*
X110955*
X111170Y182077*
X111277Y181930*
X111385Y181635*
Y181339*
X111277Y181044*
X111063Y180601*
X109989Y179125*
X111492*
X295043Y267470D02*
Y264370D01*
X294291Y267470D02*
X295795D01*
X296761D02*
Y264370D01*
Y267470D02*
X297727D01*
X298049Y267323*
X298157Y267175*
X298264Y266880*
Y266437*
X298157Y266142*
X298049Y265994*
X297727Y265846*
X296761*
X299338Y266732D02*
Y266880D01*
X299445Y267175*
X299553Y267323*
X299767Y267470*
X300197*
X300412Y267323*
X300519Y267175*
X300626Y266880*
Y266585*
X300519Y266289*
X300304Y265846*
X299230Y264370*
X300734*
X302344Y267470D02*
X302022Y267323D01*
X301807Y266880*
X301700Y266142*
Y265699*
X301807Y264961*
X302022Y264518*
X302344Y264370*
X302559*
X302881Y264518*
X303096Y264961*
X303203Y265699*
Y266142*
X303096Y266880*
X302881Y267323*
X302559Y267470*
X302344*
X297405Y178494D02*
Y175394D01*
X296654Y178494D02*
X298157D01*
X299123D02*
Y175394D01*
Y178494D02*
X300089D01*
X300412Y178346*
X300519Y178199*
X300626Y177904*
Y177461*
X300519Y177165*
X300412Y177018*
X300089Y176870*
X299123*
X301807Y178494D02*
X302989D01*
X302344Y177313*
X302666*
X302881Y177165*
X302989Y177018*
X303096Y176575*
Y176280*
X302989Y175837*
X302774Y175541*
X302452Y175394*
X302130*
X301807Y175541*
X301700Y175689*
X301593Y175984*
X262956Y255659D02*
Y252559D01*
X262205Y255659D02*
X263708D01*
X264674D02*
Y252559D01*
Y255659D02*
X265641D01*
X265963Y255512*
X266070Y255364*
X266178Y255069*
Y254626*
X266070Y254331*
X265963Y254183*
X265641Y254035*
X264674*
X268218Y255659D02*
X267144Y253593D01*
X268754*
X268218Y255659D02*
Y252559D01*
X235200Y258022D02*
Y254921D01*
X234449Y258022D02*
X235952D01*
X236918D02*
Y254921D01*
Y258022D02*
X237885D01*
X238207Y257874*
X238314Y257726*
X238422Y257431*
Y256988*
X238314Y256693*
X238207Y256545*
X237885Y256398*
X236918*
X240784Y258022D02*
X239710D01*
X239603Y256693*
X239710Y256841*
X240032Y256988*
X240354*
X240676Y256841*
X240891Y256545*
X240999Y256102*
X240891Y255807*
X240784Y255364*
X240569Y255069*
X240247Y254921*
X239925*
X239603Y255069*
X239495Y255217*
X239388Y255512*
X248389Y257037D02*
Y253937D01*
X247638Y257037D02*
X249141D01*
X250107D02*
Y253937D01*
Y257037D02*
X251074D01*
X251396Y256890*
X251503Y256742*
X251611Y256447*
Y256004*
X251503Y255709*
X251396Y255561*
X251074Y255413*
X250107*
X253865Y256594D02*
X253758Y256890D01*
X253436Y257037*
X253221*
X252899Y256890*
X252684Y256447*
X252577Y255709*
Y254970*
X252684Y254380*
X252899Y254085*
X253221Y253937*
X253329*
X253651Y254085*
X253865Y254380*
X253973Y254823*
Y254970*
X253865Y255413*
X253651Y255709*
X253329Y255856*
X253221*
X252899Y255709*
X252684Y255413*
X252577Y254970*
X107641Y140699D02*
Y137598D01*
X106890Y140699D02*
X108393D01*
X109359D02*
Y137598D01*
Y140699D02*
X110326D01*
X110648Y140551*
X110755Y140404*
X110863Y140108*
Y139665*
X110755Y139370*
X110648Y139222*
X110326Y139075*
X109359*
X113332Y140699D02*
X112258Y137598D01*
X111829Y140699D02*
X113332D01*
X361382Y274754D02*
Y271654D01*
X360630Y274754D02*
X362133D01*
X363099D02*
Y271654D01*
Y274754D02*
X364066D01*
X364388Y274606*
X364495Y274459*
X364603Y274163*
Y273720*
X364495Y273425*
X364388Y273278*
X364066Y273130*
X363099*
X366106Y274754D02*
X365784Y274606D01*
X365676Y274311*
Y274016*
X365784Y273720*
X365999Y273573*
X366428Y273425*
X366750Y273278*
X366965Y272982*
X367072Y272687*
Y272244*
X366965Y271949*
X366858Y271801*
X366535Y271654*
X366106*
X365784Y271801*
X365676Y271949*
X365569Y272244*
Y272687*
X365676Y272982*
X365891Y273278*
X366213Y273425*
X366643Y273573*
X366858Y273720*
X366965Y274016*
Y274311*
X366858Y274606*
X366535Y274754*
X366106*
X356657Y295620D02*
Y292520D01*
X355906Y295620D02*
X357409D01*
X358375D02*
Y292520D01*
Y295620D02*
X359341D01*
X359664Y295472*
X359771Y295325*
X359878Y295030*
Y294587*
X359771Y294291*
X359664Y294144*
X359341Y293996*
X358375*
X362241Y294587D02*
X362133Y294144D01*
X361918Y293848*
X361596Y293701*
X361489*
X361167Y293848*
X360952Y294144*
X360845Y294587*
Y294734*
X360952Y295177*
X361167Y295472*
X361489Y295620*
X361596*
X361918Y295472*
X362133Y295177*
X362241Y294587*
Y293848*
X362133Y293110*
X361918Y292667*
X361596Y292520*
X361382*
X361059Y292667*
X360952Y292963*
X132726Y170276D02*
X134941D01*
X135384Y170383*
X135679Y170598*
X135827Y170920*
Y171135*
X135679Y171457*
X135384Y171671*
X134941Y171779*
X132726*
X133317Y172745D02*
X133169Y172960D01*
X132726Y173282*
X135827*
X132726Y174893D02*
X132874Y174571D01*
X133317Y174356*
X134055Y174248*
X134498*
X135236Y174356*
X135679Y174571*
X135827Y174893*
Y175107*
X135679Y175429*
X135236Y175644*
X134498Y175752*
X134055*
X133317Y175644*
X132874Y175429*
X132726Y175107*
Y174893*
Y177362D02*
X132874Y177040D01*
X133317Y176825*
X134055Y176718*
X134498*
X135236Y176825*
X135679Y177040*
X135827Y177362*
Y177577*
X135679Y177899*
X135236Y178114*
X134498Y178221*
X134055*
X133317Y178114*
X132874Y177899*
X132726Y177577*
Y177362*
X230709Y215502D02*
Y213287D01*
X230816Y212844*
X231031Y212549*
X231353Y212402*
X231568*
X231890Y212549*
X232105Y212844*
X232212Y213287*
Y215502*
X233286Y214764D02*
Y214911D01*
X233393Y215207*
X233500Y215354*
X233715Y215502*
X234145*
X234359Y215354*
X234467Y215207*
X234574Y214911*
Y214616*
X234467Y214321*
X234252Y213878*
X233178Y212402*
X234681*
X237776Y278297D02*
Y276083D01*
X237883Y275640*
X238098Y275344*
X238420Y275197*
X238635*
X238957Y275344*
X239171Y275640*
X239279Y276083*
Y278297*
X240460D02*
X241641D01*
X240997Y277116*
X241319*
X241534Y276969*
X241641Y276821*
X241748Y276378*
Y276083*
X241641Y275640*
X241426Y275344*
X241104Y275197*
X240782*
X240460Y275344*
X240353Y275492*
X240245Y275787*
X368159Y220669D02*
X370374D01*
X370817Y220777*
X371112Y220991*
X371260Y221314*
Y221528*
X371112Y221850*
X370817Y222065*
X370374Y222173*
X368159*
Y224213D02*
X370226Y223139D01*
Y224749*
X368159Y224213D02*
X371260D01*
X302756Y306250D02*
Y304035D01*
X302863Y303593*
X303078Y303297*
X303400Y303150*
X303615*
X303937Y303297*
X304152Y303593*
X304259Y304035*
Y306250*
X306621D02*
X305548D01*
X305440Y304921*
X305548Y305069*
X305870Y305217*
X306192*
X306514Y305069*
X306729Y304774*
X306836Y304331*
X306729Y304035*
X306621Y303593*
X306407Y303297*
X306084Y303150*
X305762*
X305440Y303297*
X305333Y303445*
X305225Y303740*
X223278Y153740D02*
X224754Y154599D01*
X226378*
X223278Y155458D02*
X224754Y154599D01*
X223868Y156424D02*
X223720Y156639D01*
X223278Y156961*
X226378*
G74*
X0Y0D02*
M02*
